MonaSans-ExpandedExtraLight.ufo
<glyph name="exclam" format="2">
  <advance width="180"/>
  <unicode hex="0021"/>
  <outline>
    <contour>
      <point x="80" y="186" type="line"/>
      <point x="100" y="186" type="line"/>
      <point x="109" y="493" type="line"/>
      <point x="109" y="729" type="line"/>
      <point x="71" y="729" type="line"/>
      <point x="71" y="493" type="line"/>
    </contour>
    <contour>
      <point x="90" y="-7" type="curve" smooth="yes"/>
      <point x="107" y="-7"/>
      <point x="120" y="5"/>
      <point x="120" y="22" type="curve" smooth="yes"/>
      <point x="120" y="39"/>
      <point x="107" y="51"/>
      <point x="90" y="51" type="curve" smooth="yes"/>
      <point x="73" y="51"/>
      <point x="60" y="39"/>
      <point x="60" y="22" type="curve" smooth="yes"/>
      <point x="60" y="5"/>
      <point x="73" y="-7"/>
    </contour>
  </outline>
</glyph>
<glyph name="numbersign" format="2">
  <advance width="663"/>
  <unicode hex="0023"/>
  <outline>
    <contour>
      <point x="198" y="0" type="line"/>
      <point x="230" y="0" type="line"/>
      <point x="230" y="245" type="line"/>
      <point x="440" y="245" type="line"/>
      <point x="440" y="0" type="line"/>
      <point x="472" y="0" type="line"/>
      <point x="472" y="245" type="line"/>
      <point x="645" y="245" type="line"/>
      <point x="645" y="273" type="line"/>
      <point x="472" y="273" type="line"/>
      <point x="472" y="480" type="line"/>
      <point x="645" y="480" type="line"/>
      <point x="645" y="507" type="line"/>
      <point x="472" y="507" type="line"/>
      <point x="472" y="729" type="line"/>
      <point x="440" y="729" type="line"/>
      <point x="440" y="507" type="line"/>
      <point x="230" y="507" type="line"/>
      <point x="230" y="729" type="line"/>
      <point x="198" y="729" type="line"/>
      <point x="198" y="507" type="line"/>
      <point x="19" y="507" type="line"/>
      <point x="19" y="480" type="line"/>
      <point x="198" y="480" type="line"/>
      <point x="198" y="273" type="line"/>
      <point x="19" y="273" type="line"/>
      <point x="19" y="245" type="line"/>
      <point x="198" y="245" type="line"/>
    </contour>
    <contour>
      <point x="230" y="273" type="line"/>
      <point x="230" y="480" type="line"/>
      <point x="440" y="480" type="line"/>
      <point x="440" y="273" type="line"/>
    </contour>
  </outline>
</glyph>
<glyph name="dollar" format="2">
  <advance width="666"/>
  <unicode hex="0024"/>
  <outline>
    <contour>
      <point x="334" y="10" type="curve" smooth="yes"/>
      <point x="506" y="10"/>
      <point x="622" y="74"/>
      <point x="622" y="198" type="curve" smooth="yes"/>
      <point x="622" y="357"/>
      <point x="485" y="377"/>
      <point x="342" y="397" type="curve" smooth="yes"/>
      <point x="196" y="417"/>
      <point x="102" y="432"/>
      <point x="102" y="543" type="curve" smooth="yes"/>
      <point x="102" y="627"/>
      <point x="174" y="685"/>
      <point x="325" y="685" type="curve" smooth="yes"/>
      <point x="464" y="685"/>
      <point x="549" y="631"/>
      <point x="554" y="521" type="curve"/>
      <point x="595" y="521" type="line"/>
      <point x="590" y="645"/>
      <point x="493" y="719"/>
      <point x="326" y="719" type="curve" smooth="yes"/>
      <point x="170" y="719"/>
      <point x="62" y="654"/>
      <point x="62" y="540" type="curve" smooth="yes"/>
      <point x="62" y="400"/>
      <point x="185" y="380"/>
      <point x="331" y="360" type="curve" smooth="yes"/>
      <point x="477" y="340"/>
      <point x="581" y="323"/>
      <point x="581" y="198" type="curve" smooth="yes"/>
      <point x="581" y="104"/>
      <point x="506" y="44"/>
      <point x="334" y="44" type="curve" smooth="yes"/>
      <point x="186" y="44"/>
      <point x="91" y="94"/>
      <point x="84" y="232" type="curve"/>
      <point x="44" y="232" type="line"/>
      <point x="50" y="100"/>
      <point x="133" y="10"/>
    </contour>
    <contour>
      <point x="316" y="-85" type="line"/>
      <point x="350" y="-85" type="line"/>
      <point x="350" y="22" type="line"/>
      <point x="316" y="22" type="line"/>
    </contour>
    <contour>
      <point x="316" y="700" type="line"/>
      <point x="350" y="700" type="line"/>
      <point x="350" y="814" type="line"/>
      <point x="316" y="814" type="line"/>
    </contour>
  </outline>
</glyph>
<glyph name="percent" format="2">
  <advance width="967"/>
  <unicode hex="0025"/>
  <outline>
    <contour>
      <point x="199" y="0" type="line"/>
      <point x="239" y="0" type="line"/>
      <point x="769" y="729" type="line"/>
      <point x="728" y="729" type="line"/>
    </contour>
    <contour>
      <point x="234" y="323" type="curve" smooth="yes"/>
      <point x="338" y="323"/>
      <point x="409" y="393"/>
      <point x="409" y="526" type="curve" smooth="yes"/>
      <point x="409" y="659"/>
      <point x="337" y="729"/>
      <point x="233" y="729" type="curve" smooth="yes"/>
      <point x="128" y="729"/>
      <point x="56" y="659"/>
      <point x="56" y="526" type="curve" smooth="yes"/>
      <point x="56" y="392"/>
      <point x="129" y="323"/>
    </contour>
    <contour>
      <point x="233" y="353" type="curve" smooth="yes"/>
      <point x="143" y="353"/>
      <point x="92" y="415"/>
      <point x="92" y="526" type="curve" smooth="yes"/>
      <point x="92" y="637"/>
      <point x="144" y="699"/>
      <point x="233" y="699" type="curve" smooth="yes"/>
      <point x="323" y="699"/>
      <point x="374" y="637"/>
      <point x="374" y="526" type="curve" smooth="yes"/>
      <point x="374" y="415"/>
      <point x="322" y="353"/>
    </contour>
    <contour>
      <point x="736" y="-10" type="curve" smooth="yes"/>
      <point x="840" y="-10"/>
      <point x="911" y="60"/>
      <point x="911" y="193" type="curve" smooth="yes"/>
      <point x="911" y="326"/>
      <point x="839" y="396"/>
      <point x="735" y="396" type="curve" smooth="yes"/>
      <point x="630" y="396"/>
      <point x="558" y="326"/>
      <point x="558" y="193" type="curve" smooth="yes"/>
      <point x="558" y="59"/>
      <point x="631" y="-10"/>
    </contour>
    <contour>
      <point x="735" y="20" type="curve" smooth="yes"/>
      <point x="645" y="20"/>
      <point x="594" y="82"/>
      <point x="594" y="193" type="curve" smooth="yes"/>
      <point x="594" y="304"/>
      <point x="646" y="366"/>
      <point x="735" y="366" type="curve" smooth="yes"/>
      <point x="825" y="366"/>
      <point x="876" y="304"/>
      <point x="876" y="193" type="curve" smooth="yes"/>
      <point x="876" y="82"/>
      <point x="824" y="20"/>
    </contour>
  </outline>
</glyph>
<glyph name="ampersand" format="2">
  <advance width="786"/>
  <unicode hex="0026"/>
  <outline>
    <contour>
      <point x="709" y="-6" type="curve" smooth="yes"/>
      <point x="729" y="-6"/>
      <point x="748" y="-3"/>
      <point x="756" y="1" type="curve"/>
      <point x="756" y="43" type="line"/>
      <point x="748" y="39"/>
      <point x="731" y="36"/>
      <point x="708" y="36" type="curve" smooth="yes"/>
      <point x="638" y="36"/>
      <point x="577" y="82"/>
      <point x="492" y="170" type="curve" smooth="yes"/>
      <point x="361" y="305" type="line" smooth="yes"/>
      <point x="208" y="462"/>
      <point x="186" y="519"/>
      <point x="186" y="576" type="curve" smooth="yes"/>
      <point x="186" y="653"/>
      <point x="241" y="706"/>
      <point x="325" y="706" type="curve" smooth="yes"/>
      <point x="402" y="706"/>
      <point x="452" y="655"/>
      <point x="452" y="584" type="curve" smooth="yes"/>
      <point x="452" y="507"/>
      <point x="404" y="452"/>
      <point x="263" y="401" type="curve"/>
      <point x="285" y="378" type="line"/>
      <point x="431" y="430"/>
      <point x="490" y="497"/>
      <point x="490" y="583" type="curve" smooth="yes"/>
      <point x="490" y="678"/>
      <point x="420" y="739"/>
      <point x="325" y="739" type="curve" smooth="yes"/>
      <point x="216" y="739"/>
      <point x="147" y="666"/>
      <point x="147" y="578" type="curve" smooth="yes"/>
      <point x="147" y="516"/>
      <point x="174" y="443"/>
      <point x="328" y="285" type="curve" smooth="yes"/>
      <point x="471" y="138" type="line" smooth="yes"/>
      <point x="563" y="44"/>
      <point x="624" y="-6"/>
    </contour>
    <contour>
      <point x="244" y="-10" type="curve" smooth="yes"/>
      <point x="341" y="-10"/>
      <point x="449" y="29"/>
      <point x="510" y="126" type="curve"/>
      <point x="485" y="151" type="line"/>
      <point x="436" y="67"/>
      <point x="349" y="24"/>
      <point x="242" y="24" type="curve" smooth="yes"/>
      <point x="146" y="24"/>
      <point x="80" y="84"/>
      <point x="80" y="173" type="curve" smooth="yes"/>
      <point x="80" y="263"/>
      <point x="134" y="330"/>
      <point x="277" y="377" type="curve"/>
      <point x="254" y="401" type="line"/>
      <point x="126" y="360"/>
      <point x="40" y="281"/>
      <point x="40" y="173" type="curve" smooth="yes"/>
      <point x="40" y="64"/>
      <point x="121" y="-10"/>
    </contour>
    <contour>
      <point x="519" y="138" type="line"/>
      <point x="548" y="186"/>
      <point x="571" y="258"/>
      <point x="580" y="317" type="curve"/>
      <point x="698" y="315" type="line"/>
      <point x="695" y="356" type="line"/>
      <point x="542" y="356" type="line"/>
      <point x="542" y="324" type="line"/>
      <point x="534" y="271"/>
      <point x="523" y="222"/>
      <point x="494" y="166" type="curve"/>
    </contour>
  </outline>
</glyph>
<glyph name="quotesingle" format="2">
  <advance width="135"/>
  <unicode hex="0027"/>
  <anchor x="-19" y="0" name="#entry"/>
  <anchor x="142" y="0" name="#exit"/>
  <outline>
    <contour>
      <point x="58" y="492" type="line"/>
      <point x="78" y="492" type="line"/>
      <point x="84" y="623" type="line"/>
      <point x="84" y="729" type="line"/>
      <point x="51" y="729" type="line"/>
      <point x="51" y="623" type="line"/>
    </contour>
  </outline>
</glyph>
<glyph name="parenleft" format="2">
  <advance width="316"/>
  <unicode hex="0028"/>
  <outline>
    <contour>
      <point x="258" y="-167" type="curve"/>
      <point x="295" y="-167" type="line"/>
      <point x="166" y="-67"/>
      <point x="78" y="115"/>
      <point x="78" y="313" type="curve" smooth="yes"/>
      <point x="78" y="493"/>
      <point x="152" y="682"/>
      <point x="295" y="793" type="curve"/>
      <point x="258" y="793" type="line"/>
      <point x="121" y="685"/>
      <point x="43" y="501"/>
      <point x="43" y="313" type="curve" smooth="yes"/>
      <point x="43" y="125"/>
      <point x="121" y="-59"/>
    </contour>
  </outline>
</glyph>
<glyph name="asterisk" format="2">
  <advance width="293"/>
  <unicode hex="002A"/>
  <outline>
    <contour>
      <point x="131" y="444" type="line"/>
      <point x="161" y="444" type="line"/>
      <point x="161" y="504" type="line"/>
      <point x="152" y="575" type="line"/>
      <point x="211" y="533" type="line"/>
      <point x="264" y="502" type="line"/>
      <point x="278" y="528" type="line"/>
      <point x="225" y="559" type="line"/>
      <point x="164" y="587" type="line"/>
      <point x="225" y="616" type="line"/>
      <point x="277" y="644" type="line"/>
      <point x="264" y="670" type="line"/>
      <point x="211" y="641" type="line"/>
      <point x="152" y="601" type="line"/>
      <point x="161" y="670" type="line"/>
      <point x="161" y="729" type="line"/>
      <point x="131" y="729" type="line"/>
      <point x="131" y="670" type="line"/>
      <point x="140" y="601" type="line"/>
      <point x="84" y="641" type="line"/>
      <point x="30" y="670" type="line"/>
      <point x="16" y="644" type="line"/>
      <point x="68" y="616" type="line"/>
      <point x="130" y="587" type="line"/>
      <point x="68" y="559" type="line"/>
      <point x="15" y="528" type="line"/>
      <point x="30" y="502" type="line"/>
      <point x="84" y="533" type="line"/>
      <point x="140" y="575" type="line"/>
      <point x="131" y="504" type="line"/>
    </contour>
  </outline>
</glyph>
<glyph name="plus" format="2">
  <advance width="720"/>
  <unicode hex="002B"/>
  <outline>
    <contour>
      <point x="343" y="114" type="line"/>
      <point x="377" y="114" type="line"/>
      <point x="377" y="345" type="line"/>
      <point x="608" y="345" type="line"/>
      <point x="608" y="377" type="line"/>
      <point x="377" y="377" type="line"/>
      <point x="377" y="609" type="line"/>
      <point x="343" y="609" type="line"/>
      <point x="343" y="377" type="line"/>
      <point x="113" y="377" type="line"/>
      <point x="113" y="345" type="line"/>
      <point x="343" y="345" type="line"/>
    </contour>
  </outline>
</glyph>
<glyph name="comma" format="2">
  <advance width="146"/>
  <unicode hex="002C"/>
  <anchor x="-16" y="0" name="#entry"/>
  <anchor x="113" y="0" name="#exit"/>
  <anchor x="71" y="524" name="top"/>
  <outline>
    <contour>
      <point x="22" y="-124" type="curve"/>
      <point x="45" y="-124" type="line"/>
      <point x="69" y="-99"/>
      <point x="103" y="-36"/>
      <point x="103" y="11" type="curve" smooth="yes"/>
      <point x="103" y="39"/>
      <point x="89" y="51"/>
      <point x="71" y="51" type="curve" smooth="yes"/>
      <point x="53" y="51"/>
      <point x="41" y="40"/>
      <point x="41" y="23" type="curve" smooth="yes"/>
      <point x="41" y="8"/>
      <point x="51" y="-4"/>
      <point x="69" y="-4" type="curve" smooth="yes"/>
      <point x="80" y="-4"/>
      <point x="88" y="2"/>
      <point x="90" y="8" type="curve"/>
      <point x="85" y="9" type="line"/>
      <point x="83" y="-27"/>
      <point x="62" y="-77"/>
    </contour>
  </outline>
</glyph>
<glyph name="hyphen" format="2">
  <advance width="378"/>
  <unicode hex="002D"/>
  <outline>
    <contour>
      <point x="46" y="243" type="line"/>
      <point x="332" y="243" type="line"/>
      <point x="332" y="275" type="line"/>
      <point x="46" y="275" type="line"/>
    </contour>
  </outline>
</glyph>
<glyph name="period" format="2">
  <advance width="142"/>
  <unicode hex="002E"/>
  <anchor x="-9" y="0" name="#entry"/>
  <anchor x="150" y="0" name="#exit"/>
  <anchor x="71" y="51" name="_top"/>
  <anchor x="71" y="524" name="top"/>
  <outline>
    <contour>
      <point x="71" y="-7" type="curve" smooth="yes"/>
      <point x="88" y="-7"/>
      <point x="101" y="5"/>
      <point x="101" y="22" type="curve" smooth="yes"/>
      <point x="101" y="39"/>
      <point x="88" y="51"/>
      <point x="71" y="51" type="curve" smooth="yes"/>
      <point x="54" y="51"/>
      <point x="41" y="39"/>
      <point x="41" y="22" type="curve" smooth="yes"/>
      <point x="41" y="5"/>
      <point x="54" y="-7"/>
    </contour>
  </outline>
</glyph>
<glyph name="slash" format="2">
  <advance width="444"/>
  <unicode hex="002F"/>
  <outline>
    <contour>
      <point x="-11" y="-81" type="line"/>
      <point x="28" y="-81" type="line"/>
      <point x="437" y="729" type="line"/>
      <point x="401" y="729" type="line"/>
    </contour>
  </outline>
</glyph>
<glyph name="zero" format="2">
  <advance width="734"/>
  <unicode hex="0030"/>
  <outline>
    <contour>
      <point x="369" y="-10" type="curve" smooth="yes"/>
      <point x="562" y="-10"/>
      <point x="695" y="117"/>
      <point x="695" y="360" type="curve" smooth="yes"/>
      <point x="695" y="604"/>
      <point x="559" y="729"/>
      <point x="368" y="729" type="curve" smooth="yes"/>
      <point x="170" y="729"/>
      <point x="39" y="603"/>
      <point x="39" y="360" type="curve" smooth="yes"/>
      <point x="39" y="115"/>
      <point x="175" y="-10"/>
    </contour>
    <contour>
      <point x="368" y="24" type="curve" smooth="yes"/>
      <point x="178" y="24"/>
      <point x="77" y="149"/>
      <point x="77" y="360" type="curve" smooth="yes"/>
      <point x="77" y="572"/>
      <point x="181" y="695"/>
      <point x="368" y="695" type="curve" smooth="yes"/>
      <point x="555" y="695"/>
      <point x="657" y="571"/>
      <point x="657" y="360" type="curve" smooth="yes"/>
      <point x="657" y="149"/>
      <point x="552" y="24"/>
    </contour>
  </outline>
</glyph>
<glyph name="one" format="2">
  <advance width="299"/>
  <unicode hex="0031"/>
  <outline>
    <contour>
      <point x="190" y="0" type="line"/>
      <point x="227" y="0" type="line"/>
      <point x="227" y="721" type="line"/>
      <point x="188" y="721" type="line"/>
      <point x="182" y="653"/>
      <point x="151" y="608"/>
      <point x="52" y="608" type="curve" smooth="yes"/>
      <point x="18" y="608" type="line"/>
      <point x="18" y="579" type="line"/>
      <point x="190" y="579" type="line"/>
    </contour>
  </outline>
</glyph>
<glyph name="two" format="2">
  <advance width="605"/>
  <unicode hex="0032"/>
  <outline>
    <contour>
      <point x="32" y="0" type="line"/>
      <point x="577" y="0" type="line"/>
      <point x="577" y="34" type="line"/>
      <point x="69" y="34" type="line"/>
      <point x="69" y="239"/>
      <point x="563" y="251"/>
      <point x="563" y="524" type="curve" smooth="yes"/>
      <point x="563" y="647"/>
      <point x="468" y="730"/>
      <point x="303" y="730" type="curve" smooth="yes"/>
      <point x="141" y="730"/>
      <point x="32" y="648"/>
      <point x="33" y="507" type="curve"/>
      <point x="68" y="507" type="line"/>
      <point x="68" y="620"/>
      <point x="154" y="696"/>
      <point x="301" y="696" type="curve" smooth="yes"/>
      <point x="435" y="696"/>
      <point x="524" y="636"/>
      <point x="524" y="521" type="curve" smooth="yes"/>
      <point x="524" y="267"/>
      <point x="32" y="283"/>
      <point x="32" y="17" type="curve" smooth="yes"/>
    </contour>
  </outline>
</glyph>
<glyph name="three" format="2">
  <advance width="650"/>
  <unicode hex="0033"/>
  <outline>
    <contour>
      <point x="316" y="-8" type="curve" smooth="yes"/>
      <point x="498" y="-8"/>
      <point x="613" y="67"/>
      <point x="613" y="195" type="curve" smooth="yes"/>
      <point x="613" y="300"/>
      <point x="544" y="363"/>
      <point x="432" y="373" type="curve"/>
      <point x="432" y="377" type="line"/>
      <point x="527" y="391"/>
      <point x="597" y="452"/>
      <point x="597" y="547" type="curve" smooth="yes"/>
      <point x="597" y="676"/>
      <point x="479" y="729"/>
      <point x="322" y="729" type="curve" smooth="yes"/>
      <point x="161" y="729"/>
      <point x="38" y="640"/>
      <point x="46" y="504" type="curve"/>
      <point x="81" y="504" type="line"/>
      <point x="80" y="623"/>
      <point x="181" y="695"/>
      <point x="322" y="695" type="curve" smooth="yes"/>
      <point x="461" y="695"/>
      <point x="559" y="652"/>
      <point x="559" y="546" type="curve" smooth="yes"/>
      <point x="559" y="454"/>
      <point x="496" y="391"/>
      <point x="338" y="391" type="curve" smooth="yes"/>
      <point x="252" y="391" type="line"/>
      <point x="252" y="358" type="line"/>
      <point x="350" y="358" type="line" smooth="yes"/>
      <point x="484" y="358"/>
      <point x="573" y="316"/>
      <point x="573" y="196" type="curve" smooth="yes"/>
      <point x="573" y="94"/>
      <point x="488" y="26"/>
      <point x="316" y="26" type="curve" smooth="yes"/>
      <point x="167" y="26"/>
      <point x="67" y="91"/>
      <point x="67" y="220" type="curve"/>
      <point x="30" y="220" type="line"/>
      <point x="30" y="85"/>
      <point x="133" y="-8"/>
    </contour>
  </outline>
</glyph>
<glyph name="four" format="2">
  <advance width="710"/>
  <unicode hex="0034"/>
  <outline>
    <contour>
      <point x="497" y="0" type="line"/>
      <point x="534" y="0" type="line"/>
      <point x="534" y="721" type="line"/>
      <point x="493" y="721" type="line"/>
      <point x="19" y="232" type="line"/>
      <point x="19" y="197" type="line"/>
      <point x="692" y="197" type="line"/>
      <point x="692" y="229" type="line"/>
      <point x="65" y="229" type="line"/>
      <point x="499" y="677" type="line"/>
      <point x="497" y="677" type="line"/>
    </contour>
  </outline>
</glyph>
<glyph name="five" format="2">
  <advance width="662"/>
  <unicode hex="0035"/>
  <outline>
    <contour>
      <point x="327" y="-8" type="curve" smooth="yes"/>
      <point x="507" y="-8"/>
      <point x="629" y="81"/>
      <point x="629" y="235" type="curve" smooth="yes"/>
      <point x="629" y="378"/>
      <point x="532" y="473"/>
      <point x="336" y="473" type="curve" smooth="yes"/>
      <point x="235" y="473"/>
      <point x="143" y="435"/>
      <point x="99" y="379" type="curve"/>
      <point x="95" y="380" type="line"/>
      <point x="113" y="688" type="line"/>
      <point x="613" y="688" type="line"/>
      <point x="613" y="721" type="line"/>
      <point x="79" y="721" type="line"/>
      <point x="58" y="338" type="line"/>
      <point x="96" y="338" type="line"/>
      <point x="135" y="398"/>
      <point x="220" y="439"/>
      <point x="333" y="439" type="curve" smooth="yes"/>
      <point x="496" y="439"/>
      <point x="589" y="370"/>
      <point x="589" y="233" type="curve" smooth="yes"/>
      <point x="589" y="109"/>
      <point x="503" y="26"/>
      <point x="327" y="26" type="curve" smooth="yes"/>
      <point x="175" y="26"/>
      <point x="74" y="104"/>
      <point x="76" y="220" type="curve"/>
      <point x="41" y="220" type="line"/>
      <point x="40" y="83"/>
      <point x="156" y="-8"/>
    </contour>
  </outline>
</glyph>
<glyph name="six" format="2">
  <advance width="673"/>
  <unicode hex="0036"/>
  <outline>
    <contour>
      <point x="347" y="-8" type="curve" smooth="yes"/>
      <point x="521" y="-8"/>
      <point x="638" y="80"/>
      <point x="638" y="231" type="curve" smooth="yes"/>
      <point x="638" y="378"/>
      <point x="529" y="462"/>
      <point x="353" y="462" type="curve" smooth="yes"/>
      <point x="217" y="462"/>
      <point x="111" y="395"/>
      <point x="81" y="294" type="curve"/>
      <point x="77" y="294" type="line"/>
      <point x="79" y="528"/>
      <point x="119" y="695"/>
      <point x="360" y="695" type="curve" smooth="yes"/>
      <point x="484" y="695"/>
      <point x="574" y="644"/>
      <point x="587" y="552" type="curve"/>
      <point x="625" y="552" type="line"/>
      <point x="614" y="659"/>
      <point x="509" y="729"/>
      <point x="360" y="729" type="curve" smooth="yes"/>
      <point x="142" y="729"/>
      <point x="42" y="603"/>
      <point x="42" y="309" type="curve" smooth="yes"/>
      <point x="42" y="120"/>
      <point x="117" y="-8"/>
    </contour>
    <contour>
      <point x="349" y="26" type="curve" smooth="yes"/>
      <point x="197" y="26"/>
      <point x="94" y="91"/>
      <point x="94" y="223" type="curve" smooth="yes"/>
      <point x="94" y="338"/>
      <point x="192" y="429"/>
      <point x="352" y="429" type="curve" smooth="yes"/>
      <point x="499" y="429"/>
      <point x="598" y="364"/>
      <point x="598" y="231" type="curve" smooth="yes"/>
      <point x="598" y="108"/>
      <point x="516" y="26"/>
    </contour>
  </outline>
</glyph>
<glyph name="seven" format="2">
  <advance width="588"/>
  <unicode hex="0037"/>
  <outline>
    <contour>
      <point x="208" y="0" type="curve"/>
      <point x="247" y="0" type="line"/>
      <point x="284" y="260"/>
      <point x="404" y="494"/>
      <point x="572" y="696" type="curve"/>
      <point x="572" y="721" type="line"/>
      <point x="30" y="721" type="line"/>
      <point x="30" y="524" type="line"/>
      <point x="62" y="524" type="line"/>
      <point x="62" y="690" type="line"/>
      <point x="527" y="690" type="line"/>
      <point x="368" y="498"/>
      <point x="246" y="270"/>
    </contour>
  </outline>
</glyph>
<glyph name="eight" format="2">
  <advance width="663"/>
  <unicode hex="0038"/>
  <outline>
    <contour>
      <point x="332" y="-8" type="curve" smooth="yes"/>
      <point x="511" y="-8"/>
      <point x="626" y="61"/>
      <point x="626" y="191" type="curve" smooth="yes"/>
      <point x="626" y="300"/>
      <point x="541" y="367"/>
      <point x="433" y="371" type="curve"/>
      <point x="433" y="375" type="line"/>
      <point x="542" y="389"/>
      <point x="611" y="448"/>
      <point x="611" y="546" type="curve" smooth="yes"/>
      <point x="611" y="674"/>
      <point x="488" y="729"/>
      <point x="332" y="729" type="curve" smooth="yes"/>
      <point x="175" y="729"/>
      <point x="53" y="675"/>
      <point x="53" y="546" type="curve" smooth="yes"/>
      <point x="53" y="448"/>
      <point x="121" y="389"/>
      <point x="230" y="375" type="curve"/>
      <point x="230" y="371" type="line"/>
      <point x="122" y="366"/>
      <point x="37" y="299"/>
      <point x="37" y="191" type="curve" smooth="yes"/>
      <point x="37" y="61"/>
      <point x="152" y="-8"/>
    </contour>
    <contour>
      <point x="332" y="26" type="curve" smooth="yes"/>
      <point x="162" y="26"/>
      <point x="77" y="86"/>
      <point x="77" y="195" type="curve" smooth="yes"/>
      <point x="77" y="310"/>
      <point x="171" y="356"/>
      <point x="332" y="356" type="curve" smooth="yes"/>
      <point x="492" y="356"/>
      <point x="586" y="311"/>
      <point x="586" y="195" type="curve" smooth="yes"/>
      <point x="586" y="87"/>
      <point x="502" y="26"/>
    </contour>
    <contour>
      <point x="332" y="389" type="curve" smooth="yes"/>
      <point x="155" y="389"/>
      <point x="91" y="452"/>
      <point x="91" y="542" type="curve" smooth="yes"/>
      <point x="91" y="652"/>
      <point x="192" y="696"/>
      <point x="332" y="696" type="curve" smooth="yes"/>
      <point x="471" y="696"/>
      <point x="572" y="652"/>
      <point x="572" y="542" type="curve" smooth="yes"/>
      <point x="572" y="453"/>
      <point x="509" y="389"/>
    </contour>
  </outline>
</glyph>
<glyph name="equal" format="2">
  <advance width="720"/>
  <unicode hex="003D"/>
  <anchor x="360" y="366" name="center"/>
  <outline>
    <contour>
      <point x="112" y="464" type="line"/>
      <point x="607" y="464" type="line"/>
      <point x="607" y="496" type="line"/>
      <point x="112" y="496" type="line"/>
    </contour>
    <contour>
      <point x="112" y="227" type="line"/>
      <point x="607" y="227" type="line"/>
      <point x="607" y="259" type="line"/>
      <point x="112" y="259" type="line"/>
    </contour>
  </outline>
</glyph>
<glyph name="greater" format="2">
  <advance width="720"/>
  <unicode hex="003E"/>
  <outline>
    <contour>
      <point x="96" y="116" type="line"/>
      <point x="628" y="338" type="line"/>
      <point x="628" y="384" type="line"/>
      <point x="96" y="606" type="line"/>
      <point x="96" y="567" type="line"/>
      <point x="587" y="363" type="line"/>
      <point x="587" y="359" type="line"/>
      <point x="96" y="155" type="line"/>
    </contour>
  </outline>
</glyph>
<glyph name="at" format="2">
  <advance width="982"/>
  <unicode hex="0040"/>
  <outline>
    <contour>
      <point x="493" y="-101" type="curve" smooth="yes"/>
      <point x="577" y="-101"/>
      <point x="690" y="-78"/>
      <point x="755" y="-30" type="curve"/>
      <point x="740" y="-3" type="line"/>
      <point x="681" y="-45"/>
      <point x="592" y="-70"/>
      <point x="489" y="-70" type="curve" smooth="yes"/>
      <point x="245" y="-70"/>
      <point x="83" y="68"/>
      <point x="83" y="314" type="curve" smooth="yes"/>
      <point x="83" y="548"/>
      <point x="247" y="707"/>
      <point x="496" y="707" type="curve" smooth="yes"/>
      <point x="736" y="707"/>
      <point x="903" y="568"/>
      <point x="903" y="365" type="curve" smooth="yes"/>
      <point x="903" y="226"/>
      <point x="839" y="133"/>
      <point x="744" y="133" type="curve" smooth="yes"/>
      <point x="680" y="133"/>
      <point x="641" y="165"/>
      <point x="649" y="268" type="curve" smooth="yes"/>
      <point x="667" y="504" type="line"/>
      <point x="634" y="504" type="line"/>
      <point x="625" y="410" type="line"/>
      <point x="622" y="410" type="line"/>
      <point x="604" y="474"/>
      <point x="542" y="516"/>
      <point x="466" y="516" type="curve" smooth="yes"/>
      <point x="351" y="516"/>
      <point x="274" y="427"/>
      <point x="274" y="297" type="curve" smooth="yes"/>
      <point x="274" y="164"/>
      <point x="361" y="106"/>
      <point x="450" y="106" type="curve" smooth="yes"/>
      <point x="519" y="106"/>
      <point x="590" y="141"/>
      <point x="618" y="223" type="curve"/>
      <point x="621" y="223" type="line"/>
      <point x="621" y="152"/>
      <point x="665" y="105"/>
      <point x="744" y="105" type="curve" smooth="yes"/>
      <point x="860" y="105"/>
      <point x="938" y="210"/>
      <point x="938" y="367" type="curve" smooth="yes"/>
      <point x="938" y="589"/>
      <point x="749" y="738"/>
      <point x="498" y="738" type="curve" smooth="yes"/>
      <point x="229" y="738"/>
      <point x="47" y="567"/>
      <point x="47" y="312" type="curve" smooth="yes"/>
      <point x="47" y="64"/>
      <point x="210" y="-101"/>
    </contour>
    <contour>
      <point x="453" y="136" type="curve" smooth="yes"/>
      <point x="367" y="136"/>
      <point x="309" y="194"/>
      <point x="309" y="296" type="curve" smooth="yes"/>
      <point x="309" y="412"/>
      <point x="368" y="489"/>
      <point x="473" y="489" type="curve" smooth="yes"/>
      <point x="559" y="489"/>
      <point x="619" y="423"/>
      <point x="622" y="323" type="curve"/>
      <point x="616" y="211"/>
      <point x="561" y="136"/>
    </contour>
  </outline>
</glyph>
<glyph name="A" format="2">
  <advance width="803"/>
  <unicode hex="0041"/>
  <anchor x="402" y="0" name="bottom"/>
  <anchor x="787" y="0" name="ogonek"/>
  <anchor x="402" y="729" name="top"/>
  <outline>
    <contour>
      <point x="16" y="0" type="line"/>
      <point x="57" y="0" type="line"/>
      <point x="347" y="585" type="line"/>
      <point x="401" y="695" type="line"/>
      <point x="404" y="695" type="line"/>
      <point x="456" y="589" type="line"/>
      <point x="746" y="0" type="line"/>
      <point x="787" y="0" type="line"/>
      <point x="426" y="729" type="line"/>
      <point x="378" y="729" type="line"/>
    </contour>
    <contour>
      <point x="147" y="200" type="line"/>
      <point x="656" y="200" type="line"/>
      <point x="640" y="233" type="line"/>
      <point x="165" y="233" type="line"/>
    </contour>
  </outline>
</glyph>
<glyph name="B" format="2">
  <advance width="732"/>
  <unicode hex="0042"/>
  <anchor x="361" y="0" name="bottom"/>
  <anchor x="361" y="729" name="top"/>
  <outline>
    <contour>
      <point x="72" y="0" type="line"/>
      <point x="461" y="0" type="line" smooth="yes"/>
      <point x="604" y="0"/>
      <point x="695" y="78"/>
      <point x="695" y="200" type="curve" smooth="yes"/>
      <point x="695" y="285"/>
      <point x="646" y="356"/>
      <point x="549" y="374" type="curve"/>
      <point x="549" y="377" type="line"/>
      <point x="637" y="397"/>
      <point x="676" y="464"/>
      <point x="676" y="543" type="curve" smooth="yes"/>
      <point x="676" y="654"/>
      <point x="597" y="729"/>
      <point x="462" y="729" type="curve" smooth="yes"/>
      <point x="72" y="729" type="line"/>
    </contour>
    <contour>
      <point x="110" y="36" type="line"/>
      <point x="110" y="694" type="line"/>
      <point x="461" y="694" type="line" smooth="yes"/>
      <point x="568" y="694"/>
      <point x="638" y="635"/>
      <point x="638" y="538" type="curve" smooth="yes"/>
      <point x="638" y="450"/>
      <point x="582" y="391"/>
      <point x="477" y="391" type="curve" smooth="yes"/>
      <point x="101" y="391" type="line"/>
      <point x="101" y="356" type="line"/>
      <point x="479" y="356" type="line" smooth="yes"/>
      <point x="591" y="356"/>
      <point x="655" y="298"/>
      <point x="655" y="202" type="curve" smooth="yes"/>
      <point x="655" y="104"/>
      <point x="589" y="36"/>
      <point x="461" y="36" type="curve" smooth="yes"/>
    </contour>
  </outline>
</glyph>
<glyph name="C" format="2">
  <advance width="797"/>
  <unicode hex="0043"/>
  <anchor x="401" y="0" name="bottom"/>
  <anchor x="401" y="729" name="top"/>
  <outline>
    <contour>
      <point x="417" y="-8" type="curve" smooth="yes"/>
      <point x="607" y="-8"/>
      <point x="745" y="88"/>
      <point x="768" y="238" type="curve"/>
      <point x="729" y="238" type="line"/>
      <point x="706" y="111"/>
      <point x="589" y="28"/>
      <point x="417" y="28" type="curve" smooth="yes"/>
      <point x="205" y="28"/>
      <point x="76" y="162"/>
      <point x="76" y="364" type="curve" smooth="yes"/>
      <point x="76" y="566"/>
      <point x="205" y="700"/>
      <point x="417" y="700" type="curve" smooth="yes"/>
      <point x="582" y="700"/>
      <point x="703" y="620"/>
      <point x="729" y="494" type="curve"/>
      <point x="768" y="494" type="line"/>
      <point x="739" y="643"/>
      <point x="603" y="736"/>
      <point x="417" y="736" type="curve" smooth="yes"/>
      <point x="188" y="736"/>
      <point x="36" y="587"/>
      <point x="36" y="364" type="curve" smooth="yes"/>
      <point x="36" y="142"/>
      <point x="187" y="-8"/>
    </contour>
  </outline>
</glyph>
<glyph name="D" format="2">
  <advance width="785"/>
  <unicode hex="0044"/>
  <anchor x="395" y="0" name="bottom"/>
  <anchor x="120" y="365" name="center"/>
  <anchor x="395" y="729" name="top"/>
  <outline>
    <contour>
      <point x="72" y="0" type="line"/>
      <point x="380" y="0" type="line" smooth="yes"/>
      <point x="608" y="0"/>
      <point x="748" y="144"/>
      <point x="748" y="364" type="curve" smooth="yes"/>
      <point x="748" y="585"/>
      <point x="608" y="729"/>
      <point x="380" y="729" type="curve" smooth="yes"/>
      <point x="72" y="729" type="line"/>
    </contour>
    <contour>
      <point x="110" y="37" type="line"/>
      <point x="110" y="693" type="line"/>
      <point x="380" y="693" type="line" smooth="yes"/>
      <point x="581" y="693"/>
      <point x="709" y="570"/>
      <point x="709" y="365" type="curve" smooth="yes"/>
      <point x="709" y="167"/>
      <point x="587" y="37"/>
      <point x="380" y="37" type="curve" smooth="yes"/>
    </contour>
  </outline>
</glyph>
<glyph name="E" format="2">
  <advance width="660"/>
  <unicode hex="0045"/>
  <anchor x="336" y="0" name="bottom"/>
  <anchor x="638" y="0" name="ogonek"/>
  <anchor x="336" y="729" name="top"/>
  <anchor x="21" y="729" name="topleft"/>
  <outline>
    <contour>
      <point x="72" y="0" type="line"/>
      <point x="638" y="0" type="line"/>
      <point x="638" y="37" type="line"/>
      <point x="85" y="37" type="line"/>
      <point x="110" y="12" type="line"/>
      <point x="110" y="718" type="line"/>
      <point x="85" y="693" type="line"/>
      <point x="638" y="693" type="line"/>
      <point x="638" y="729" type="line"/>
      <point x="72" y="729" type="line"/>
    </contour>
    <contour>
      <point x="95" y="358" type="line"/>
      <point x="590" y="358" type="line"/>
      <point x="590" y="392" type="line"/>
      <point x="95" y="392" type="line"/>
    </contour>
  </outline>
</glyph>
<glyph name="F" format="2">
  <advance width="653"/>
  <unicode hex="0046"/>
  <anchor x="331" y="0" name="bottom"/>
  <anchor x="331" y="729" name="top"/>
  <outline>
    <contour>
      <point x="72" y="0" type="line"/>
      <point x="110" y="0" type="line"/>
      <point x="110" y="708" type="line"/>
      <point x="95" y="693" type="line"/>
      <point x="636" y="693" type="line"/>
      <point x="636" y="729" type="line"/>
      <point x="72" y="729" type="line"/>
    </contour>
    <contour>
      <point x="86" y="349" type="line"/>
      <point x="596" y="349" type="line"/>
      <point x="596" y="384" type="line"/>
      <point x="86" y="384" type="line"/>
    </contour>
  </outline>
</glyph>
<glyph name="G" format="2">
  <advance width="828"/>
  <unicode hex="0047"/>
  <anchor x="435" y="0" name="bottom"/>
  <anchor x="422" y="729" name="top"/>
  <outline>
    <contour>
      <point x="409" y="-8" type="curve" smooth="yes"/>
      <point x="567" y="-8"/>
      <point x="695" y="64"/>
      <point x="733" y="174" type="curve"/>
      <point x="740" y="174" type="line"/>
      <point x="746" y="0" type="line"/>
      <point x="777" y="0" type="line"/>
      <point x="777" y="376" type="line"/>
      <point x="379" y="376" type="line"/>
      <point x="379" y="340" type="line"/>
      <point x="756" y="340" type="line"/>
      <point x="738" y="357" type="line"/>
      <point x="738" y="298" type="line" smooth="yes"/>
      <point x="738" y="132"/>
      <point x="602" y="28"/>
      <point x="407" y="28" type="curve" smooth="yes"/>
      <point x="202" y="28"/>
      <point x="74" y="161"/>
      <point x="74" y="364" type="curve" smooth="yes"/>
      <point x="74" y="566"/>
      <point x="205" y="700"/>
      <point x="422" y="700" type="curve" smooth="yes"/>
      <point x="587" y="700"/>
      <point x="697" y="629"/>
      <point x="728" y="515" type="curve"/>
      <point x="767" y="515" type="line"/>
      <point x="734" y="658"/>
      <point x="600" y="736"/>
      <point x="422" y="736" type="curve" smooth="yes"/>
      <point x="189" y="736"/>
      <point x="36" y="587"/>
      <point x="36" y="364" type="curve" smooth="yes"/>
      <point x="36" y="140"/>
      <point x="185" y="-8"/>
    </contour>
  </outline>
</glyph>
<glyph name="H" format="2">
  <advance width="811"/>
  <unicode hex="0048"/>
  <anchor x="406" y="0" name="bottom"/>
  <anchor x="406" y="592" name="center"/>
  <anchor x="406" y="729" name="top"/>
  <anchor x="21" y="729" name="topleft"/>
  <outline>
    <contour>
      <point x="72" y="0" type="line"/>
      <point x="110" y="0" type="line"/>
      <point x="110" y="729" type="line"/>
      <point x="72" y="729" type="line"/>
    </contour>
    <contour>
      <point x="701" y="0" type="line"/>
      <point x="739" y="0" type="line"/>
      <point x="739" y="729" type="line"/>
      <point x="701" y="729" type="line"/>
    </contour>
    <contour>
      <point x="96" y="362" type="line"/>
      <point x="715" y="362" type="line"/>
      <point x="715" y="398" type="line"/>
      <point x="96" y="398" type="line"/>
    </contour>
  </outline>
</glyph>
<glyph name="J" format="2">
  <advance width="425"/>
  <unicode hex="004A"/>
  <anchor x="183" y="0" name="bottom"/>
  <anchor x="341" y="729" name="top"/>
  <outline>
    <contour>
      <point x="16" y="0" type="line"/>
      <point x="158" y="0" type="line" smooth="yes"/>
      <point x="293" y="0"/>
      <point x="360" y="67"/>
      <point x="360" y="202" type="curve" smooth="yes"/>
      <point x="360" y="729" type="line"/>
      <point x="322" y="729" type="line"/>
      <point x="322" y="203" type="line" smooth="yes"/>
      <point x="322" y="88"/>
      <point x="269" y="35"/>
      <point x="154" y="35" type="curve" smooth="yes"/>
      <point x="16" y="35" type="line"/>
    </contour>
  </outline>
</glyph>
<glyph name="K" format="2">
  <advance width="696"/>
  <unicode hex="004B"/>
  <anchor x="349" y="0" name="bottom"/>
  <anchor x="349" y="729" name="top"/>
  <outline>
    <contour>
      <point x="631" y="0" type="line"/>
      <point x="680" y="0" type="line"/>
      <point x="338" y="412" type="line"/>
      <point x="673" y="729" type="line"/>
      <point x="623" y="729" type="line"/>
      <point x="99" y="233" type="line"/>
      <point x="99" y="188" type="line"/>
      <point x="309" y="386" type="line"/>
    </contour>
    <contour>
      <point x="72" y="0" type="line"/>
      <point x="110" y="0" type="line"/>
      <point x="110" y="729" type="line"/>
      <point x="72" y="729" type="line"/>
    </contour>
  </outline>
</glyph>
<glyph name="L" format="2">
  <advance width="576"/>
  <unicode hex="004C"/>
  <anchor x="292" y="0" name="bottom"/>
  <anchor x="326" y="365" name="center"/>
  <anchor x="91" y="729" name="top"/>
  <anchor x="229" y="729" name="topright"/>
  <outline>
    <contour>
      <point x="72" y="0" type="line"/>
      <point x="560" y="0" type="line"/>
      <point x="560" y="37" type="line"/>
      <point x="92" y="37" type="line"/>
      <point x="110" y="23" type="line"/>
      <point x="110" y="729" type="line"/>
      <point x="72" y="729" type="line"/>
    </contour>
  </outline>
</glyph>
<glyph name="M" format="2">
  <advance width="922"/>
  <unicode hex="004D"/>
  <anchor x="461" y="0" name="bottom"/>
  <anchor x="461" y="729" name="top"/>
  <outline>
    <contour>
      <point x="72" y="0" type="line"/>
      <point x="110" y="0" type="line"/>
      <point x="110" y="420" type="line"/>
      <point x="107" y="693" type="line"/>
      <point x="114" y="693" type="line"/>
      <point x="221" y="464" type="line"/>
      <point x="439" y="0" type="line"/>
      <point x="481" y="0" type="line"/>
      <point x="702" y="467" type="line"/>
      <point x="807" y="693" type="line"/>
      <point x="814" y="693" type="line"/>
      <point x="811" y="420" type="line"/>
      <point x="811" y="0" type="line"/>
      <point x="850" y="0" type="line"/>
      <point x="850" y="729" type="line"/>
      <point x="786" y="729" type="line"/>
      <point x="561" y="258" type="line"/>
      <point x="463" y="41" type="line"/>
      <point x="457" y="41" type="line"/>
      <point x="360" y="258" type="line"/>
      <point x="136" y="729" type="line"/>
      <point x="72" y="729" type="line"/>
    </contour>
  </outline>
</glyph>
<glyph name="N" format="2">
  <advance width="805"/>
  <unicode hex="004E"/>
  <anchor x="403" y="0" name="bottom"/>
  <anchor x="403" y="729" name="top"/>
  <outline>
    <contour>
      <point x="72" y="0" type="line"/>
      <point x="110" y="0" type="line"/>
      <point x="110" y="436" type="line"/>
      <point x="107" y="686" type="line"/>
      <point x="112" y="686" type="line"/>
      <point x="681" y="0" type="line"/>
      <point x="733" y="0" type="line"/>
      <point x="733" y="729" type="line"/>
      <point x="695" y="729" type="line"/>
      <point x="695" y="303" type="line"/>
      <point x="699" y="43" type="line"/>
      <point x="694" y="43" type="line"/>
      <point x="124" y="729" type="line"/>
      <point x="72" y="729" type="line"/>
    </contour>
  </outline>
</glyph>
<glyph name="O" format="2">
  <advance width="832"/>
  <unicode hex="004F"/>
  <anchor x="416" y="0" name="bottom"/>
  <anchor x="416" y="365" name="center"/>
  <anchor x="753" y="10" name="ogonek"/>
  <anchor x="416" y="729" name="top"/>
  <anchor x="15" y="729" name="topleft"/>
  <anchor x="570" y="709" name="topright"/>
  <outline>
    <contour>
      <point x="416" y="-8" type="curve" smooth="yes"/>
      <point x="644" y="-8"/>
      <point x="796" y="140"/>
      <point x="796" y="364" type="curve" smooth="yes"/>
      <point x="796" y="587"/>
      <point x="646" y="736"/>
      <point x="416" y="736" type="curve" smooth="yes"/>
      <point x="187" y="736"/>
      <point x="36" y="588"/>
      <point x="36" y="364" type="curve" smooth="yes"/>
      <point x="36" y="142"/>
      <point x="186" y="-8"/>
    </contour>
    <contour>
      <point x="416" y="28" type="curve" smooth="yes"/>
      <point x="206" y="28"/>
      <point x="76" y="163"/>
      <point x="76" y="364" type="curve" smooth="yes"/>
      <point x="76" y="565"/>
      <point x="204" y="700"/>
      <point x="416" y="700" type="curve" smooth="yes"/>
      <point x="625" y="700"/>
      <point x="756" y="566"/>
      <point x="756" y="364" type="curve" smooth="yes"/>
      <point x="756" y="164"/>
      <point x="627" y="28"/>
    </contour>
  </outline>
</glyph>
<glyph name="P" format="2">
  <advance width="698"/>
  <unicode hex="0050"/>
  <anchor x="350" y="0" name="bottom"/>
  <anchor x="350" y="729" name="top"/>
  <outline>
    <contour>
      <point x="72" y="0" type="line"/>
      <point x="110" y="0" type="line"/>
      <point x="110" y="710" type="line"/>
      <point x="92" y="692" type="line"/>
      <point x="412" y="692" type="line" smooth="yes"/>
      <point x="554" y="692"/>
      <point x="629" y="623"/>
      <point x="629" y="509" type="curve" smooth="yes"/>
      <point x="629" y="398"/>
      <point x="555" y="325"/>
      <point x="412" y="325" type="curve" smooth="yes"/>
      <point x="101" y="325" type="line"/>
      <point x="101" y="289" type="line"/>
      <point x="414" y="289" type="line" smooth="yes"/>
      <point x="573" y="289"/>
      <point x="669" y="375"/>
      <point x="669" y="509" type="curve" smooth="yes"/>
      <point x="669" y="649"/>
      <point x="574" y="729"/>
      <point x="415" y="729" type="curve" smooth="yes"/>
      <point x="72" y="729" type="line"/>
    </contour>
  </outline>
</glyph>
<glyph name="R" format="2">
  <advance width="735"/>
  <unicode hex="0052"/>
  <anchor x="359" y="0" name="bottom"/>
  <anchor x="335" y="729" name="top"/>
  <outline>
    <contour>
      <point x="72" y="0" type="line"/>
      <point x="110" y="0" type="line"/>
      <point x="110" y="693" type="line"/>
      <point x="463" y="693" type="line" smooth="yes"/>
      <point x="575" y="693"/>
      <point x="649" y="645"/>
      <point x="649" y="536" type="curve" smooth="yes"/>
      <point x="649" y="439"/>
      <point x="596" y="371"/>
      <point x="463" y="371" type="curve" smooth="yes"/>
      <point x="101" y="371" type="line"/>
      <point x="101" y="336" type="line"/>
      <point x="477" y="336" type="line" smooth="yes"/>
      <point x="603" y="336"/>
      <point x="634" y="291"/>
      <point x="634" y="200" type="curve" smooth="yes"/>
      <point x="634" y="77" type="line" smooth="yes"/>
      <point x="634" y="45"/>
      <point x="635" y="22"/>
      <point x="645" y="0" type="curve"/>
      <point x="683" y="0" type="line"/>
      <point x="672" y="26"/>
      <point x="672" y="50"/>
      <point x="672" y="73" type="curve" smooth="yes"/>
      <point x="672" y="207" type="line" smooth="yes"/>
      <point x="672" y="291"/>
      <point x="643" y="341"/>
      <point x="557" y="354" type="curve"/>
      <point x="557" y="361" type="line"/>
      <point x="645" y="386"/>
      <point x="688" y="450"/>
      <point x="688" y="540" type="curve" smooth="yes"/>
      <point x="688" y="660"/>
      <point x="609" y="729"/>
      <point x="467" y="729" type="curve" smooth="yes"/>
      <point x="72" y="729" type="line"/>
    </contour>
  </outline>
</glyph>
<glyph name="S" format="2">
  <advance width="680"/>
  <unicode hex="0053"/>
  <anchor x="351" y="0" name="bottom"/>
  <anchor x="332" y="729" name="top"/>
  <outline>
    <contour>
      <point x="351" y="-8" type="curve" smooth="yes"/>
      <point x="548" y="-8"/>
      <point x="649" y="69"/>
      <point x="649" y="192" type="curve" smooth="yes"/>
      <point x="649" y="356"/>
      <point x="506" y="377"/>
      <point x="349" y="398" type="curve" smooth="yes"/>
      <point x="193" y="419"/>
      <point x="91" y="434"/>
      <point x="91" y="552" type="curve" smooth="yes"/>
      <point x="91" y="645"/>
      <point x="180" y="703"/>
      <point x="332" y="703" type="curve" smooth="yes"/>
      <point x="483" y="703"/>
      <point x="575" y="646"/>
      <point x="580" y="529" type="curve"/>
      <point x="620" y="529" type="line"/>
      <point x="616" y="654"/>
      <point x="520" y="737"/>
      <point x="334" y="737" type="curve" smooth="yes"/>
      <point x="166" y="737"/>
      <point x="52" y="669"/>
      <point x="52" y="550" type="curve" smooth="yes"/>
      <point x="52" y="402"/>
      <point x="184" y="382"/>
      <point x="339" y="361" type="curve" smooth="yes"/>
      <point x="494" y="340"/>
      <point x="609" y="321"/>
      <point x="609" y="191" type="curve" smooth="yes"/>
      <point x="609" y="89"/>
      <point x="527" y="26"/>
      <point x="351" y="26" type="curve" smooth="yes"/>
      <point x="178" y="26"/>
      <point x="79" y="89"/>
      <point x="72" y="225" type="curve"/>
      <point x="30" y="225" type="line"/>
      <point x="39" y="86"/>
      <point x="130" y="-8"/>
    </contour>
  </outline>
</glyph>
<glyph name="T" format="2">
  <advance width="655"/>
  <unicode hex="0054"/>
  <anchor x="327" y="0" name="bottom"/>
  <anchor x="328" y="365" name="center"/>
  <anchor x="327" y="729" name="top"/>
  <outline>
    <contour>
      <point x="309" y="0" type="line"/>
      <point x="347" y="0" type="line"/>
      <point x="347" y="703" type="line"/>
      <point x="309" y="703" type="line"/>
    </contour>
    <contour>
      <point x="16" y="693" type="line"/>
      <point x="639" y="693" type="line"/>
      <point x="639" y="729" type="line"/>
      <point x="16" y="729" type="line"/>
    </contour>
  </outline>
</glyph>
<glyph name="U" format="2">
  <advance width="763"/>
  <unicode hex="0055"/>
  <anchor x="382" y="0" name="bottom"/>
  <anchor x="455" y="0" name="ogonek"/>
  <anchor x="382" y="729" name="top"/>
  <anchor x="684" y="729" name="topright"/>
  <outline>
    <contour>
      <point x="381" y="-8" type="curve" smooth="yes"/>
      <point x="576" y="-8"/>
      <point x="703" y="75"/>
      <point x="703" y="294" type="curve" smooth="yes"/>
      <point x="703" y="729" type="line"/>
      <point x="665" y="729" type="line"/>
      <point x="665" y="298" type="line" smooth="yes"/>
      <point x="665" y="125"/>
      <point x="585" y="29"/>
      <point x="381" y="29" type="curve" smooth="yes"/>
      <point x="181" y="29"/>
      <point x="98" y="122"/>
      <point x="98" y="298" type="curve" smooth="yes"/>
      <point x="98" y="729" type="line"/>
      <point x="60" y="729" type="line"/>
      <point x="60" y="294" type="line" smooth="yes"/>
      <point x="60" y="74"/>
      <point x="188" y="-8"/>
    </contour>
  </outline>
</glyph>
<glyph name="V" format="2">
  <advance width="822"/>
  <unicode hex="0056"/>
  <anchor x="413" y="0" name="bottom"/>
  <anchor x="413" y="729" name="top"/>
  <outline>
    <contour>
      <point x="385" y="0" type="line"/>
      <point x="436" y="0" type="line"/>
      <point x="806" y="729" type="line"/>
      <point x="764" y="729" type="line"/>
      <point x="442" y="96" type="line"/>
      <point x="414" y="38" type="line"/>
      <point x="408" y="38" type="line"/>
      <point x="380" y="95" type="line"/>
      <point x="58" y="729" type="line"/>
      <point x="16" y="729" type="line"/>
    </contour>
  </outline>
</glyph>
<glyph name="W" format="2">
  <advance width="1075"/>
  <unicode hex="0057"/>
  <anchor x="538" y="0" name="bottom"/>
  <anchor x="538" y="729" name="top"/>
  <outline>
    <contour>
      <point x="250" y="0" type="line"/>
      <point x="303" y="0" type="line"/>
      <point x="475" y="511" type="line"/>
      <point x="535" y="691" type="line"/>
      <point x="540" y="691" type="line"/>
      <point x="597" y="515" type="line"/>
      <point x="765" y="0" type="line"/>
      <point x="818" y="0" type="line"/>
      <point x="1056" y="729" type="line"/>
      <point x="1016" y="729" type="line"/>
      <point x="842" y="195" type="line"/>
      <point x="795" y="42" type="line"/>
      <point x="787" y="42" type="line"/>
      <point x="738" y="194" type="line"/>
      <point x="564" y="729" type="line"/>
      <point x="512" y="729" type="line"/>
      <point x="334" y="201" type="line"/>
      <point x="281" y="43" type="line"/>
      <point x="274" y="43" type="line"/>
      <point x="228" y="196" type="line"/>
      <point x="60" y="729" type="line"/>
      <point x="19" y="729" type="line"/>
    </contour>
  </outline>
</glyph>
<glyph name="X" format="2">
  <advance width="700"/>
  <unicode hex="0058"/>
  <anchor x="350" y="0" name="bottom"/>
  <anchor x="350" y="729" name="top"/>
  <outline>
    <contour>
      <point x="15" y="0" type="line"/>
      <point x="60" y="0" type="line"/>
      <point x="286" y="274" type="line"/>
      <point x="348" y="350" type="line"/>
      <point x="350" y="350" type="line"/>
      <point x="411" y="274" type="line"/>
      <point x="635" y="0" type="line"/>
      <point x="684" y="0" type="line"/>
      <point x="374" y="375" type="line"/>
      <point x="665" y="729" type="line"/>
      <point x="620" y="729" type="line"/>
      <point x="403" y="466" type="line"/>
      <point x="351" y="400" type="line"/>
      <point x="347" y="399" type="line"/>
      <point x="294" y="466" type="line"/>
      <point x="80" y="729" type="line"/>
      <point x="35" y="729" type="line"/>
      <point x="324" y="375" type="line"/>
    </contour>
  </outline>
</glyph>
<glyph name="Y" format="2">
  <advance width="693"/>
  <unicode hex="0059"/>
  <anchor x="347" y="0" name="bottom"/>
  <anchor x="347" y="729" name="top"/>
  <anchor x="19" y="729" name="topleft"/>
  <outline>
    <contour>
      <point x="327" y="0" type="line"/>
      <point x="365" y="0" type="line"/>
      <point x="365" y="300" type="line"/>
      <point x="679" y="729" type="line"/>
      <point x="633" y="729" type="line"/>
      <point x="429" y="449" type="line"/>
      <point x="348" y="334" type="line"/>
      <point x="344" y="334" type="line"/>
      <point x="263" y="449" type="line"/>
      <point x="61" y="729" type="line"/>
      <point x="14" y="729" type="line"/>
      <point x="327" y="300" type="line"/>
    </contour>
  </outline>
</glyph>
<glyph name="Z" format="2">
  <advance width="675"/>
  <unicode hex="005A"/>
  <anchor x="337" y="0" name="bottom"/>
  <anchor x="337" y="365" name="center"/>
  <anchor x="337" y="729" name="top"/>
  <outline>
    <contour>
      <point x="20" y="0" type="line"/>
      <point x="655" y="0" type="line"/>
      <point x="655" y="37" type="line"/>
      <point x="73" y="37" type="line"/>
      <point x="643" y="698" type="line"/>
      <point x="643" y="729" type="line"/>
      <point x="35" y="729" type="line"/>
      <point x="35" y="693" type="line"/>
      <point x="589" y="693" type="line"/>
      <point x="20" y="32" type="line"/>
    </contour>
  </outline>
</glyph>
<glyph name="bracketleft" format="2">
  <advance width="333"/>
  <unicode hex="005B"/>
  <outline>
    <contour>
      <point x="79" y="-167" type="line"/>
      <point x="308" y="-167" type="line"/>
      <point x="308" y="-135" type="line"/>
      <point x="115" y="-135" type="line"/>
      <point x="115" y="761" type="line"/>
      <point x="308" y="761" type="line"/>
      <point x="308" y="793" type="line"/>
      <point x="79" y="793" type="line"/>
    </contour>
  </outline>
</glyph>
<glyph name="backslash" format="2">
  <advance width="426"/>
  <unicode hex="005C"/>
  <outline>
    <contour>
      <point x="398" y="-81" type="line"/>
      <point x="437" y="-81" type="line"/>
      <point x="25" y="729" type="line"/>
      <point x="-11" y="729" type="line"/>
    </contour>
  </outline>
</glyph>
<glyph name="asciicircum" format="2">
  <advance width="720"/>
  <unicode hex="005E"/>
  <outline>
    <contour>
      <point x="178" y="476" type="line"/>
      <point x="222" y="476" type="line"/>
      <point x="360" y="694" type="line"/>
      <point x="498" y="476" type="line"/>
      <point x="543" y="476" type="line"/>
      <point x="379" y="729" type="line"/>
      <point x="341" y="729" type="line"/>
    </contour>
  </outline>
</glyph>
<glyph name="underscore" format="2">
  <advance width="448"/>
  <unicode hex="005F"/>
  <outline>
    <contour>
      <point x="46" y="-32" type="line"/>
      <point x="402" y="-32" type="line"/>
      <point x="402" y="0" type="line"/>
      <point x="46" y="0" type="line"/>
    </contour>
  </outline>
</glyph>
<glyph name="b" format="2">
  <advance width="640"/>
  <unicode hex="0062"/>
  <anchor x="323" y="0" name="bottom"/>
  <anchor x="323" y="729" name="top"/>
  <outline>
    <contour>
      <point x="343" y="-9" type="curve" smooth="yes"/>
      <point x="499" y="-9"/>
      <point x="605" y="93"/>
      <point x="605" y="258" type="curve" smooth="yes"/>
      <point x="605" y="420"/>
      <point x="500" y="526"/>
      <point x="343" y="526" type="curve" smooth="yes"/>
      <point x="232" y="526"/>
      <point x="139" y="471"/>
      <point x="107" y="387" type="curve"/>
      <point x="103" y="387" type="line"/>
      <point x="103" y="729" type="line"/>
      <point x="66" y="729" type="line"/>
      <point x="66" y="0" type="line"/>
      <point x="101" y="0" type="line"/>
      <point x="103" y="119" type="line"/>
      <point x="107" y="119" type="line"/>
      <point x="139" y="43"/>
      <point x="226" y="-9"/>
    </contour>
    <contour>
      <point x="339" y="25" type="curve" smooth="yes"/>
      <point x="190" y="25"/>
      <point x="103" y="121"/>
      <point x="103" y="223" type="curve" smooth="yes"/>
      <point x="103" y="283" type="line" smooth="yes"/>
      <point x="103" y="391"/>
      <point x="190" y="492"/>
      <point x="339" y="492" type="curve" smooth="yes"/>
      <point x="476" y="492"/>
      <point x="567" y="399"/>
      <point x="567" y="258" type="curve" smooth="yes"/>
      <point x="567" y="110"/>
      <point x="475" y="25"/>
    </contour>
  </outline>
</glyph>
<glyph name="c" format="2">
  <advance width="606"/>
  <unicode hex="0063"/>
  <anchor x="313" y="0" name="bottom"/>
  <anchor x="316" y="517" name="top"/>
  <outline>
    <contour>
      <point x="313" y="-8" type="curve" smooth="yes"/>
      <point x="448" y="-8"/>
      <point x="560" y="66"/>
      <point x="580" y="174" type="curve"/>
      <point x="541" y="174" type="line"/>
      <point x="521" y="88"/>
      <point x="430" y="27"/>
      <point x="313" y="27" type="curve" smooth="yes"/>
      <point x="159" y="27"/>
      <point x="71" y="118"/>
      <point x="71" y="257" type="curve" smooth="yes"/>
      <point x="71" y="397"/>
      <point x="169" y="490"/>
      <point x="316" y="490" type="curve" smooth="yes"/>
      <point x="424" y="490"/>
      <point x="510" y="445"/>
      <point x="538" y="354" type="curve"/>
      <point x="575" y="354" type="line"/>
      <point x="557" y="457"/>
      <point x="454" y="525"/>
      <point x="316" y="525" type="curve" smooth="yes"/>
      <point x="148" y="525"/>
      <point x="34" y="416"/>
      <point x="34" y="257" type="curve" smooth="yes"/>
      <point x="34" y="93"/>
      <point x="142" y="-8"/>
    </contour>
  </outline>
</glyph>
<glyph name="d" format="2">
  <advance width="640"/>
  <unicode hex="0064"/>
  <anchor x="317" y="0" name="bottom"/>
  <anchor x="506" y="631" name="center"/>
  <anchor x="317" y="729" name="top"/>
  <anchor x="574" y="729" name="topright"/>
  <outline>
    <contour>
      <point x="303" y="-15" type="curve" smooth="yes"/>
      <point x="417" y="-15"/>
      <point x="501" y="41"/>
      <point x="533" y="124" type="curve"/>
      <point x="537" y="124" type="line"/>
      <point x="537" y="0" type="line"/>
      <point x="574" y="0" type="line"/>
      <point x="574" y="729" type="line"/>
      <point x="537" y="729" type="line"/>
      <point x="537" y="387" type="line"/>
      <point x="533" y="387" type="line"/>
      <point x="501" y="471"/>
      <point x="417" y="526"/>
      <point x="303" y="526" type="curve" smooth="yes"/>
      <point x="142" y="526"/>
      <point x="35" y="419"/>
      <point x="35" y="256" type="curve" smooth="yes"/>
      <point x="35" y="92"/>
      <point x="142" y="-15"/>
    </contour>
    <contour>
      <point x="306" y="19" type="curve" smooth="yes"/>
      <point x="158" y="19"/>
      <point x="73" y="113"/>
      <point x="73" y="256" type="curve" smooth="yes"/>
      <point x="73" y="399"/>
      <point x="158" y="492"/>
      <point x="306" y="492" type="curve" smooth="yes"/>
      <point x="446" y="492"/>
      <point x="537" y="406"/>
      <point x="537" y="283" type="curve" smooth="yes"/>
      <point x="537" y="228" type="line" smooth="yes"/>
      <point x="537" y="105"/>
      <point x="446" y="19"/>
    </contour>
  </outline>
</glyph>
<glyph name="e" format="2">
  <advance width="615"/>
  <unicode hex="0065"/>
  <anchor x="317" y="0" name="bottom"/>
  <anchor x="398" y="0" name="ogonek"/>
  <anchor x="307" y="517" name="top"/>
  <outline>
    <contour>
      <point x="317" y="-8" type="curve" smooth="yes"/>
      <point x="448" y="-8"/>
      <point x="554" y="55"/>
      <point x="574" y="152" type="curve"/>
      <point x="537" y="152" type="line"/>
      <point x="516" y="76"/>
      <point x="428" y="26"/>
      <point x="317" y="26" type="curve" smooth="yes"/>
      <point x="170" y="26"/>
      <point x="75" y="111"/>
      <point x="71" y="256" type="curve"/>
      <point x="581" y="256" type="line"/>
      <point x="591" y="423"/>
      <point x="485" y="525"/>
      <point x="314" y="525" type="curve" smooth="yes"/>
      <point x="141" y="525"/>
      <point x="34" y="417"/>
      <point x="34" y="258" type="curve" smooth="yes"/>
      <point x="34" y="97"/>
      <point x="146" y="-8"/>
    </contour>
    <contour>
      <point x="73" y="284" type="line"/>
      <point x="82" y="407"/>
      <point x="170" y="491"/>
      <point x="314" y="491" type="curve" smooth="yes"/>
      <point x="450" y="491"/>
      <point x="544" y="417"/>
      <point x="542" y="283" type="curve"/>
      <point x="548" y="289" type="line"/>
      <point x="68" y="289" type="line"/>
    </contour>
  </outline>
</glyph>
<glyph name="f" format="2">
  <advance width="304"/>
  <unicode hex="0066"/>
  <anchor x="148" y="0" name="bottom"/>
  <anchor x="148" y="729" name="top"/>
  <outline>
    <contour>
      <point x="119" y="0" type="line"/>
      <point x="156" y="0" type="line"/>
      <point x="156" y="485" type="line"/>
      <point x="293" y="485" type="line"/>
      <point x="293" y="517" type="line"/>
      <point x="156" y="517" type="line"/>
      <point x="156" y="598" type="line" smooth="yes"/>
      <point x="156" y="666"/>
      <point x="182" y="695"/>
      <point x="248" y="695" type="curve" smooth="yes"/>
      <point x="316" y="695" type="line"/>
      <point x="316" y="729" type="line"/>
      <point x="242" y="729" type="line" smooth="yes"/>
      <point x="166" y="729"/>
      <point x="119" y="688"/>
      <point x="119" y="603" type="curve" smooth="yes"/>
      <point x="119" y="517" type="line"/>
      <point x="11" y="517" type="line"/>
      <point x="11" y="485" type="line"/>
      <point x="119" y="485" type="line"/>
    </contour>
  </outline>
</glyph>
<glyph name="g" format="2">
  <advance width="623"/>
  <unicode hex="0067"/>
  <anchor x="307" y="-167" name="bottom"/>
  <anchor x="307" y="517" name="top"/>
  <outline>
    <contour>
      <point x="297" y="-177" type="curve" smooth="yes"/>
      <point x="463" y="-177"/>
      <point x="557" y="-105"/>
      <point x="557" y="32" type="curve" smooth="yes"/>
      <point x="557" y="517" type="line"/>
      <point x="520" y="517" type="line"/>
      <point x="520" y="399" type="line"/>
      <point x="515" y="399" type="line"/>
      <point x="478" y="475"/>
      <point x="401" y="526"/>
      <point x="293" y="526" type="curve" smooth="yes"/>
      <point x="141" y="526"/>
      <point x="33" y="426"/>
      <point x="33" y="277" type="curve" smooth="yes"/>
      <point x="33" y="128"/>
      <point x="128" y="28"/>
      <point x="287" y="28" type="curve" smooth="yes"/>
      <point x="392" y="28"/>
      <point x="483" y="78"/>
      <point x="515" y="153" type="curve"/>
      <point x="520" y="153" type="line"/>
      <point x="520" y="34" type="line" smooth="yes"/>
      <point x="520" y="-91"/>
      <point x="433" y="-143"/>
      <point x="297" y="-143" type="curve" smooth="yes"/>
      <point x="186" y="-143"/>
      <point x="106" y="-103"/>
      <point x="92" y="-20" type="curve"/>
      <point x="56" y="-20" type="line"/>
      <point x="67" y="-119"/>
      <point x="161" y="-177"/>
    </contour>
    <contour>
      <point x="291" y="61" type="curve" smooth="yes"/>
      <point x="159" y="61"/>
      <point x="71" y="140"/>
      <point x="71" y="277" type="curve" smooth="yes"/>
      <point x="71" y="406"/>
      <point x="159" y="492"/>
      <point x="294" y="492" type="curve" smooth="yes"/>
      <point x="431" y="492"/>
      <point x="520" y="409"/>
      <point x="520" y="292" type="curve" smooth="yes"/>
      <point x="520" y="245" type="line" smooth="yes"/>
      <point x="520" y="138"/>
      <point x="429" y="61"/>
    </contour>
  </outline>
</glyph>
<glyph name="h" format="2">
  <advance width="626"/>
  <unicode hex="0068"/>
  <anchor x="319" y="0" name="bottom"/>
  <anchor x="135" y="631" name="center"/>
  <anchor x="85" y="729" name="top"/>
  <outline>
    <contour>
      <point x="66" y="0" type="line"/>
      <point x="103" y="0" type="line"/>
      <point x="103" y="256" type="line" smooth="yes"/>
      <point x="103" y="397"/>
      <point x="201" y="491"/>
      <point x="341" y="491" type="curve" smooth="yes"/>
      <point x="466" y="491"/>
      <point x="535" y="430"/>
      <point x="535" y="277" type="curve" smooth="yes"/>
      <point x="535" y="0" type="line"/>
      <point x="572" y="0" type="line"/>
      <point x="572" y="283" type="line" smooth="yes"/>
      <point x="572" y="462"/>
      <point x="477" y="525"/>
      <point x="345" y="525" type="curve" smooth="yes"/>
      <point x="242" y="525"/>
      <point x="150" y="476"/>
      <point x="108" y="387" type="curve"/>
      <point x="103" y="387" type="line"/>
      <point x="103" y="729" type="line"/>
      <point x="66" y="729" type="line"/>
    </contour>
  </outline>
</glyph>
<glyph name="k" format="2">
  <advance width="563"/>
  <unicode hex="006B"/>
  <anchor x="282" y="0" name="bottom"/>
  <anchor x="282" y="729" name="top"/>
  <outline>
    <contour>
      <point x="66" y="0" type="line"/>
      <point x="103" y="0" type="line"/>
      <point x="103" y="182" type="line"/>
      <point x="257" y="299" type="line"/>
      <point x="301" y="244" type="line"/>
      <point x="505" y="0" type="line"/>
      <point x="552" y="0" type="line"/>
      <point x="283" y="320" type="line"/>
      <point x="536" y="517" type="line"/>
      <point x="481" y="517" type="line"/>
      <point x="173" y="277" type="line"/>
      <point x="103" y="221" type="line"/>
      <point x="103" y="729" type="line"/>
      <point x="66" y="729" type="line"/>
    </contour>
  </outline>
</glyph>
<glyph name="l" format="2">
  <advance width="169"/>
  <unicode hex="006C"/>
  <anchor x="84" y="0" name="bottom"/>
  <anchor x="84" y="365" name="center"/>
  <anchor x="84" y="729" name="top"/>
  <anchor x="103" y="729" name="topright"/>
  <outline>
    <contour>
      <point x="66" y="0" type="line"/>
      <point x="103" y="0" type="line"/>
      <point x="103" y="729" type="line"/>
      <point x="66" y="729" type="line"/>
    </contour>
  </outline>
</glyph>
<glyph name="m" format="2">
  <advance width="1006"/>
  <unicode hex="006D"/>
  <anchor x="508" y="0" name="bottom"/>
  <anchor x="508" y="517" name="top"/>
  <outline>
    <contour>
      <point x="66" y="0" type="line"/>
      <point x="104" y="0" type="line"/>
      <point x="104" y="273" type="line" smooth="yes"/>
      <point x="104" y="404"/>
      <point x="180" y="491"/>
      <point x="313" y="491" type="curve" smooth="yes"/>
      <point x="427" y="491"/>
      <point x="489" y="423"/>
      <point x="489" y="277" type="curve" smooth="yes"/>
      <point x="489" y="0" type="line"/>
      <point x="527" y="0" type="line"/>
      <point x="527" y="273" type="line" smooth="yes"/>
      <point x="527" y="404"/>
      <point x="610" y="491"/>
      <point x="735" y="491" type="curve" smooth="yes"/>
      <point x="866" y="491"/>
      <point x="913" y="419"/>
      <point x="913" y="291" type="curve" smooth="yes"/>
      <point x="913" y="0" type="line"/>
      <point x="951" y="0" type="line"/>
      <point x="951" y="296" type="line" smooth="yes"/>
      <point x="951" y="451"/>
      <point x="876" y="525"/>
      <point x="738" y="525" type="curve" smooth="yes"/>
      <point x="639" y="525"/>
      <point x="556" y="475"/>
      <point x="521" y="384" type="curve"/>
      <point x="514" y="384" type="line"/>
      <point x="492" y="471"/>
      <point x="419" y="525"/>
      <point x="316" y="525" type="curve" smooth="yes"/>
      <point x="223" y="525"/>
      <point x="142" y="479"/>
      <point x="108" y="398" type="curve"/>
      <point x="104" y="398" type="line"/>
      <point x="104" y="517" type="line"/>
      <point x="66" y="517" type="line"/>
    </contour>
  </outline>
</glyph>
<glyph name="o" format="2">
  <advance width="640"/>
  <unicode hex="006F"/>
  <anchor x="320" y="0" name="bottom"/>
  <anchor x="320" y="259" name="center"/>
  <anchor x="582" y="10" name="ogonek"/>
  <anchor x="320" y="517" name="top"/>
  <anchor x="431" y="507" name="topright"/>
  <outline>
    <contour>
      <point x="320" y="-10" type="curve" smooth="yes"/>
      <point x="491" y="-10"/>
      <point x="606" y="98"/>
      <point x="606" y="257" type="curve" smooth="yes"/>
      <point x="606" y="418"/>
      <point x="491" y="525"/>
      <point x="320" y="525" type="curve" smooth="yes"/>
      <point x="149" y="525"/>
      <point x="34" y="418"/>
      <point x="34" y="257" type="curve" smooth="yes"/>
      <point x="34" y="97"/>
      <point x="149" y="-10"/>
    </contour>
    <contour>
      <point x="320" y="25" type="curve" smooth="yes"/>
      <point x="170" y="25"/>
      <point x="72" y="117"/>
      <point x="72" y="257" type="curve" smooth="yes"/>
      <point x="72" y="399"/>
      <point x="171" y="490"/>
      <point x="320" y="490" type="curve" smooth="yes"/>
      <point x="470" y="490"/>
      <point x="568" y="399"/>
      <point x="568" y="257" type="curve" smooth="yes"/>
      <point x="568" y="116"/>
      <point x="469" y="25"/>
    </contour>
  </outline>
</glyph>
<glyph name="p" format="2">
  <advance width="640"/>
  <unicode hex="0070"/>
  <anchor x="323" y="0" name="bottom"/>
  <anchor x="323" y="517" name="top"/>
  <outline>
    <contour>
      <point x="66" y="-167" type="line"/>
      <point x="103" y="-167" type="line"/>
      <point x="103" y="130" type="line"/>
      <point x="107" y="130" type="line"/>
      <point x="139" y="46"/>
      <point x="232" y="-9"/>
      <point x="343" y="-9" type="curve" smooth="yes"/>
      <point x="500" y="-9"/>
      <point x="605" y="97"/>
      <point x="605" y="259" type="curve" smooth="yes"/>
      <point x="605" y="424"/>
      <point x="499" y="526"/>
      <point x="343" y="526" type="curve" smooth="yes"/>
      <point x="226" y="526"/>
      <point x="139" y="474"/>
      <point x="107" y="398" type="curve"/>
      <point x="103" y="398" type="line"/>
      <point x="101" y="517" type="line"/>
      <point x="66" y="517" type="line"/>
    </contour>
    <contour>
      <point x="339" y="25" type="curve" smooth="yes"/>
      <point x="190" y="25"/>
      <point x="103" y="126"/>
      <point x="103" y="234" type="curve" smooth="yes"/>
      <point x="103" y="294" type="line" smooth="yes"/>
      <point x="103" y="396"/>
      <point x="190" y="492"/>
      <point x="339" y="492" type="curve" smooth="yes"/>
      <point x="475" y="492"/>
      <point x="567" y="407"/>
      <point x="567" y="259" type="curve" smooth="yes"/>
      <point x="567" y="118"/>
      <point x="476" y="25"/>
    </contour>
  </outline>
</glyph>
<glyph name="q" format="2">
  <advance width="640"/>
  <unicode hex="0071"/>
  <anchor x="317" y="0" name="bottom"/>
  <anchor x="317" y="517" name="top"/>
  <outline>
    <contour>
      <point x="537" y="-167" type="line"/>
      <point x="574" y="-167" type="line"/>
      <point x="574" y="517" type="line"/>
      <point x="539" y="517" type="line"/>
      <point x="537" y="398" type="line"/>
      <point x="534" y="398" type="line"/>
      <point x="502" y="474"/>
      <point x="414" y="526"/>
      <point x="297" y="526" type="curve" smooth="yes"/>
      <point x="141" y="526"/>
      <point x="35" y="424"/>
      <point x="35" y="259" type="curve" smooth="yes"/>
      <point x="35" y="97"/>
      <point x="140" y="-9"/>
      <point x="297" y="-9" type="curve" smooth="yes"/>
      <point x="408" y="-9"/>
      <point x="502" y="47"/>
      <point x="534" y="130" type="curve"/>
      <point x="537" y="130" type="line"/>
    </contour>
    <contour>
      <point x="301" y="25" type="curve" smooth="yes"/>
      <point x="164" y="25"/>
      <point x="73" y="118"/>
      <point x="73" y="259" type="curve" smooth="yes"/>
      <point x="73" y="407"/>
      <point x="165" y="492"/>
      <point x="301" y="492" type="curve" smooth="yes"/>
      <point x="450" y="492"/>
      <point x="537" y="396"/>
      <point x="537" y="294" type="curve" smooth="yes"/>
      <point x="537" y="234" type="line" smooth="yes"/>
      <point x="537" y="126"/>
      <point x="450" y="25"/>
    </contour>
  </outline>
</glyph>
<glyph name="r" format="2">
  <advance width="331"/>
  <unicode hex="0072"/>
  <anchor x="84" y="0" name="bottom"/>
  <anchor x="161" y="517" name="top"/>
  <outline>
    <contour>
      <point x="66" y="0" type="line"/>
      <point x="102" y="0" type="line"/>
      <point x="102" y="336" type="line"/>
      <point x="111" y="432"/>
      <point x="181" y="488"/>
      <point x="268" y="488" type="curve" smooth="yes"/>
      <point x="288" y="488"/>
      <point x="307" y="486"/>
      <point x="319" y="481" type="curve"/>
      <point x="319" y="517" type="line"/>
      <point x="309" y="521"/>
      <point x="290" y="524"/>
      <point x="267" y="524" type="curve" smooth="yes"/>
      <point x="190" y="524"/>
      <point x="126" y="482"/>
      <point x="104" y="413" type="curve"/>
      <point x="102" y="413" type="line"/>
      <point x="98" y="517" type="line"/>
      <point x="66" y="517" type="line"/>
    </contour>
  </outline>
</glyph>
<glyph name="s" format="2">
  <advance width="539"/>
  <unicode hex="0073"/>
  <anchor x="274" y="0" name="bottom"/>
  <anchor x="269" y="517" name="top"/>
  <outline>
    <contour>
      <point x="274" y="-10" type="curve" smooth="yes"/>
      <point x="430" y="-10"/>
      <point x="507" y="48"/>
      <point x="507" y="135" type="curve" smooth="yes"/>
      <point x="507" y="243"/>
      <point x="432" y="266"/>
      <point x="274" y="283" type="curve" smooth="yes"/>
      <point x="143" y="297"/>
      <point x="85" y="317"/>
      <point x="85" y="387" type="curve" smooth="yes"/>
      <point x="85" y="461"/>
      <point x="164" y="494"/>
      <point x="270" y="494" type="curve" smooth="yes"/>
      <point x="374" y="494"/>
      <point x="450" y="456"/>
      <point x="457" y="367" type="curve"/>
      <point x="494" y="367" type="line"/>
      <point x="487" y="464"/>
      <point x="415" y="527"/>
      <point x="270" y="527" type="curve" smooth="yes"/>
      <point x="138" y="527"/>
      <point x="48" y="475"/>
      <point x="48" y="386" type="curve" smooth="yes"/>
      <point x="48" y="294"/>
      <point x="119" y="263"/>
      <point x="270" y="248" type="curve" smooth="yes"/>
      <point x="419" y="232"/>
      <point x="469" y="214"/>
      <point x="469" y="132" type="curve" smooth="yes"/>
      <point x="469" y="54"/>
      <point x="390" y="23"/>
      <point x="274" y="23" type="curve" smooth="yes"/>
      <point x="146" y="23"/>
      <point x="66" y="76"/>
      <point x="66" y="160" type="curve"/>
      <point x="29" y="160" type="line"/>
      <point x="29" y="58"/>
      <point x="122" y="-10"/>
    </contour>
  </outline>
</glyph>
<glyph name="t" format="2">
  <advance width="330"/>
  <unicode hex="0074"/>
  <anchor x="212" y="0" name="bottom"/>
  <anchor x="161" y="279" name="center"/>
  <anchor x="165" y="517" name="top"/>
  <anchor x="171" y="776" name="topright"/>
  <outline>
    <contour>
      <point x="233" y="0" type="curve" smooth="yes"/>
      <point x="311" y="0" type="line"/>
      <point x="311" y="36" type="line"/>
      <point x="232" y="36" type="line" smooth="yes"/>
      <point x="184" y="36"/>
      <point x="166" y="58"/>
      <point x="166" y="106" type="curve" smooth="yes"/>
      <point x="166" y="485" type="line"/>
      <point x="311" y="485" type="line"/>
      <point x="311" y="517" type="line"/>
      <point x="166" y="517" type="line"/>
      <point x="166" y="690" type="line"/>
      <point x="129" y="681" type="line"/>
      <point x="129" y="517" type="line"/>
      <point x="11" y="517" type="line"/>
      <point x="11" y="485" type="line"/>
      <point x="129" y="485" type="line"/>
      <point x="129" y="103" type="line" smooth="yes"/>
      <point x="129" y="32"/>
      <point x="162" y="0"/>
    </contour>
  </outline>
</glyph>
<glyph name="u" format="2">
  <advance width="626"/>
  <unicode hex="0075"/>
  <anchor x="307" y="0" name="bottom"/>
  <anchor x="560" y="0" name="ogonek"/>
  <anchor x="307" y="517" name="top"/>
  <anchor x="523" y="517" name="topright"/>
  <outline>
    <contour>
      <point x="281" y="-8" type="curve" smooth="yes"/>
      <point x="386" y="-8"/>
      <point x="477" y="42"/>
      <point x="518" y="130" type="curve"/>
      <point x="523" y="130" type="line"/>
      <point x="524" y="0" type="line"/>
      <point x="560" y="0" type="line"/>
      <point x="560" y="517" type="line"/>
      <point x="523" y="517" type="line"/>
      <point x="523" y="262" type="line" smooth="yes"/>
      <point x="523" y="120"/>
      <point x="425" y="26"/>
      <point x="286" y="26" type="curve" smooth="yes"/>
      <point x="159" y="26"/>
      <point x="91" y="88"/>
      <point x="91" y="238" type="curve" smooth="yes"/>
      <point x="91" y="517" type="line"/>
      <point x="54" y="517" type="line"/>
      <point x="54" y="232" type="line" smooth="yes"/>
      <point x="54" y="56"/>
      <point x="149" y="-8"/>
    </contour>
  </outline>
</glyph>
<glyph name="v" format="2">
  <advance width="575"/>
  <unicode hex="0076"/>
  <anchor x="288" y="0" name="bottom"/>
  <anchor x="288" y="517" name="top"/>
  <outline>
    <contour>
      <point x="267" y="0" type="line"/>
      <point x="309" y="0" type="line"/>
      <point x="563" y="517" type="line"/>
      <point x="522" y="517" type="line"/>
      <point x="358" y="179" type="line"/>
      <point x="291" y="36" type="line"/>
      <point x="285" y="36" type="line"/>
      <point x="217" y="179" type="line"/>
      <point x="53" y="517" type="line"/>
      <point x="11" y="517" type="line"/>
    </contour>
  </outline>
</glyph>
<glyph name="w" format="2">
  <advance width="818"/>
  <unicode hex="0077"/>
  <anchor x="409" y="0" name="bottom"/>
  <anchor x="409" y="517" name="top"/>
  <outline>
    <contour>
      <point x="199" y="0" type="line"/>
      <point x="247" y="0" type="line"/>
      <point x="360" y="331" type="line"/>
      <point x="405" y="471" type="line"/>
      <point x="411" y="471" type="line"/>
      <point x="457" y="331" type="line"/>
      <point x="571" y="0" type="line"/>
      <point x="619" y="0" type="line"/>
      <point x="804" y="517" type="line"/>
      <point x="765" y="517" type="line"/>
      <point x="661" y="222" type="line"/>
      <point x="598" y="35" type="line"/>
      <point x="592" y="35" type="line"/>
      <point x="531" y="222" type="line"/>
      <point x="430" y="517" type="line"/>
      <point x="387" y="517" type="line"/>
      <point x="286" y="222" type="line"/>
      <point x="226" y="35" type="line"/>
      <point x="220" y="35" type="line"/>
      <point x="157" y="222" type="line"/>
      <point x="53" y="517" type="line"/>
      <point x="14" y="517" type="line"/>
    </contour>
  </outline>
</glyph>
<glyph name="x" format="2">
  <advance width="545"/>
  <unicode hex="0078"/>
  <anchor x="272" y="0" name="bottom"/>
  <anchor x="272" y="517" name="top"/>
  <outline>
    <contour>
      <point x="11" y="0" type="line"/>
      <point x="56" y="0" type="line"/>
      <point x="244" y="210" type="line"/>
      <point x="271" y="241" type="line"/>
      <point x="276" y="241" type="line"/>
      <point x="302" y="210" type="line"/>
      <point x="485" y="0" type="line"/>
      <point x="533" y="0" type="line"/>
      <point x="298" y="266" type="line"/>
      <point x="520" y="517" type="line"/>
      <point x="474" y="517" type="line"/>
      <point x="302" y="319" type="line"/>
      <point x="276" y="288" type="line"/>
      <point x="271" y="288" type="line"/>
      <point x="245" y="319" type="line"/>
      <point x="71" y="517" type="line"/>
      <point x="23" y="517" type="line"/>
      <point x="249" y="265" type="line"/>
    </contour>
  </outline>
</glyph>
<glyph name="y" format="2">
  <advance width="558"/>
  <unicode hex="0079"/>
  <anchor x="412" y="0" name="bottom"/>
  <anchor x="279" y="517" name="top"/>
  <outline>
    <contour>
      <point x="41" y="-167" type="line"/>
      <point x="98" y="-167" type="line" smooth="yes"/>
      <point x="177" y="-167"/>
      <point x="228" y="-130"/>
      <point x="263" y="-59" type="curve" smooth="yes"/>
      <point x="547" y="517" type="line"/>
      <point x="508" y="517" type="line"/>
      <point x="379" y="256" type="line"/>
      <point x="290" y="72" type="line"/>
      <point x="284" y="72" type="line"/>
      <point x="188" y="256" type="line"/>
      <point x="51" y="517" type="line"/>
      <point x="11" y="517" type="line"/>
      <point x="272" y="23" type="line"/>
      <point x="272" y="37" type="line"/>
      <point x="231" y="-45" type="line" smooth="yes"/>
      <point x="202" y="-103"/>
      <point x="167" y="-133"/>
      <point x="101" y="-133" type="curve" smooth="yes"/>
      <point x="41" y="-133" type="line"/>
    </contour>
  </outline>
</glyph>
<glyph name="z" format="2">
  <advance width="532"/>
  <unicode hex="007A"/>
  <anchor x="266" y="0" name="bottom"/>
  <anchor x="266" y="259" name="center"/>
  <anchor x="266" y="517" name="top"/>
  <outline>
    <contour>
      <point x="16" y="0" type="line"/>
      <point x="515" y="0" type="line"/>
      <point x="515" y="32" type="line"/>
      <point x="67" y="32" type="line"/>
      <point x="501" y="487" type="line"/>
      <point x="501" y="517" type="line"/>
      <point x="29" y="517" type="line"/>
      <point x="29" y="485" type="line"/>
      <point x="452" y="485" type="line"/>
      <point x="16" y="29" type="line"/>
    </contour>
  </outline>
</glyph>
<glyph name="braceleft" format="2">
  <advance width="379"/>
  <unicode hex="007B"/>
  <outline>
    <contour>
      <point x="175" y="-167" type="curve" smooth="yes"/>
      <point x="354" y="-167" type="line"/>
      <point x="354" y="-135" type="line"/>
      <point x="170" y="-135" type="line"/>
      <point x="170" y="208" type="line" smooth="yes"/>
      <point x="170" y="267"/>
      <point x="137" y="309"/>
      <point x="100" y="311" type="curve"/>
      <point x="100" y="315" type="line"/>
      <point x="135" y="316"/>
      <point x="170" y="356"/>
      <point x="170" y="417" type="curve" smooth="yes"/>
      <point x="170" y="761" type="line"/>
      <point x="354" y="761" type="line"/>
      <point x="354" y="793" type="line"/>
      <point x="175" y="793" type="line" smooth="yes"/>
      <point x="147" y="793"/>
      <point x="134" y="775"/>
      <point x="134" y="750" type="curve" smooth="yes"/>
      <point x="134" y="417" type="line" smooth="yes"/>
      <point x="134" y="361"/>
      <point x="102" y="331"/>
      <point x="71" y="331" type="curve" smooth="yes"/>
      <point x="23" y="331" type="line"/>
      <point x="23" y="294" type="line"/>
      <point x="71" y="294" type="line" smooth="yes"/>
      <point x="102" y="294"/>
      <point x="134" y="264"/>
      <point x="134" y="209" type="curve" smooth="yes"/>
      <point x="134" y="-124" type="line" smooth="yes"/>
      <point x="134" y="-149"/>
      <point x="147" y="-167"/>
    </contour>
  </outline>
</glyph>
<glyph name="asciitilde" format="2">
  <advance width="720"/>
  <unicode hex="007E"/>
  <outline>
    <contour>
      <point x="105" y="302" type="curve"/>
      <point x="137" y="302" type="line"/>
      <point x="133" y="343"/>
      <point x="151" y="366"/>
      <point x="183" y="366" type="curve" smooth="yes"/>
      <point x="237" y="366"/>
      <point x="298" y="318"/>
      <point x="360" y="318" type="curve" smooth="yes"/>
      <point x="417" y="318"/>
      <point x="455" y="353"/>
      <point x="451" y="420" type="curve"/>
      <point x="419" y="420" type="line"/>
      <point x="420" y="376"/>
      <point x="398" y="356"/>
      <point x="362" y="356" type="curve" smooth="yes"/>
      <point x="297" y="356"/>
      <point x="241" y="404"/>
      <point x="183" y="404" type="curve" smooth="yes"/>
      <point x="134" y="404"/>
      <point x="100" y="370"/>
    </contour>
  </outline>
</glyph>
<glyph name="cent" format="2">
  <advance width="631"/>
  <unicode hex="00A2"/>
  <outline>
    <contour>
      <point x="324" y="98" type="curve" smooth="yes"/>
      <point x="459" y="98"/>
      <point x="571" y="172"/>
      <point x="592" y="280" type="curve"/>
      <point x="553" y="280" type="line"/>
      <point x="533" y="194"/>
      <point x="441" y="133"/>
      <point x="324" y="133" type="curve" smooth="yes"/>
      <point x="171" y="133"/>
      <point x="83" y="224"/>
      <point x="83" y="363" type="curve" smooth="yes"/>
      <point x="83" y="503"/>
      <point x="180" y="596"/>
      <point x="327" y="596" type="curve" smooth="yes"/>
      <point x="436" y="596"/>
      <point x="521" y="551"/>
      <point x="549" y="460" type="curve"/>
      <point x="587" y="460" type="line"/>
      <point x="569" y="563"/>
      <point x="465" y="631"/>
      <point x="327" y="631" type="curve" smooth="yes"/>
      <point x="160" y="631"/>
      <point x="45" y="522"/>
      <point x="45" y="363" type="curve" smooth="yes"/>
      <point x="45" y="199"/>
      <point x="153" y="98"/>
    </contour>
    <contour>
      <point x="302" y="0" type="line"/>
      <point x="335" y="0" type="line"/>
      <point x="335" y="117" type="line"/>
      <point x="302" y="117" type="line"/>
    </contour>
    <contour>
      <point x="302" y="613" type="line"/>
      <point x="335" y="613" type="line"/>
      <point x="335" y="729" type="line"/>
      <point x="302" y="729" type="line"/>
    </contour>
  </outline>
</glyph>
<glyph name="sterling" format="2">
  <advance width="674"/>
  <unicode hex="00A3"/>
  <outline>
    <contour>
      <point x="108" y="30" type="curve"/>
      <point x="153" y="29" type="line"/>
      <point x="210" y="76"/>
      <point x="232" y="137"/>
      <point x="232" y="208" type="curve" smooth="yes"/>
      <point x="232" y="326"/>
      <point x="145" y="399"/>
      <point x="145" y="510" type="curve" smooth="yes"/>
      <point x="145" y="626"/>
      <point x="231" y="702"/>
      <point x="364" y="702" type="curve" smooth="yes"/>
      <point x="501" y="702"/>
      <point x="585" y="628"/>
      <point x="585" y="506" type="curve"/>
      <point x="624" y="506" type="line"/>
      <point x="625" y="648"/>
      <point x="524" y="739"/>
      <point x="364" y="739" type="curve" smooth="yes"/>
      <point x="209" y="739"/>
      <point x="105" y="647"/>
      <point x="105" y="510" type="curve" smooth="yes"/>
      <point x="105" y="389"/>
      <point x="193" y="318"/>
      <point x="193" y="208" type="curve" smooth="yes"/>
      <point x="193" y="130"/>
      <point x="164" y="74"/>
    </contour>
    <contour>
      <point x="32" y="0" type="line"/>
      <point x="613" y="0" type="line"/>
      <point x="613" y="176" type="line"/>
      <point x="576" y="176" type="line"/>
      <point x="576" y="36" type="line"/>
      <point x="32" y="36" type="line"/>
    </contour>
    <contour>
      <point x="57" y="330" type="line"/>
      <point x="498" y="330" type="line"/>
      <point x="498" y="365" type="line"/>
      <point x="57" y="365" type="line"/>
    </contour>
  </outline>
</glyph>
<glyph name="currency" format="2">
  <advance width="608"/>
  <unicode hex="00A4"/>
  <outline>
    <contour>
      <point x="57" y="83" type="line"/>
      <point x="174" y="201" type="line"/>
      <point x="210" y="174"/>
      <point x="254" y="158"/>
      <point x="304" y="158" type="curve" smooth="yes"/>
      <point x="353" y="158"/>
      <point x="397" y="173"/>
      <point x="432" y="202" type="curve"/>
      <point x="551" y="83" type="line"/>
      <point x="574" y="103" type="line"/>
      <point x="455" y="223" type="line"/>
      <point x="484" y="255"/>
      <point x="502" y="301"/>
      <point x="502" y="350" type="curve" smooth="yes"/>
      <point x="502" y="403"/>
      <point x="483" y="446"/>
      <point x="456" y="480" type="curve"/>
      <point x="574" y="597" type="line"/>
      <point x="551" y="620" type="line"/>
      <point x="432" y="501" type="line"/>
      <point x="398" y="529"/>
      <point x="352" y="543"/>
      <point x="304" y="543" type="curve" smooth="yes"/>
      <point x="251" y="543"/>
      <point x="207" y="526"/>
      <point x="175" y="501" type="curve"/>
      <point x="57" y="620" type="line"/>
      <point x="34" y="597" type="line"/>
      <point x="152" y="480" type="line"/>
      <point x="123" y="446"/>
      <point x="104" y="399"/>
      <point x="104" y="350" type="curve" smooth="yes"/>
      <point x="104" y="300"/>
      <point x="123" y="255"/>
      <point x="151" y="223" type="curve"/>
      <point x="34" y="103" type="line"/>
    </contour>
    <contour>
      <point x="304" y="189" type="curve" smooth="yes"/>
      <point x="207" y="189"/>
      <point x="137" y="257"/>
      <point x="137" y="350" type="curve" smooth="yes"/>
      <point x="137" y="444"/>
      <point x="208" y="511"/>
      <point x="304" y="511" type="curve" smooth="yes"/>
      <point x="399" y="511"/>
      <point x="469" y="444"/>
      <point x="469" y="350" type="curve" smooth="yes"/>
      <point x="469" y="257"/>
      <point x="400" y="189"/>
    </contour>
  </outline>
</glyph>
<glyph name="yen" format="2">
  <advance width="679"/>
  <unicode hex="00A5"/>
  <outline>
    <contour>
      <point x="319" y="0" type="line"/>
      <point x="358" y="0" type="line"/>
      <point x="358" y="159" type="line"/>
      <point x="564" y="159" type="line"/>
      <point x="564" y="192" type="line"/>
      <point x="358" y="192" type="line"/>
      <point x="358" y="303" type="line"/>
      <point x="564" y="303" type="line"/>
      <point x="564" y="336" type="line"/>
      <point x="382" y="336" type="line"/>
      <point x="652" y="729" type="line"/>
      <point x="607" y="729" type="line"/>
      <point x="341" y="338" type="line"/>
      <point x="338" y="338" type="line"/>
      <point x="73" y="729" type="line"/>
      <point x="27" y="729" type="line"/>
      <point x="296" y="336" type="line"/>
      <point x="115" y="336" type="line"/>
      <point x="115" y="303" type="line"/>
      <point x="319" y="303" type="line"/>
      <point x="319" y="192" type="line"/>
      <point x="115" y="192" type="line"/>
      <point x="115" y="159" type="line"/>
      <point x="319" y="159" type="line"/>
    </contour>
  </outline>
</glyph>
<glyph name="brokenbar" format="2">
  <advance width="206"/>
  <unicode hex="00A6"/>
  <outline>
    <contour>
      <point x="85" y="417" type="line"/>
      <point x="121" y="417" type="line"/>
      <point x="121" y="729" type="line"/>
      <point x="85" y="729" type="line"/>
    </contour>
    <contour>
      <point x="85" y="-67" type="line"/>
      <point x="121" y="-67" type="line"/>
      <point x="121" y="245" type="line"/>
      <point x="85" y="245" type="line"/>
    </contour>
  </outline>
</glyph>
<glyph name="section" format="2">
  <advance width="505"/>
  <unicode hex="00A7"/>
  <outline>
    <contour>
      <point x="244" y="-10" type="curve" smooth="yes"/>
      <point x="360" y="-10"/>
      <point x="437" y="42"/>
      <point x="437" y="135" type="curve" smooth="yes"/>
      <point x="437" y="184"/>
      <point x="420" y="216"/>
      <point x="391" y="237" type="curve"/>
      <point x="426" y="262"/>
      <point x="447" y="299"/>
      <point x="447" y="347" type="curve" smooth="yes"/>
      <point x="447" y="451"/>
      <point x="374" y="478"/>
      <point x="272" y="493" type="curve" smooth="yes"/>
      <point x="165" y="508"/>
      <point x="115" y="532"/>
      <point x="115" y="601" type="curve" smooth="yes"/>
      <point x="115" y="664"/>
      <point x="168" y="706"/>
      <point x="262" y="706" type="curve" smooth="yes"/>
      <point x="348" y="706"/>
      <point x="406" y="672"/>
      <point x="411" y="585" type="curve"/>
      <point x="447" y="585" type="line"/>
      <point x="444" y="681"/>
      <point x="377" y="739"/>
      <point x="261" y="739" type="curve" smooth="yes"/>
      <point x="151" y="739"/>
      <point x="78" y="682"/>
      <point x="78" y="597" type="curve" smooth="yes"/>
      <point x="78" y="549"/>
      <point x="96" y="518"/>
      <point x="131" y="496" type="curve"/>
      <point x="93" y="471"/>
      <point x="68" y="429"/>
      <point x="68" y="385" type="curve" smooth="yes"/>
      <point x="68" y="293"/>
      <point x="129" y="263"/>
      <point x="246" y="246" type="curve" smooth="yes"/>
      <point x="354" y="230"/>
      <point x="399" y="207"/>
      <point x="399" y="132" type="curve" smooth="yes"/>
      <point x="399" y="62"/>
      <point x="344" y="23"/>
      <point x="245" y="23" type="curve" smooth="yes"/>
      <point x="150" y="23"/>
      <point x="86" y="63"/>
      <point x="80" y="149" type="curve"/>
      <point x="43" y="149" type="line"/>
      <point x="48" y="53"/>
      <point x="120" y="-10"/>
    </contour>
    <contour>
      <point x="363" y="253" type="curve"/>
      <point x="333" y="267"/>
      <point x="295" y="275"/>
      <point x="252" y="281" type="curve" smooth="yes"/>
      <point x="152" y="295"/>
      <point x="105" y="320"/>
      <point x="105" y="389" type="curve" smooth="yes"/>
      <point x="105" y="426"/>
      <point x="127" y="458"/>
      <point x="163" y="482" type="curve"/>
      <point x="190" y="471"/>
      <point x="225" y="464"/>
      <point x="266" y="458" type="curve" smooth="yes"/>
      <point x="367" y="443"/>
      <point x="409" y="419"/>
      <point x="409" y="344" type="curve" smooth="yes"/>
      <point x="409" y="306"/>
      <point x="393" y="278"/>
    </contour>
  </outline>
</glyph>
<glyph name="ordfeminine" format="2">
  <advance width="466"/>
  <unicode hex="00AA"/>
  <outline>
    <contour>
      <point x="210" y="385" type="curve" smooth="yes"/>
      <point x="281" y="385"/>
      <point x="339" y="420"/>
      <point x="360" y="471" type="curve"/>
      <point x="363" y="471" type="line"/>
      <point x="363" y="391" type="line"/>
      <point x="400" y="391" type="line"/>
      <point x="400" y="729" type="line"/>
      <point x="365" y="729" type="line"/>
      <point x="363" y="655" type="line"/>
      <point x="360" y="655" type="line"/>
      <point x="338" y="705"/>
      <point x="282" y="735"/>
      <point x="210" y="735" type="curve" smooth="yes"/>
      <point x="109" y="735"/>
      <point x="40" y="668"/>
      <point x="40" y="560" type="curve" smooth="yes"/>
      <point x="40" y="454"/>
      <point x="109" y="385"/>
    </contour>
    <contour>
      <point x="218" y="417" type="curve" smooth="yes"/>
      <point x="134" y="417"/>
      <point x="78" y="473"/>
      <point x="78" y="560" type="curve" smooth="yes"/>
      <point x="78" y="651"/>
      <point x="134" y="703"/>
      <point x="218" y="703" type="curve" smooth="yes"/>
      <point x="308" y="703"/>
      <point x="363" y="645"/>
      <point x="363" y="581" type="curve" smooth="yes"/>
      <point x="363" y="545" type="line" smooth="yes"/>
      <point x="363" y="478"/>
      <point x="309" y="417"/>
    </contour>
  </outline>
</glyph>
<glyph name="guillemetleft" format="2">
  <advance width="366"/>
  <unicode hex="00AB"/>
  <outline>
    <contour>
      <point x="153" y="80" type="line"/>
      <point x="187" y="80" type="line"/>
      <point x="74" y="299" type="line"/>
      <point x="187" y="517" type="line"/>
      <point x="153" y="517" type="line"/>
      <point x="33" y="299" type="line"/>
    </contour>
    <contour>
      <point x="298" y="80" type="line"/>
      <point x="332" y="80" type="line"/>
      <point x="219" y="299" type="line"/>
      <point x="332" y="517" type="line"/>
      <point x="298" y="517" type="line"/>
      <point x="178" y="299" type="line"/>
    </contour>
  </outline>
</glyph>
<glyph name="logicalnot" format="2">
  <advance width="720"/>
  <unicode hex="00AC"/>
  <outline>
    <contour>
      <point x="555" y="119" type="line"/>
      <point x="586" y="119" type="line"/>
      <point x="586" y="380" type="line"/>
      <point x="86" y="380" type="line"/>
      <point x="86" y="348" type="line"/>
      <point x="555" y="348" type="line"/>
    </contour>
  </outline>
</glyph>
<glyph name="registered" format="2">
  <advance width="616"/>
  <unicode hex="00AE"/>
  <outline>
    <contour>
      <point x="308" y="230" type="curve" smooth="yes"/>
      <point x="460" y="230"/>
      <point x="563" y="331"/>
      <point x="563" y="484" type="curve" smooth="yes"/>
      <point x="563" y="637"/>
      <point x="460" y="738"/>
      <point x="308" y="738" type="curve" smooth="yes"/>
      <point x="156" y="738"/>
      <point x="53" y="637"/>
      <point x="53" y="484" type="curve" smooth="yes"/>
      <point x="53" y="331"/>
      <point x="156" y="230"/>
    </contour>
    <contour>
      <point x="308" y="257" type="curve" smooth="yes"/>
      <point x="174" y="257"/>
      <point x="84" y="348"/>
      <point x="84" y="484" type="curve" smooth="yes"/>
      <point x="84" y="620"/>
      <point x="174" y="711"/>
      <point x="308" y="711" type="curve" smooth="yes"/>
      <point x="442" y="711"/>
      <point x="532" y="620"/>
      <point x="532" y="484" type="curve" smooth="yes"/>
      <point x="532" y="348"/>
      <point x="442" y="257"/>
    </contour>
    <contour>
      <point x="198" y="352" type="line"/>
      <point x="225" y="352" type="line"/>
      <point x="225" y="598" type="line"/>
      <point x="345" y="598" type="line" smooth="yes"/>
      <point x="383" y="598"/>
      <point x="408" y="582"/>
      <point x="408" y="550" type="curve" smooth="yes"/>
      <point x="408" y="517"/>
      <point x="386" y="496"/>
      <point x="345" y="496" type="curve" smooth="yes"/>
      <point x="218" y="496" type="line"/>
      <point x="218" y="470" type="line"/>
      <point x="360" y="470" type="line" smooth="yes"/>
      <point x="393" y="470"/>
      <point x="402" y="455"/>
      <point x="402" y="431" type="curve" smooth="yes"/>
      <point x="402" y="382" type="line" smooth="yes"/>
      <point x="402" y="360"/>
      <point x="402" y="358"/>
      <point x="407" y="352" type="curve"/>
      <point x="432" y="352" type="line"/>
      <point x="429" y="361"/>
      <point x="429" y="374"/>
      <point x="429" y="377" type="curve" smooth="yes"/>
      <point x="429" y="428" type="line" smooth="yes"/>
      <point x="429" y="458"/>
      <point x="416" y="478"/>
      <point x="387" y="485" type="curve"/>
      <point x="387" y="486" type="line"/>
      <point x="413" y="493"/>
      <point x="435" y="515"/>
      <point x="435" y="552" type="curve" smooth="yes"/>
      <point x="435" y="595"/>
      <point x="404" y="624"/>
      <point x="347" y="624" type="curve" smooth="yes"/>
      <point x="198" y="624" type="line"/>
    </contour>
  </outline>
</glyph>
<glyph name="degree" format="2">
  <advance width="425"/>
  <unicode hex="00B0"/>
  <outline>
    <contour>
      <point x="212" y="443" type="curve" smooth="yes"/>
      <point x="298" y="443"/>
      <point x="365" y="503"/>
      <point x="365" y="590" type="curve" smooth="yes"/>
      <point x="365" y="678"/>
      <point x="298" y="737"/>
      <point x="212" y="737" type="curve" smooth="yes"/>
      <point x="127" y="737"/>
      <point x="60" y="678"/>
      <point x="60" y="590" type="curve" smooth="yes"/>
      <point x="60" y="503"/>
      <point x="127" y="443"/>
    </contour>
    <contour>
      <point x="212" y="478" type="curve" smooth="yes"/>
      <point x="147" y="478"/>
      <point x="97" y="524"/>
      <point x="97" y="590" type="curve" smooth="yes"/>
      <point x="97" y="656"/>
      <point x="147" y="702"/>
      <point x="212" y="702" type="curve" smooth="yes"/>
      <point x="278" y="702"/>
      <point x="328" y="656"/>
      <point x="328" y="590" type="curve" smooth="yes"/>
      <point x="328" y="524"/>
      <point x="278" y="478"/>
    </contour>
  </outline>
</glyph>
<glyph name="plusminus" format="2">
  <advance width="720"/>
  <unicode hex="00B1"/>
  <outline>
    <contour>
      <point x="342" y="172" type="line"/>
      <point x="376" y="172" type="line"/>
      <point x="376" y="365" type="line"/>
      <point x="608" y="365" type="line"/>
      <point x="608" y="399" type="line"/>
      <point x="376" y="399" type="line"/>
      <point x="376" y="585" type="line"/>
      <point x="342" y="585" type="line"/>
      <point x="342" y="399" type="line"/>
      <point x="112" y="399" type="line"/>
      <point x="112" y="365" type="line"/>
      <point x="342" y="365" type="line"/>
    </contour>
    <contour>
      <point x="112" y="0" type="line"/>
      <point x="608" y="0" type="line"/>
      <point x="608" y="34" type="line"/>
      <point x="112" y="34" type="line"/>
    </contour>
  </outline>
</glyph>
<glyph name="paragraph" format="2">
  <advance width="555"/>
  <unicode hex="00B6"/>
  <outline>
    <contour>
      <point x="227" y="0" type="line"/>
      <point x="258" y="0" type="line"/>
      <point x="258" y="699" type="line"/>
      <point x="401" y="699" type="line"/>
      <point x="401" y="0" type="line"/>
      <point x="431" y="0" type="line"/>
      <point x="431" y="699" type="line"/>
      <point x="526" y="699" type="line"/>
      <point x="526" y="729" type="line"/>
      <point x="228" y="729" type="line" smooth="yes"/>
      <point x="115" y="729"/>
      <point x="39" y="678"/>
      <point x="39" y="571" type="curve" smooth="yes"/>
      <point x="39" y="472"/>
      <point x="99" y="406"/>
      <point x="227" y="407" type="curve"/>
    </contour>
  </outline>
</glyph>
<glyph name="periodcentered" format="2">
  <advance width="212"/>
  <unicode hex="00B7"/>
  <outline>
    <contour>
      <point x="106" y="206" type="curve" smooth="yes"/>
      <point x="151" y="206"/>
      <point x="178" y="236"/>
      <point x="178" y="277" type="curve" smooth="yes"/>
      <point x="178" y="318"/>
      <point x="151" y="348"/>
      <point x="106" y="348" type="curve" smooth="yes"/>
      <point x="63" y="348"/>
      <point x="33" y="318"/>
      <point x="33" y="277" type="curve" smooth="yes"/>
      <point x="33" y="236"/>
      <point x="63" y="206"/>
    </contour>
  </outline>
</glyph>
<glyph name="ordmasculine" format="2">
  <advance width="455"/>
  <unicode hex="00BA"/>
  <anchor x="228" y="392" name="bottom"/>
  <anchor x="228" y="561" name="center"/>
  <anchor x="398" y="399" name="ogonek"/>
  <anchor x="228" y="730" name="top"/>
  <anchor x="427" y="730" name="topright"/>
  <outline>
    <contour>
      <point x="228" y="384" type="curve" smooth="yes"/>
      <point x="341" y="384"/>
      <point x="417" y="455"/>
      <point x="417" y="559" type="curve" smooth="yes"/>
      <point x="417" y="665"/>
      <point x="341" y="734"/>
      <point x="228" y="734" type="curve" smooth="yes"/>
      <point x="114" y="734"/>
      <point x="38" y="665"/>
      <point x="38" y="559" type="curve" smooth="yes"/>
      <point x="38" y="454"/>
      <point x="114" y="384"/>
    </contour>
    <contour>
      <point x="228" y="417" type="curve" smooth="yes"/>
      <point x="136" y="417"/>
      <point x="76" y="473"/>
      <point x="76" y="559" type="curve" smooth="yes"/>
      <point x="76" y="646"/>
      <point x="136" y="702"/>
      <point x="228" y="702" type="curve" smooth="yes"/>
      <point x="320" y="702"/>
      <point x="379" y="646"/>
      <point x="379" y="559" type="curve" smooth="yes"/>
      <point x="379" y="473"/>
      <point x="319" y="417"/>
    </contour>
  </outline>
</glyph>
<glyph name="AE" format="2">
  <advance width="1133"/>
  <unicode hex="00C6"/>
  <anchor x="567" y="0" name="bottom"/>
  <anchor x="567" y="729" name="top"/>
  <outline>
    <contour>
      <point x="16" y="0" type="line"/>
      <point x="57" y="0" type="line"/>
      <point x="156" y="200" type="line"/>
      <point x="648" y="200" type="line"/>
      <point x="746" y="0" type="line"/>
      <point x="1111" y="0" type="line"/>
      <point x="1111" y="37" type="line"/>
      <point x="769" y="37" type="line"/>
      <point x="610" y="358" type="line"/>
      <point x="1063" y="358" type="line"/>
      <point x="1063" y="392" type="line"/>
      <point x="593" y="392" type="line"/>
      <point x="444" y="693" type="line"/>
      <point x="1111" y="693" type="line"/>
      <point x="1111" y="729" type="line"/>
      <point x="378" y="729" type="line"/>
    </contour>
    <contour>
      <point x="173" y="233" type="line"/>
      <point x="347" y="585" type="line"/>
      <point x="401" y="695" type="line"/>
      <point x="404" y="695" type="line"/>
      <point x="459" y="583" type="line"/>
      <point x="631" y="233" type="line"/>
    </contour>
  </outline>
</glyph>
<glyph name="multiply" format="2">
  <advance width="720"/>
  <unicode hex="00D7"/>
  <outline>
    <contour>
      <point x="183" y="160" type="line"/>
      <point x="360" y="337" type="line"/>
      <point x="537" y="160" type="line"/>
      <point x="561" y="184" type="line"/>
      <point x="384" y="361" type="line"/>
      <point x="561" y="538" type="line"/>
      <point x="537" y="562" type="line"/>
      <point x="360" y="385" type="line"/>
      <point x="183" y="562" type="line"/>
      <point x="159" y="538" type="line"/>
      <point x="336" y="361" type="line"/>
      <point x="159" y="184" type="line"/>
    </contour>
  </outline>
</glyph>
<glyph name="germandbls" format="2">
  <advance width="658"/>
  <unicode hex="00DF"/>
  <outline>
    <contour>
      <point x="129" y="0" type="line"/>
      <point x="166" y="0" type="line"/>
      <point x="166" y="512" type="line" smooth="yes"/>
      <point x="166" y="631"/>
      <point x="234" y="704"/>
      <point x="357" y="704" type="curve" smooth="yes"/>
      <point x="467" y="704"/>
      <point x="540" y="656"/>
      <point x="540" y="554" type="curve" smooth="yes"/>
      <point x="540" y="466"/>
      <point x="478" y="411"/>
      <point x="366" y="411" type="curve" smooth="yes"/>
      <point x="316" y="411" type="line"/>
      <point x="316" y="378" type="line"/>
      <point x="401" y="378" type="line" smooth="yes"/>
      <point x="516" y="378"/>
      <point x="592" y="325"/>
      <point x="592" y="213" type="curve" smooth="yes"/>
      <point x="592" y="106"/>
      <point x="528" y="35"/>
      <point x="382" y="35" type="curve" smooth="yes"/>
      <point x="267" y="35" type="line"/>
      <point x="267" y="0" type="line"/>
      <point x="385" y="0" type="line" smooth="yes"/>
      <point x="538" y="0"/>
      <point x="629" y="79"/>
      <point x="629" y="211" type="curve" smooth="yes"/>
      <point x="629" y="316"/>
      <point x="565" y="387"/>
      <point x="462" y="399" type="curve"/>
      <point x="462" y="404" type="line"/>
      <point x="543" y="430"/>
      <point x="579" y="492"/>
      <point x="579" y="559" type="curve" smooth="yes"/>
      <point x="579" y="674"/>
      <point x="488" y="739"/>
      <point x="357" y="739" type="curve" smooth="yes"/>
      <point x="228" y="739"/>
      <point x="129" y="664"/>
      <point x="129" y="517" type="curve" smooth="yes"/>
    </contour>
    <contour>
      <point x="12" y="483" type="line"/>
      <point x="142" y="483" type="line"/>
      <point x="142" y="517" type="line"/>
      <point x="12" y="517" type="line"/>
    </contour>
  </outline>
</glyph>
<glyph name="ae" format="2">
  <advance width="1042"/>
  <unicode hex="00E6"/>
  <outline>
    <contour>
      <point x="224" y="-10" type="curve" smooth="yes"/>
      <point x="344" y="-10"/>
      <point x="447" y="48"/>
      <point x="481" y="145" type="curve"/>
      <point x="484" y="145" type="line"/>
      <point x="528" y="46"/>
      <point x="621" y="-8"/>
      <point x="744" y="-8" type="curve" smooth="yes"/>
      <point x="875" y="-8"/>
      <point x="981" y="55"/>
      <point x="1001" y="152" type="curve"/>
      <point x="964" y="152" type="line"/>
      <point x="943" y="76"/>
      <point x="855" y="26"/>
      <point x="744" y="26" type="curve" smooth="yes"/>
      <point x="595" y="26"/>
      <point x="498" y="114"/>
      <point x="498" y="262" type="curve" smooth="yes"/>
      <point x="498" y="266" type="line" smooth="yes"/>
      <point x="498" y="401"/>
      <point x="595" y="491"/>
      <point x="741" y="491" type="curve" smooth="yes"/>
      <point x="875" y="491"/>
      <point x="968" y="419"/>
      <point x="969" y="290" type="curve"/>
      <point x="490" y="290" type="line"/>
      <point x="490" y="256" type="line"/>
      <point x="1008" y="256" type="line"/>
      <point x="1018" y="423"/>
      <point x="912" y="525"/>
      <point x="741" y="525" type="curve" smooth="yes"/>
      <point x="626" y="525"/>
      <point x="541" y="478"/>
      <point x="496" y="399" type="curve"/>
      <point x="493" y="399" type="line"/>
      <point x="469" y="478"/>
      <point x="389" y="526"/>
      <point x="276" y="526" type="curve" smooth="yes"/>
      <point x="150" y="526"/>
      <point x="58" y="465"/>
      <point x="46" y="373" type="curve"/>
      <point x="84" y="373" type="line"/>
      <point x="96" y="444"/>
      <point x="165" y="492"/>
      <point x="274" y="492" type="curve" smooth="yes"/>
      <point x="387" y="492"/>
      <point x="462" y="442"/>
      <point x="462" y="337" type="curve" smooth="yes"/>
      <point x="462" y="216" type="line" smooth="yes"/>
      <point x="462" y="101"/>
      <point x="366" y="24"/>
      <point x="223" y="24" type="curve" smooth="yes"/>
      <point x="136" y="24"/>
      <point x="71" y="59"/>
      <point x="71" y="133" type="curve" smooth="yes"/>
      <point x="71" y="231"/>
      <point x="150" y="256"/>
      <point x="292" y="256" type="curve" smooth="yes"/>
      <point x="480" y="256" type="line"/>
      <point x="482" y="290" type="line"/>
      <point x="281" y="290" type="line" smooth="yes"/>
      <point x="147" y="290"/>
      <point x="33" y="262"/>
      <point x="33" y="133" type="curve" smooth="yes"/>
      <point x="33" y="47"/>
      <point x="103" y="-10"/>
    </contour>
  </outline>
</glyph>
<glyph name="eth" format="2">
  <advance width="625"/>
  <unicode hex="00F0"/>
  <outline>
    <contour>
      <point x="313" y="-9" type="curve" smooth="yes"/>
      <point x="480" y="-9"/>
      <point x="591" y="95"/>
      <point x="591" y="250" type="curve" smooth="yes"/>
      <point x="591" y="400"/>
      <point x="482" y="568"/>
      <point x="285" y="729" type="curve"/>
      <point x="233" y="729" type="line"/>
      <point x="356" y="638"/>
      <point x="465" y="518"/>
      <point x="519" y="417" type="curve"/>
      <point x="515" y="414" type="line"/>
      <point x="462" y="480"/>
      <point x="390" y="507"/>
      <point x="314" y="507" type="curve" smooth="yes"/>
      <point x="146" y="507"/>
      <point x="34" y="404"/>
      <point x="34" y="249" type="curve" smooth="yes"/>
      <point x="34" y="94"/>
      <point x="146" y="-9"/>
    </contour>
    <contour>
      <point x="313" y="26" type="curve" smooth="yes"/>
      <point x="165" y="26"/>
      <point x="72" y="112"/>
      <point x="72" y="250" type="curve" smooth="yes"/>
      <point x="72" y="387"/>
      <point x="165" y="473"/>
      <point x="313" y="473" type="curve" smooth="yes"/>
      <point x="460" y="473"/>
      <point x="553" y="385"/>
      <point x="553" y="245" type="curve" smooth="yes"/>
      <point x="553" y="110"/>
      <point x="460" y="26"/>
    </contour>
    <contour>
      <point x="147" y="586" type="line"/>
      <point x="535" y="659" type="line"/>
      <point x="535" y="690" type="line"/>
      <point x="147" y="618" type="line"/>
    </contour>
  </outline>
</glyph>
<glyph name="divide" format="2">
  <advance width="720"/>
  <unicode hex="00F7"/>
  <outline>
    <contour>
      <point x="113" y="345" type="line"/>
      <point x="608" y="345" type="line"/>
      <point x="608" y="377" type="line"/>
      <point x="113" y="377" type="line"/>
    </contour>
    <contour>
      <point x="332" y="186" type="line"/>
      <point x="388" y="186" type="line"/>
      <point x="388" y="240" type="line"/>
      <point x="332" y="240" type="line"/>
    </contour>
    <contour>
      <point x="332" y="482" type="line"/>
      <point x="388" y="482" type="line"/>
      <point x="388" y="536" type="line"/>
      <point x="332" y="536" type="line"/>
    </contour>
  </outline>
</glyph>
<glyph name="idotless" format="2">
  <advance width="169"/>
  <unicode hex="0131"/>
  <anchor x="85" y="0" name="bottom"/>
  <anchor x="103" y="0" name="ogonek"/>
  <anchor x="85" y="517" name="top"/>
  <outline>
    <contour>
      <point x="66" y="0" type="line"/>
      <point x="103" y="0" type="line"/>
      <point x="103" y="517" type="line"/>
      <point x="66" y="517" type="line"/>
    </contour>
  </outline>
</glyph>
<glyph name="Eng" format="2">
  <advance width="805"/>
  <unicode hex="014A"/>
  <outline>
    <contour>
      <point x="72" y="0" type="line"/>
      <point x="110" y="0" type="line"/>
      <point x="110" y="436" type="line"/>
      <point x="107" y="686" type="line"/>
      <point x="112" y="686" type="line"/>
      <point x="681" y="0" type="line"/>
      <point x="733" y="0" type="line"/>
      <point x="733" y="729" type="line"/>
      <point x="695" y="729" type="line"/>
      <point x="695" y="303" type="line"/>
      <point x="699" y="43" type="line"/>
      <point x="694" y="43" type="line"/>
      <point x="124" y="729" type="line"/>
      <point x="72" y="729" type="line"/>
    </contour>
    <contour>
      <point x="556" y="-167" type="line"/>
      <point x="606" y="-167" type="line" smooth="yes"/>
      <point x="671" y="-167"/>
      <point x="733" y="-140"/>
      <point x="733" y="-43" type="curve" smooth="yes"/>
      <point x="733" y="0" type="line"/>
      <point x="696" y="0" type="line"/>
      <point x="696" y="-35" type="line" smooth="yes"/>
      <point x="696" y="-107"/>
      <point x="666" y="-133"/>
      <point x="602" y="-133" type="curve" smooth="yes"/>
      <point x="556" y="-133" type="line"/>
    </contour>
  </outline>
</glyph>
<glyph name="eng" format="2">
  <advance width="626"/>
  <unicode hex="014B"/>
  <outline>
    <contour>
      <point x="375" y="-167" type="line"/>
      <point x="445" y="-167" type="line" smooth="yes"/>
      <point x="510" y="-167"/>
      <point x="572" y="-140"/>
      <point x="572" y="-43" type="curve" smooth="yes"/>
      <point x="572" y="283" type="line" smooth="yes"/>
      <point x="572" y="462"/>
      <point x="477" y="525"/>
      <point x="345" y="525" type="curve" smooth="yes"/>
      <point x="242" y="525"/>
      <point x="150" y="476"/>
      <point x="108" y="387" type="curve"/>
      <point x="103" y="387" type="line"/>
      <point x="103" y="517" type="line"/>
      <point x="66" y="517" type="line"/>
      <point x="66" y="0" type="line"/>
      <point x="103" y="0" type="line"/>
      <point x="103" y="256" type="line" smooth="yes"/>
      <point x="103" y="397"/>
      <point x="201" y="491"/>
      <point x="341" y="491" type="curve" smooth="yes"/>
      <point x="466" y="491"/>
      <point x="535" y="430"/>
      <point x="535" y="277" type="curve" smooth="yes"/>
      <point x="535" y="-35" type="line" smooth="yes"/>
      <point x="535" y="-107"/>
      <point x="505" y="-133"/>
      <point x="441" y="-133" type="curve" smooth="yes"/>
      <point x="375" y="-133" type="line"/>
    </contour>
  </outline>
</glyph>
<glyph name="OE" format="2">
  <advance width="1108"/>
  <unicode hex="0152"/>
  <anchor x="554" y="0" name="bottom"/>
  <anchor x="554" y="729" name="top"/>
  <outline>
    <contour>
      <point x="434" y="-10" type="curve" smooth="yes"/>
      <point x="466" y="-10"/>
      <point x="511" y="-6"/>
      <point x="550" y="0" type="curve"/>
      <point x="1086" y="0" type="line"/>
      <point x="1086" y="37" type="line"/>
      <point x="593" y="37" type="line"/>
      <point x="593" y="358" type="line"/>
      <point x="1033" y="358" type="line"/>
      <point x="1033" y="392" type="line"/>
      <point x="593" y="392" type="line"/>
      <point x="593" y="693" type="line"/>
      <point x="1086" y="693" type="line"/>
      <point x="1086" y="729" type="line"/>
      <point x="550" y="729" type="line"/>
      <point x="511" y="735"/>
      <point x="466" y="739"/>
      <point x="434" y="739" type="curve" smooth="yes"/>
      <point x="181" y="739"/>
      <point x="36" y="587"/>
      <point x="36" y="365" type="curve" smooth="yes"/>
      <point x="36" y="142"/>
      <point x="181" y="-10"/>
    </contour>
    <contour>
      <point x="433" y="26" type="curve" smooth="yes"/>
      <point x="209" y="26"/>
      <point x="76" y="163"/>
      <point x="76" y="365" type="curve" smooth="yes"/>
      <point x="76" y="566"/>
      <point x="209" y="703"/>
      <point x="433" y="703" type="curve" smooth="yes"/>
      <point x="474" y="703"/>
      <point x="523" y="698"/>
      <point x="555" y="691" type="curve"/>
      <point x="555" y="38" type="line"/>
      <point x="523" y="31"/>
      <point x="475" y="26"/>
    </contour>
  </outline>
</glyph>
<glyph name="oe" format="2">
  <advance width="1149"/>
  <unicode hex="0153"/>
  <anchor x="574" y="0" name="bottom"/>
  <anchor x="574" y="517" name="top"/>
  <outline>
    <contour>
      <point x="320" y="-10" type="curve" smooth="yes"/>
      <point x="451" y="-10"/>
      <point x="548" y="53"/>
      <point x="588" y="153" type="curve"/>
      <point x="586" y="153" type="line"/>
      <point x="625" y="53"/>
      <point x="720" y="-8"/>
      <point x="851" y="-8" type="curve" smooth="yes"/>
      <point x="982" y="-8"/>
      <point x="1088" y="55"/>
      <point x="1108" y="152" type="curve"/>
      <point x="1071" y="152" type="line"/>
      <point x="1050" y="76"/>
      <point x="962" y="26"/>
      <point x="851" y="26" type="curve" smooth="yes"/>
      <point x="682" y="26"/>
      <point x="606" y="138"/>
      <point x="606" y="252" type="curve" smooth="yes"/>
      <point x="606" y="270" type="line" smooth="yes"/>
      <point x="606" y="402"/>
      <point x="700" y="491"/>
      <point x="848" y="491" type="curve" smooth="yes"/>
      <point x="983" y="491"/>
      <point x="1076" y="418"/>
      <point x="1076" y="287" type="curve"/>
      <point x="1078" y="289" type="line"/>
      <point x="599" y="289" type="line"/>
      <point x="599" y="256" type="line"/>
      <point x="1115" y="256" type="line"/>
      <point x="1125" y="423"/>
      <point x="1019" y="525"/>
      <point x="848" y="525" type="curve" smooth="yes"/>
      <point x="716" y="525"/>
      <point x="623" y="462"/>
      <point x="585" y="363" type="curve"/>
      <point x="587" y="363" type="line"/>
      <point x="548" y="463"/>
      <point x="450" y="525"/>
      <point x="320" y="525" type="curve" smooth="yes"/>
      <point x="149" y="525"/>
      <point x="34" y="418"/>
      <point x="34" y="257" type="curve" smooth="yes"/>
      <point x="34" y="97"/>
      <point x="149" y="-10"/>
    </contour>
    <contour>
      <point x="320" y="25" type="curve" smooth="yes"/>
      <point x="170" y="25"/>
      <point x="72" y="117"/>
      <point x="72" y="257" type="curve" smooth="yes"/>
      <point x="72" y="399"/>
      <point x="171" y="490"/>
      <point x="320" y="490" type="curve" smooth="yes"/>
      <point x="470" y="490"/>
      <point x="568" y="399"/>
      <point x="568" y="257" type="curve" smooth="yes"/>
      <point x="568" y="116"/>
      <point x="469" y="25"/>
    </contour>
  </outline>
</glyph>
<glyph name="florin" format="2">
  <advance width="407"/>
  <unicode hex="0192"/>
  <outline>
    <contour>
      <point x="25" y="-167" type="line"/>
      <point x="80" y="-167" type="line" smooth="yes"/>
      <point x="168" y="-167"/>
      <point x="222" y="-120"/>
      <point x="222" y="-22" type="curve" smooth="yes"/>
      <point x="222" y="580" type="line" smooth="yes"/>
      <point x="222" y="661"/>
      <point x="253" y="695"/>
      <point x="331" y="695" type="curve" smooth="yes"/>
      <point x="382" y="695" type="line"/>
      <point x="382" y="729" type="line"/>
      <point x="327" y="729" type="line" smooth="yes"/>
      <point x="239" y="729"/>
      <point x="185" y="682"/>
      <point x="185" y="584" type="curve" smooth="yes"/>
      <point x="185" y="-18" type="line" smooth="yes"/>
      <point x="185" y="-99"/>
      <point x="154" y="-133"/>
      <point x="76" y="-133" type="curve" smooth="yes"/>
      <point x="25" y="-133" type="line"/>
    </contour>
    <contour>
      <point x="52" y="384" type="line"/>
      <point x="360" y="384" type="line"/>
      <point x="360" y="418" type="line"/>
      <point x="52" y="418" type="line"/>
    </contour>
  </outline>
</glyph>
<glyph name="jdotless" format="2">
  <advance width="169"/>
  <unicode hex="0237"/>
  <anchor x="104" y="-250" name="bottom"/>
  <anchor x="85" y="517" name="top"/>
  <outline>
    <contour>
      <point x="-74" y="-167" type="line"/>
      <point x="-24" y="-167" type="line" smooth="yes"/>
      <point x="41" y="-167"/>
      <point x="103" y="-140"/>
      <point x="103" y="-43" type="curve" smooth="yes"/>
      <point x="103" y="517" type="line"/>
      <point x="66" y="517" type="line"/>
      <point x="66" y="-35" type="line" smooth="yes"/>
      <point x="66" y="-107"/>
      <point x="36" y="-133"/>
      <point x="-28" y="-133" type="curve" smooth="yes"/>
      <point x="-74" y="-133" type="line"/>
    </contour>
  </outline>
</glyph>
<glyph name="gravecomb" format="2">
  <unicode hex="0300"/>
  <anchor x="144" y="672" name="_top"/>
  <outline>
    <contour>
      <point x="127" y="746" type="line"/>
      <point x="163" y="746" type="line"/>
      <point x="84" y="882" type="line"/>
      <point x="40" y="882" type="line"/>
    </contour>
  </outline>
</glyph>
<glyph name="circumflexcomb" format="2">
  <unicode hex="0302"/>
  <anchor x="179" y="672" name="_top"/>
  <outline>
    <contour>
      <point x="40" y="746" type="line"/>
      <point x="82" y="746" type="line"/>
      <point x="179" y="855" type="line"/>
      <point x="276" y="746" type="line"/>
      <point x="319" y="746" type="line"/>
      <point x="202" y="882" type="line"/>
      <point x="156" y="882" type="line"/>
    </contour>
  </outline>
</glyph>
<glyph name="tildecomb" format="2">
  <unicode hex="0303"/>
  <anchor x="207" y="672" name="_top"/>
  <outline>
    <contour>
      <point x="280" y="776" type="curve" smooth="yes"/>
      <point x="323" y="776"/>
      <point x="352" y="790"/>
      <point x="379" y="825" type="curve"/>
      <point x="357" y="838" type="line"/>
      <point x="338" y="817"/>
      <point x="313" y="808"/>
      <point x="288" y="808" type="curve" smooth="yes"/>
      <point x="238" y="808"/>
      <point x="181" y="836"/>
      <point x="135" y="836" type="curve" smooth="yes"/>
      <point x="92" y="836"/>
      <point x="69" y="822"/>
      <point x="40" y="786" type="curve"/>
      <point x="61" y="774" type="line"/>
      <point x="81" y="797"/>
      <point x="102" y="803"/>
      <point x="127" y="803" type="curve" smooth="yes"/>
      <point x="177" y="803"/>
      <point x="212" y="776"/>
    </contour>
  </outline>
</glyph>
<glyph name="macroncomb" format="2">
  <unicode hex="0304"/>
  <anchor x="228" y="671" name="_top"/>
  <outline>
    <contour>
      <point x="40" y="780" type="line"/>
      <point x="415" y="780" type="line"/>
      <point x="415" y="813" type="line"/>
      <point x="40" y="813" type="line"/>
    </contour>
  </outline>
</glyph>
<glyph name="brevecomb" format="2">
  <unicode hex="0306"/>
  <anchor x="174" y="672" name="_top"/>
  <outline>
    <contour>
      <point x="174" y="742" type="curve" smooth="yes"/>
      <point x="261" y="742"/>
      <point x="307" y="790"/>
      <point x="307" y="882" type="curve"/>
      <point x="270" y="882" type="line"/>
      <point x="271" y="811"/>
      <point x="236" y="773"/>
      <point x="174" y="773" type="curve" smooth="yes"/>
      <point x="111" y="773"/>
      <point x="78" y="810"/>
      <point x="78" y="882" type="curve"/>
      <point x="40" y="882" type="line"/>
      <point x="41" y="790"/>
      <point x="87" y="742"/>
    </contour>
  </outline>
</glyph>
<glyph name="dotaccentcomb" format="2">
  <unicode hex="0307"/>
  <anchor x="72" y="672" name="_top"/>
  <outline>
    <contour>
      <point x="72" y="780" type="curve" smooth="yes"/>
      <point x="91" y="780"/>
      <point x="104" y="793"/>
      <point x="104" y="811" type="curve" smooth="yes"/>
      <point x="104" y="829"/>
      <point x="91" y="842"/>
      <point x="72" y="842" type="curve" smooth="yes"/>
      <point x="53" y="842"/>
      <point x="40" y="829"/>
      <point x="40" y="811" type="curve" smooth="yes"/>
      <point x="40" y="793"/>
      <point x="53" y="780"/>
    </contour>
  </outline>
</glyph>
<glyph name="dieresiscomb" format="2">
  <unicode hex="0308"/>
  <anchor x="177" y="672" name="_top"/>
  <outline>
    <contour>
      <point x="282" y="780" type="curve" smooth="yes"/>
      <point x="301" y="780"/>
      <point x="314" y="793"/>
      <point x="314" y="811" type="curve" smooth="yes"/>
      <point x="314" y="829"/>
      <point x="301" y="842"/>
      <point x="282" y="842" type="curve" smooth="yes"/>
      <point x="263" y="842"/>
      <point x="250" y="829"/>
      <point x="250" y="811" type="curve" smooth="yes"/>
      <point x="250" y="793"/>
      <point x="263" y="780"/>
    </contour>
    <contour>
      <point x="72" y="780" type="curve" smooth="yes"/>
      <point x="91" y="780"/>
      <point x="104" y="793"/>
      <point x="104" y="811" type="curve" smooth="yes"/>
      <point x="104" y="829"/>
      <point x="91" y="842"/>
      <point x="72" y="842" type="curve" smooth="yes"/>
      <point x="53" y="842"/>
      <point x="40" y="829"/>
      <point x="40" y="811" type="curve" smooth="yes"/>
      <point x="40" y="793"/>
      <point x="53" y="780"/>
    </contour>
  </outline>
</glyph>
<glyph name="hookabovecomb" format="2">
  <unicode hex="0309"/>
  <anchor x="108" y="672" name="_top"/>
  <outline>
    <contour>
      <point x="84" y="729" type="line"/>
      <point x="151" y="763"/>
      <point x="177" y="800"/>
      <point x="177" y="840" type="curve" smooth="yes"/>
      <point x="177" y="883"/>
      <point x="142" y="912"/>
      <point x="91" y="912" type="curve" smooth="yes"/>
      <point x="74" y="912"/>
      <point x="57" y="910"/>
      <point x="40" y="904" type="curve"/>
      <point x="41" y="875" type="line"/>
      <point x="55" y="881"/>
      <point x="69" y="883"/>
      <point x="86" y="883" type="curve" smooth="yes"/>
      <point x="123" y="883"/>
      <point x="143" y="864"/>
      <point x="143" y="837" type="curve" smooth="yes"/>
      <point x="143" y="804"/>
      <point x="117" y="780"/>
      <point x="65" y="753" type="curve"/>
    </contour>
  </outline>
</glyph>
<glyph name="ringcomb" format="2">
  <unicode hex="030A"/>
  <anchor x="148" y="672" name="_top"/>
  <outline>
    <contour>
      <point x="148" y="721" type="curve" smooth="yes"/>
      <point x="211" y="721"/>
      <point x="256" y="760"/>
      <point x="256" y="820" type="curve" smooth="yes"/>
      <point x="256" y="880"/>
      <point x="211" y="919"/>
      <point x="148" y="919" type="curve" smooth="yes"/>
      <point x="85" y="919"/>
      <point x="40" y="880"/>
      <point x="40" y="820" type="curve" smooth="yes"/>
      <point x="40" y="760"/>
      <point x="85" y="721"/>
    </contour>
    <contour>
      <point x="148" y="749" type="curve" smooth="yes"/>
      <point x="104" y="749"/>
      <point x="74" y="778"/>
      <point x="74" y="820" type="curve" smooth="yes"/>
      <point x="74" y="862"/>
      <point x="104" y="890"/>
      <point x="148" y="890" type="curve" smooth="yes"/>
      <point x="192" y="890"/>
      <point x="222" y="862"/>
      <point x="222" y="820" type="curve" smooth="yes"/>
      <point x="222" y="778"/>
      <point x="192" y="749"/>
    </contour>
  </outline>
</glyph>
<glyph name="hungarumlautcomb" format="2">
  <unicode hex="030B"/>
  <anchor x="129" y="672" name="_top"/>
  <outline>
    <contour>
      <point x="40" y="746" type="line"/>
      <point x="75" y="746" type="line"/>
      <point x="165" y="882" type="line"/>
      <point x="121" y="882" type="line"/>
    </contour>
    <contour>
      <point x="183" y="746" type="line"/>
      <point x="218" y="746" type="line"/>
      <point x="315" y="882" type="line"/>
      <point x="269" y="882" type="line"/>
    </contour>
  </outline>
</glyph>
<glyph name="caroncomb" format="2">
  <unicode hex="030C"/>
  <anchor x="179" y="672" name="_top"/>
  <outline>
    <contour>
      <point x="156" y="746" type="line"/>
      <point x="202" y="746" type="line"/>
      <point x="319" y="882" type="line"/>
      <point x="276" y="882" type="line"/>
      <point x="179" y="773" type="line"/>
      <point x="82" y="882" type="line"/>
      <point x="40" y="882" type="line"/>
    </contour>
  </outline>
</glyph>
<glyph name="commaturnedabovecomb" format="2">
  <unicode hex="0312"/>
  <anchor x="57" y="672" name="_top"/>
  <outline>
    <contour>
      <point x="40" y="746" type="line"/>
      <point x="73" y="746" type="line"/>
      <point x="73" y="777" type="line" smooth="yes"/>
      <point x="73" y="819"/>
      <point x="92" y="848"/>
      <point x="141" y="882" type="curve"/>
      <point x="125" y="901" type="line"/>
      <point x="73" y="873"/>
      <point x="40" y="828"/>
      <point x="40" y="777" type="curve" smooth="yes"/>
    </contour>
  </outline>
</glyph>
<glyph name="horncomb" format="2">
  <unicode hex="031B"/>
  <anchor x="40" y="525" name="_topright"/>
  <outline>
    <contour>
      <point x="40" y="495" type="line"/>
      <point x="141" y="495"/>
      <point x="191" y="556"/>
      <point x="182" y="668" type="curve"/>
      <point x="147" y="668" type="line"/>
      <point x="156" y="572"/>
      <point x="119" y="525"/>
      <point x="40" y="525" type="curve"/>
    </contour>
  </outline>
</glyph>
<glyph name="dotbelowcomb" format="2">
  <unicode hex="0323"/>
  <anchor x="72" y="0" name="_bottom"/>
  <outline>
    <contour>
      <point x="72" y="-151" type="curve" smooth="yes"/>
      <point x="91" y="-151"/>
      <point x="104" y="-138"/>
      <point x="104" y="-120" type="curve" smooth="yes"/>
      <point x="104" y="-102"/>
      <point x="91" y="-89"/>
      <point x="72" y="-89" type="curve" smooth="yes"/>
      <point x="53" y="-89"/>
      <point x="40" y="-102"/>
      <point x="40" y="-120" type="curve" smooth="yes"/>
      <point x="40" y="-138"/>
      <point x="53" y="-151"/>
    </contour>
  </outline>
</glyph>
<glyph name="commaaccentcomb" format="2">
  <unicode hex="0326"/>
  <anchor x="101" y="0" name="_bottom"/>
  <outline>
    <contour>
      <point x="40" y="-192" type="line"/>
      <point x="72" y="-192" type="line"/>
      <point x="121" y="-56" type="line"/>
      <point x="80" y="-56" type="line"/>
    </contour>
  </outline>
</glyph>
<glyph name="cedillacomb" format="2">
  <unicode hex="0327"/>
  <anchor x="153" y="0" name="_bottom"/>
  <outline>
    <contour>
      <point x="149" y="-233" type="curve" smooth="yes"/>
      <point x="209" y="-233"/>
      <point x="249" y="-200"/>
      <point x="249" y="-149" type="curve" smooth="yes"/>
      <point x="249" y="-103"/>
      <point x="217" y="-66"/>
      <point x="143" y="-53" type="curve"/>
      <point x="178" y="10" type="line"/>
      <point x="144" y="10" type="line"/>
      <point x="104" y="-55" type="line"/>
      <point x="114" y="-75" type="line"/>
      <point x="192" y="-89"/>
      <point x="213" y="-113"/>
      <point x="213" y="-147" type="curve" smooth="yes"/>
      <point x="213" y="-181"/>
      <point x="188" y="-204"/>
      <point x="149" y="-204" type="curve" smooth="yes"/>
      <point x="113" y="-204"/>
      <point x="85" y="-187"/>
      <point x="74" y="-159" type="curve"/>
      <point x="40" y="-169" type="line"/>
      <point x="55" y="-209"/>
      <point x="97" y="-233"/>
    </contour>
  </outline>
</glyph>
<glyph name="ogonekcomb" format="2">
  <unicode hex="0328"/>
  <anchor x="183" y="0" name="_ogonek"/>
  <outline>
    <contour>
      <point x="140" y="-209" type="curve" smooth="yes"/>
      <point x="164" y="-209"/>
      <point x="191" y="-204"/>
      <point x="203" y="-198" type="curve"/>
      <point x="203" y="-170" type="line"/>
      <point x="188" y="-176"/>
      <point x="166" y="-180"/>
      <point x="146" y="-180" type="curve" smooth="yes"/>
      <point x="98" y="-180"/>
      <point x="73" y="-161"/>
      <point x="73" y="-126" type="curve" smooth="yes"/>
      <point x="73" y="-79"/>
      <point x="117" y="-40"/>
      <point x="183" y="0" type="curve"/>
      <point x="170" y="19" type="line"/>
      <point x="167" y="19" type="line"/>
      <point x="95" y="-21"/>
      <point x="40" y="-71"/>
      <point x="40" y="-129" type="curve" smooth="yes"/>
      <point x="40" y="-179"/>
      <point x="77" y="-209"/>
    </contour>
  </outline>
</glyph>
<glyph name="strokeshortcomb" format="2">
  <unicode hex="0335"/>
  <anchor x="202" y="307" name="_center"/>
  <outline>
    <contour>
      <point x="40" y="290" type="line"/>
      <point x="364" y="290" type="line"/>
      <point x="364" y="324" type="line"/>
      <point x="40" y="324" type="line"/>
    </contour>
  </outline>
</glyph>
<glyph name="slashlongcomb" format="2">
  <unicode hex="0338"/>
  <anchor x="320" y="259" name="_center"/>
  <outline>
    <contour>
      <point x="40" y="-60" type="line"/>
      <point x="84" y="-60" type="line"/>
      <point x="599" y="577" type="line"/>
      <point x="558" y="577" type="line"/>
    </contour>
  </outline>
</glyph>
<glyph name="mu" format="2">
  <advance width="638"/>
  <unicode hex="03BC"/>
  <outline>
    <contour>
      <point x="66" y="-132" type="line"/>
      <point x="103" y="-132" type="line"/>
      <point x="103" y="143" type="line"/>
      <point x="87" y="133" type="line"/>
      <point x="104" y="45"/>
      <point x="186" y="-8"/>
      <point x="302" y="-8" type="curve" smooth="yes"/>
      <point x="402" y="-8"/>
      <point x="494" y="40"/>
      <point x="530" y="130" type="curve"/>
      <point x="535" y="130" type="line"/>
      <point x="535" y="0" type="line"/>
      <point x="572" y="0" type="line"/>
      <point x="572" y="517" type="line"/>
      <point x="535" y="517" type="line"/>
      <point x="535" y="262" type="line" smooth="yes"/>
      <point x="535" y="120"/>
      <point x="455" y="26"/>
      <point x="307" y="26" type="curve" smooth="yes"/>
      <point x="177" y="26"/>
      <point x="103" y="86"/>
      <point x="103" y="234" type="curve" smooth="yes"/>
      <point x="103" y="517" type="line"/>
      <point x="66" y="517" type="line"/>
    </contour>
  </outline>
</glyph>
<glyph name="pi" format="2">
  <advance width="580"/>
  <unicode hex="03C0"/>
  <outline>
    <contour>
      <point x="519" y="-7" type="curve" smooth="yes"/>
      <point x="539" y="-7"/>
      <point x="554" y="-4"/>
      <point x="560" y="1" type="curve"/>
      <point x="560" y="38" type="line"/>
      <point x="552" y="33"/>
      <point x="541" y="29"/>
      <point x="524" y="29" type="curve" smooth="yes"/>
      <point x="479" y="29"/>
      <point x="471" y="63"/>
      <point x="471" y="118" type="curve" smooth="yes"/>
      <point x="471" y="485" type="line"/>
      <point x="561" y="485" type="line"/>
      <point x="561" y="517" type="line"/>
      <point x="11" y="517" type="line"/>
      <point x="11" y="485" type="line"/>
      <point x="103" y="485" type="line"/>
      <point x="103" y="0" type="line"/>
      <point x="140" y="0" type="line"/>
      <point x="140" y="485" type="line"/>
      <point x="434" y="485" type="line"/>
      <point x="434" y="98" type="line" smooth="yes"/>
      <point x="434" y="34"/>
      <point x="458" y="-7"/>
    </contour>
  </outline>
</glyph>
<glyph name="Germandbls" format="2">
  <advance width="711"/>
  <unicode hex="1E9E"/>
  <outline>
    <contour>
      <point x="72" y="0" type="line"/>
      <point x="111" y="0" type="line"/>
      <point x="111" y="692" type="line"/>
      <point x="588" y="692" type="line"/>
      <point x="339" y="415" type="line"/>
      <point x="339" y="382" type="line"/>
      <point x="442" y="382" type="line" smooth="yes"/>
      <point x="562" y="382"/>
      <point x="642" y="334"/>
      <point x="642" y="211" type="curve" smooth="yes"/>
      <point x="642" y="106"/>
      <point x="586" y="36"/>
      <point x="442" y="36" type="curve" smooth="yes"/>
      <point x="198" y="36" type="line"/>
      <point x="198" y="0" type="line"/>
      <point x="448" y="0" type="line" smooth="yes"/>
      <point x="598" y="0"/>
      <point x="682" y="84"/>
      <point x="682" y="210" type="curve" smooth="yes"/>
      <point x="682" y="342"/>
      <point x="598" y="417"/>
      <point x="448" y="417" type="curve" smooth="yes"/>
      <point x="376" y="417" type="line"/>
      <point x="394" y="387" type="line"/>
      <point x="394" y="424" type="line"/>
      <point x="623" y="678" type="line"/>
      <point x="623" y="729" type="line"/>
      <point x="72" y="729" type="line"/>
    </contour>
  </outline>
</glyph>
<glyph name="endash" format="2">
  <advance width="515"/>
  <unicode hex="2013"/>
  <outline>
    <contour>
      <point x="46" y="243" type="line"/>
      <point x="469" y="243" type="line"/>
      <point x="469" y="275" type="line"/>
      <point x="46" y="275" type="line"/>
    </contour>
  </outline>
</glyph>
<glyph name="emdash" format="2">
  <advance width="701"/>
  <unicode hex="2014"/>
  <outline>
    <contour>
      <point x="46" y="243" type="line"/>
      <point x="655" y="243" type="line"/>
      <point x="655" y="275" type="line"/>
      <point x="46" y="275" type="line"/>
    </contour>
  </outline>
</glyph>
<glyph name="bullet" format="2">
  <advance width="271"/>
  <unicode hex="2022"/>
  <outline>
    <contour>
      <point x="136" y="171" type="curve" smooth="yes"/>
      <point x="201" y="171"/>
      <point x="244" y="216"/>
      <point x="244" y="277" type="curve" smooth="yes"/>
      <point x="244" y="339"/>
      <point x="201" y="384"/>
      <point x="136" y="384" type="curve" smooth="yes"/>
      <point x="73" y="384"/>
      <point x="27" y="339"/>
      <point x="27" y="277" type="curve" smooth="yes"/>
      <point x="27" y="216"/>
      <point x="73" y="171"/>
    </contour>
  </outline>
</glyph>
<glyph name="perthousand" format="2">
  <advance width="1357"/>
  <unicode hex="2030"/>
  <outline>
    <contour>
      <point x="199" y="0" type="line"/>
      <point x="239" y="0" type="line"/>
      <point x="769" y="729" type="line"/>
      <point x="728" y="729" type="line"/>
    </contour>
    <contour>
      <point x="234" y="323" type="curve" smooth="yes"/>
      <point x="338" y="323"/>
      <point x="409" y="393"/>
      <point x="409" y="526" type="curve" smooth="yes"/>
      <point x="409" y="659"/>
      <point x="337" y="729"/>
      <point x="233" y="729" type="curve" smooth="yes"/>
      <point x="128" y="729"/>
      <point x="56" y="659"/>
      <point x="56" y="526" type="curve" smooth="yes"/>
      <point x="56" y="392"/>
      <point x="129" y="323"/>
    </contour>
    <contour>
      <point x="233" y="353" type="curve" smooth="yes"/>
      <point x="143" y="353"/>
      <point x="92" y="415"/>
      <point x="92" y="526" type="curve" smooth="yes"/>
      <point x="92" y="637"/>
      <point x="144" y="699"/>
      <point x="233" y="699" type="curve" smooth="yes"/>
      <point x="323" y="699"/>
      <point x="374" y="637"/>
      <point x="374" y="526" type="curve" smooth="yes"/>
      <point x="374" y="415"/>
      <point x="322" y="353"/>
    </contour>
    <contour>
      <point x="726" y="-10" type="curve" smooth="yes"/>
      <point x="830" y="-10"/>
      <point x="901" y="60"/>
      <point x="901" y="193" type="curve" smooth="yes"/>
      <point x="901" y="326"/>
      <point x="829" y="396"/>
      <point x="725" y="396" type="curve" smooth="yes"/>
      <point x="620" y="396"/>
      <point x="548" y="326"/>
      <point x="548" y="193" type="curve" smooth="yes"/>
      <point x="548" y="59"/>
      <point x="621" y="-10"/>
    </contour>
    <contour>
      <point x="725" y="20" type="curve" smooth="yes"/>
      <point x="635" y="20"/>
      <point x="584" y="82"/>
      <point x="584" y="193" type="curve" smooth="yes"/>
      <point x="584" y="304"/>
      <point x="636" y="366"/>
      <point x="725" y="366" type="curve" smooth="yes"/>
      <point x="815" y="366"/>
      <point x="866" y="304"/>
      <point x="866" y="193" type="curve" smooth="yes"/>
      <point x="866" y="82"/>
      <point x="814" y="20"/>
    </contour>
    <contour>
      <point x="1126" y="-10" type="curve" smooth="yes"/>
      <point x="1230" y="-10"/>
      <point x="1301" y="60"/>
      <point x="1301" y="193" type="curve" smooth="yes"/>
      <point x="1301" y="326"/>
      <point x="1229" y="396"/>
      <point x="1125" y="396" type="curve" smooth="yes"/>
      <point x="1020" y="396"/>
      <point x="948" y="326"/>
      <point x="948" y="193" type="curve" smooth="yes"/>
      <point x="948" y="59"/>
      <point x="1021" y="-10"/>
    </contour>
    <contour>
      <point x="1125" y="20" type="curve" smooth="yes"/>
      <point x="1035" y="20"/>
      <point x="984" y="82"/>
      <point x="984" y="193" type="curve" smooth="yes"/>
      <point x="984" y="304"/>
      <point x="1036" y="366"/>
      <point x="1125" y="366" type="curve" smooth="yes"/>
      <point x="1215" y="366"/>
      <point x="1266" y="304"/>
      <point x="1266" y="193" type="curve" smooth="yes"/>
      <point x="1266" y="82"/>
      <point x="1214" y="20"/>
    </contour>
  </outline>
</glyph>
<glyph name="guilsinglleft" format="2">
  <advance width="221"/>
  <unicode hex="2039"/>
  <outline>
    <contour>
      <point x="153" y="80" type="line"/>
      <point x="187" y="80" type="line"/>
      <point x="74" y="299" type="line"/>
      <point x="187" y="517" type="line"/>
      <point x="153" y="517" type="line"/>
      <point x="33" y="299" type="line"/>
    </contour>
  </outline>
</glyph>
<glyph name="fraction" format="2">
  <advance width="100"/>
  <unicode hex="2044"/>
  <outline>
    <contour>
      <point x="-261" y="0" type="line"/>
      <point x="-221" y="0" type="line"/>
      <point x="361" y="721" type="line"/>
      <point x="320" y="721" type="line"/>
    </contour>
  </outline>
</glyph>
<glyph name="zeroinferior" format="2">
  <advance width="481"/>
  <unicode hex="2080"/>
  <anchor x="241" y="173" name="_center"/>
  <outline>
    <contour>
      <point x="241" y="-46" type="curve" smooth="yes"/>
      <point x="360" y="-46"/>
      <point x="442" y="31"/>
      <point x="442" y="176" type="curve" smooth="yes"/>
      <point x="442" y="321"/>
      <point x="359" y="397"/>
      <point x="241" y="397" type="curve" smooth="yes"/>
      <point x="120" y="397"/>
      <point x="39" y="321"/>
      <point x="39" y="176" type="curve" smooth="yes"/>
      <point x="39" y="30"/>
      <point x="122" y="-46"/>
    </contour>
    <contour>
      <point x="241" y="-14" type="curve" smooth="yes"/>
      <point x="134" y="-14"/>
      <point x="76" y="55"/>
      <point x="76" y="176" type="curve" smooth="yes"/>
      <point x="76" y="298"/>
      <point x="136" y="366"/>
      <point x="241" y="366" type="curve" smooth="yes"/>
      <point x="346" y="366"/>
      <point x="404" y="297"/>
      <point x="404" y="176" type="curve" smooth="yes"/>
      <point x="404" y="55"/>
      <point x="344" y="-14"/>
    </contour>
  </outline>
</glyph>
<glyph name="oneinferior" format="2">
  <advance width="223"/>
  <unicode hex="2081"/>
  <anchor x="117" y="173" name="_center"/>
  <outline>
    <contour>
      <point x="121" y="-40" type="line"/>
      <point x="157" y="-40" type="line"/>
      <point x="157" y="393" type="line"/>
      <point x="120" y="393" type="line"/>
      <point x="117" y="351"/>
      <point x="94" y="323"/>
      <point x="36" y="323" type="curve" smooth="yes"/>
      <point x="16" y="323" type="line"/>
      <point x="16" y="296" type="line"/>
      <point x="121" y="296" type="line"/>
    </contour>
  </outline>
</glyph>
<glyph name="twoinferior" format="2">
  <advance width="395"/>
  <unicode hex="2082"/>
  <anchor x="199" y="173" name="_center"/>
  <outline>
    <contour>
      <point x="32" y="-40" type="line"/>
      <point x="365" y="-40" type="line"/>
      <point x="365" y="-9" type="line"/>
      <point x="75" y="-9" type="line"/>
      <point x="80" y="102"/>
      <point x="357" y="114"/>
      <point x="357" y="272" type="curve" smooth="yes"/>
      <point x="357" y="347"/>
      <point x="299" y="398"/>
      <point x="199" y="398" type="curve" smooth="yes"/>
      <point x="100" y="398"/>
      <point x="34" y="349"/>
      <point x="33" y="261" type="curve"/>
      <point x="68" y="261" type="line"/>
      <point x="68" y="324"/>
      <point x="115" y="367"/>
      <point x="197" y="367" type="curve" smooth="yes"/>
      <point x="269" y="367"/>
      <point x="319" y="334"/>
      <point x="319" y="270" type="curve" smooth="yes"/>
      <point x="319" y="126"/>
      <point x="32" y="132"/>
      <point x="32" y="-29" type="curve" smooth="yes"/>
    </contour>
  </outline>
</glyph>
<glyph name="threeinferior" format="2">
  <advance width="429"/>
  <unicode hex="2083"/>
  <anchor x="211" y="173" name="_center"/>
  <outline>
    <contour>
      <point x="207" y="-45" type="curve" smooth="yes"/>
      <point x="319" y="-45"/>
      <point x="389" y="1"/>
      <point x="389" y="78" type="curve" smooth="yes"/>
      <point x="389" y="143"/>
      <point x="344" y="178"/>
      <point x="283" y="183" type="curve"/>
      <point x="283" y="186" type="line"/>
      <point x="339" y="195"/>
      <point x="379" y="232"/>
      <point x="379" y="287" type="curve" smooth="yes"/>
      <point x="379" y="364"/>
      <point x="309" y="397"/>
      <point x="211" y="397" type="curve" smooth="yes"/>
      <point x="112" y="397"/>
      <point x="38" y="345"/>
      <point x="41" y="262" type="curve"/>
      <point x="76" y="262" type="line"/>
      <point x="77" y="328"/>
      <point x="132" y="367"/>
      <point x="211" y="367" type="curve" smooth="yes"/>
      <point x="287" y="367"/>
      <point x="342" y="343"/>
      <point x="342" y="284" type="curve" smooth="yes"/>
      <point x="342" y="233"/>
      <point x="306" y="198"/>
      <point x="219" y="198" type="curve" smooth="yes"/>
      <point x="167" y="198" type="line"/>
      <point x="167" y="170" type="line"/>
      <point x="226" y="170" type="line" smooth="yes"/>
      <point x="301" y="170"/>
      <point x="350" y="146"/>
      <point x="350" y="80" type="curve" smooth="yes"/>
      <point x="350" y="23"/>
      <point x="302" y="-14"/>
      <point x="207" y="-14" type="curve" smooth="yes"/>
      <point x="125" y="-14"/>
      <point x="69" y="21"/>
      <point x="69" y="93" type="curve"/>
      <point x="32" y="93" type="line"/>
      <point x="33" y="7"/>
      <point x="98" y="-45"/>
    </contour>
  </outline>
</glyph>
<glyph name="fourinferior" format="2">
  <advance width="441"/>
  <unicode hex="2084"/>
  <anchor x="220.5" y="173" name="_center"/>
  <outline>
    <contour>
      <point x="296" y="-40" type="line"/>
      <point x="333" y="-40" type="line"/>
      <point x="333" y="393" type="line"/>
      <point x="290" y="393" type="line"/>
      <point x="17" y="104" type="line"/>
      <point x="17" y="74" type="line"/>
      <point x="424" y="74" type="line"/>
      <point x="424" y="104" type="line"/>
      <point x="57" y="104" type="line"/>
      <point x="298" y="355" type="line"/>
      <point x="296" y="355" type="line"/>
    </contour>
  </outline>
</glyph>
<glyph name="fiveinferior" format="2">
  <advance width="440"/>
  <unicode hex="2085"/>
  <anchor x="226" y="173" name="_center"/>
  <outline>
    <contour>
      <point x="221" y="-45" type="curve" smooth="yes"/>
      <point x="329" y="-45"/>
      <point x="405" y="8"/>
      <point x="405" y="102" type="curve" smooth="yes"/>
      <point x="405" y="188"/>
      <point x="345" y="245"/>
      <point x="231" y="245" type="curve" smooth="yes"/>
      <point x="173" y="245"/>
      <point x="120" y="223"/>
      <point x="95" y="192" type="curve"/>
      <point x="92" y="192" type="line"/>
      <point x="102" y="362" type="line"/>
      <point x="394" y="362" type="line"/>
      <point x="394" y="393" type="line"/>
      <point x="69" y="393" type="line"/>
      <point x="56" y="158" type="line"/>
      <point x="92" y="158" type="line"/>
      <point x="112" y="189"/>
      <point x="157" y="215"/>
      <point x="225" y="215" type="curve" smooth="yes"/>
      <point x="315" y="215"/>
      <point x="366" y="176"/>
      <point x="366" y="101" type="curve" smooth="yes"/>
      <point x="366" y="32"/>
      <point x="318" y="-14"/>
      <point x="221" y="-14" type="curve" smooth="yes"/>
      <point x="138" y="-14"/>
      <point x="81" y="28"/>
      <point x="82" y="92" type="curve"/>
      <point x="46" y="92" type="line"/>
      <point x="46" y="10"/>
      <point x="115" y="-45"/>
    </contour>
  </outline>
</glyph>
<glyph name="sixinferior" format="2">
  <advance width="447"/>
  <unicode hex="2086"/>
  <anchor x="226" y="173" name="_center"/>
  <outline>
    <contour>
      <point x="230" y="-45" type="curve" smooth="yes"/>
      <point x="337" y="-45"/>
      <point x="409" y="9"/>
      <point x="409" y="100" type="curve" smooth="yes"/>
      <point x="409" y="188"/>
      <point x="343" y="238"/>
      <point x="239" y="238" type="curve" smooth="yes"/>
      <point x="161" y="238"/>
      <point x="100" y="201"/>
      <point x="82" y="144" type="curve"/>
      <point x="79" y="145" type="line"/>
      <point x="80" y="275"/>
      <point x="105" y="367"/>
      <point x="237" y="367" type="curve" smooth="yes"/>
      <point x="306" y="367"/>
      <point x="356" y="339"/>
      <point x="364" y="289" type="curve"/>
      <point x="401" y="289" type="line"/>
      <point x="394" y="353"/>
      <point x="331" y="397"/>
      <point x="238" y="397" type="curve" smooth="yes"/>
      <point x="108" y="397"/>
      <point x="43" y="323"/>
      <point x="43" y="149" type="curve" smooth="yes"/>
      <point x="43" y="29"/>
      <point x="95" y="-45"/>
    </contour>
    <contour>
      <point x="231" y="-14" type="curve" smooth="yes"/>
      <point x="147" y="-14"/>
      <point x="89" y="22"/>
      <point x="89" y="95" type="curve" smooth="yes"/>
      <point x="89" y="159"/>
      <point x="144" y="209"/>
      <point x="233" y="209" type="curve" smooth="yes"/>
      <point x="315" y="209"/>
      <point x="370" y="173"/>
      <point x="370" y="99" type="curve" smooth="yes"/>
      <point x="370" y="31"/>
      <point x="324" y="-14"/>
    </contour>
  </outline>
</glyph>
<glyph name="seveninferior" format="2">
  <advance width="370"/>
  <unicode hex="2087"/>
  <anchor x="192" y="173" name="_center"/>
  <outline>
    <contour>
      <point x="130" y="-40" type="curve"/>
      <point x="168" y="-40" type="line"/>
      <point x="189" y="111"/>
      <point x="259" y="250"/>
      <point x="357" y="368" type="curve"/>
      <point x="357" y="393" type="line"/>
      <point x="26" y="393" type="line"/>
      <point x="26" y="267" type="line"/>
      <point x="56" y="267" type="line"/>
      <point x="56" y="363" type="line"/>
      <point x="316" y="363" type="line"/>
      <point x="222" y="249"/>
      <point x="152" y="116"/>
    </contour>
  </outline>
</glyph>
<glyph name="eightinferior" format="2">
  <advance width="440"/>
  <unicode hex="2088"/>
  <anchor x="220" y="173" name="_center"/>
  <outline>
    <contour>
      <point x="220" y="-45" type="curve" smooth="yes"/>
      <point x="332" y="-45"/>
      <point x="400" y="-2"/>
      <point x="400" y="75" type="curve" smooth="yes"/>
      <point x="400" y="137"/>
      <point x="354" y="179"/>
      <point x="288" y="182" type="curve"/>
      <point x="288" y="185" type="line"/>
      <point x="351" y="194"/>
      <point x="391" y="228"/>
      <point x="391" y="286" type="curve" smooth="yes"/>
      <point x="391" y="364"/>
      <point x="316" y="397"/>
      <point x="220" y="397" type="curve" smooth="yes"/>
      <point x="125" y="397"/>
      <point x="50" y="365"/>
      <point x="50" y="286" type="curve" smooth="yes"/>
      <point x="50" y="227"/>
      <point x="92" y="193"/>
      <point x="152" y="185" type="curve"/>
      <point x="152" y="182" type="line"/>
      <point x="89" y="179"/>
      <point x="40" y="138"/>
      <point x="40" y="75" type="curve" smooth="yes"/>
      <point x="40" y="-2"/>
      <point x="108" y="-45"/>
    </contour>
    <contour>
      <point x="220" y="-14" type="curve" smooth="yes"/>
      <point x="126" y="-14"/>
      <point x="79" y="19"/>
      <point x="79" y="79" type="curve" smooth="yes"/>
      <point x="79" y="143"/>
      <point x="131" y="169"/>
      <point x="220" y="169" type="curve" smooth="yes"/>
      <point x="310" y="169"/>
      <point x="362" y="143"/>
      <point x="362" y="79" type="curve" smooth="yes"/>
      <point x="362" y="19"/>
      <point x="314" y="-14"/>
    </contour>
    <contour>
      <point x="220" y="197" type="curve" smooth="yes"/>
      <point x="123" y="197"/>
      <point x="87" y="232"/>
      <point x="87" y="282" type="curve" smooth="yes"/>
      <point x="87" y="343"/>
      <point x="143" y="367"/>
      <point x="220" y="367" type="curve" smooth="yes"/>
      <point x="297" y="367"/>
      <point x="353" y="343"/>
      <point x="353" y="282" type="curve" smooth="yes"/>
      <point x="353" y="232"/>
      <point x="317" y="197"/>
    </contour>
  </outline>
</glyph>
<glyph name="peseta" format="2">
  <advance width="1537"/>
  <unicode hex="20A7"/>
  <outline>
    <contour>
      <point x="85" y="0" type="line"/>
      <point x="123" y="0" type="line"/>
      <point x="123" y="710" type="line"/>
      <point x="105" y="692" type="line"/>
      <point x="375" y="692" type="line" smooth="yes"/>
      <point x="504" y="692"/>
      <point x="572" y="623"/>
      <point x="572" y="509" type="curve" smooth="yes"/>
      <point x="572" y="398"/>
      <point x="505" y="325"/>
      <point x="375" y="325" type="curve" smooth="yes"/>
      <point x="114" y="325" type="line"/>
      <point x="114" y="289" type="line"/>
      <point x="377" y="289" type="line" smooth="yes"/>
      <point x="524" y="289"/>
      <point x="612" y="375"/>
      <point x="612" y="509" type="curve" smooth="yes"/>
      <point x="612" y="649"/>
      <point x="524" y="729"/>
      <point x="378" y="729" type="curve" smooth="yes"/>
      <point x="85" y="729" type="line"/>
    </contour>
    <contour>
      <point x="889" y="0" type="curve" smooth="yes"/>
      <point x="969" y="0" type="line"/>
      <point x="969" y="36" type="line"/>
      <point x="895" y="36" type="line" smooth="yes"/>
      <point x="850" y="36"/>
      <point x="824" y="48"/>
      <point x="824" y="95" type="curve" smooth="yes"/>
      <point x="824" y="485" type="line"/>
      <point x="969" y="485" type="line"/>
      <point x="969" y="517" type="line"/>
      <point x="824" y="517" type="line"/>
      <point x="824" y="690" type="line"/>
      <point x="787" y="681" type="line"/>
      <point x="787" y="517" type="line"/>
      <point x="669" y="517" type="line"/>
      <point x="669" y="485" type="line"/>
      <point x="787" y="485" type="line"/>
      <point x="787" y="89" type="line" smooth="yes"/>
      <point x="787" y="28"/>
      <point x="822" y="0"/>
    </contour>
    <contour>
      <point x="1260" y="-10" type="curve" smooth="yes"/>
      <point x="1416" y="-10"/>
      <point x="1493" y="48"/>
      <point x="1493" y="135" type="curve" smooth="yes"/>
      <point x="1493" y="243"/>
      <point x="1418" y="266"/>
      <point x="1260" y="283" type="curve" smooth="yes"/>
      <point x="1129" y="297"/>
      <point x="1071" y="317"/>
      <point x="1071" y="387" type="curve" smooth="yes"/>
      <point x="1071" y="461"/>
      <point x="1150" y="494"/>
      <point x="1256" y="494" type="curve" smooth="yes"/>
      <point x="1360" y="494"/>
      <point x="1436" y="456"/>
      <point x="1443" y="367" type="curve"/>
      <point x="1480" y="367" type="line"/>
      <point x="1473" y="464"/>
      <point x="1401" y="527"/>
      <point x="1256" y="527" type="curve" smooth="yes"/>
      <point x="1124" y="527"/>
      <point x="1034" y="475"/>
      <point x="1034" y="386" type="curve" smooth="yes"/>
      <point x="1034" y="294"/>
      <point x="1105" y="263"/>
      <point x="1256" y="248" type="curve" smooth="yes"/>
      <point x="1405" y="232"/>
      <point x="1455" y="214"/>
      <point x="1455" y="132" type="curve" smooth="yes"/>
      <point x="1455" y="54"/>
      <point x="1376" y="23"/>
      <point x="1260" y="23" type="curve" smooth="yes"/>
      <point x="1132" y="23"/>
      <point x="1052" y="76"/>
      <point x="1052" y="160" type="curve"/>
      <point x="1015" y="160" type="line"/>
      <point x="1015" y="58"/>
      <point x="1108" y="-10"/>
    </contour>
  </outline>
</glyph>
<glyph name="won" format="2">
  <advance width="1017"/>
  <unicode hex="20A9"/>
  <outline>
    <contour>
      <point x="247" y="0" type="line"/>
      <point x="302" y="0" type="line"/>
      <point x="443" y="478" type="line"/>
      <point x="504" y="691" type="line"/>
      <point x="513" y="691" type="line"/>
      <point x="572" y="478" type="line"/>
      <point x="709" y="0" type="line"/>
      <point x="764" y="0" type="line"/>
      <point x="977" y="729" type="line"/>
      <point x="936" y="729" type="line"/>
      <point x="800" y="252" type="line"/>
      <point x="740" y="40" type="line"/>
      <point x="733" y="40" type="line"/>
      <point x="673" y="250" type="line"/>
      <point x="538" y="729" type="line"/>
      <point x="480" y="729" type="line"/>
      <point x="338" y="247" type="line"/>
      <point x="278" y="41" type="line"/>
      <point x="272" y="41" type="line"/>
      <point x="214" y="252" type="line"/>
      <point x="82" y="729" type="line"/>
      <point x="40" y="729" type="line"/>
    </contour>
    <contour>
      <point x="43" y="347" type="line"/>
      <point x="974" y="347" type="line"/>
      <point x="974" y="383" type="line"/>
      <point x="43" y="383" type="line"/>
    </contour>
  </outline>
</glyph>
<glyph name="sheqel" format="2">
  <advance width="826"/>
  <unicode hex="20AA"/>
  <outline>
    <contour>
      <point x="291" y="0" type="line"/>
      <point x="674" y="0" type="line" smooth="yes"/>
      <point x="718" y="0"/>
      <point x="741" y="18"/>
      <point x="741" y="67" type="curve" smooth="yes"/>
      <point x="741" y="729" type="line"/>
      <point x="703" y="729" type="line"/>
      <point x="703" y="37" type="line"/>
      <point x="329" y="37" type="line"/>
      <point x="329" y="571" type="line"/>
      <point x="291" y="571" type="line"/>
    </contour>
    <contour>
      <point x="85" y="0" type="line"/>
      <point x="123" y="0" type="line"/>
      <point x="123" y="692" type="line"/>
      <point x="497" y="692" type="line"/>
      <point x="497" y="159" type="line"/>
      <point x="536" y="159" type="line"/>
      <point x="536" y="663" type="line" smooth="yes"/>
      <point x="536" y="712"/>
      <point x="514" y="729"/>
      <point x="470" y="729" type="curve" smooth="yes"/>
      <point x="85" y="729" type="line"/>
    </contour>
  </outline>
</glyph>
<glyph name="euro" format="2">
  <advance width="921"/>
  <unicode hex="20AC"/>
  <outline>
    <contour>
      <point x="528" y="-8" type="curve" smooth="yes"/>
      <point x="718" y="-8"/>
      <point x="856" y="87"/>
      <point x="879" y="237" type="curve"/>
      <point x="840" y="238" type="line"/>
      <point x="817" y="111"/>
      <point x="700" y="28"/>
      <point x="528" y="28" type="curve" smooth="yes"/>
      <point x="316" y="28"/>
      <point x="187" y="162"/>
      <point x="187" y="364" type="curve" smooth="yes"/>
      <point x="187" y="566"/>
      <point x="316" y="700"/>
      <point x="528" y="700" type="curve" smooth="yes"/>
      <point x="692" y="700"/>
      <point x="813" y="620"/>
      <point x="840" y="494" type="curve"/>
      <point x="879" y="494" type="line"/>
      <point x="850" y="643"/>
      <point x="714" y="736"/>
      <point x="528" y="736" type="curve" smooth="yes"/>
      <point x="299" y="736"/>
      <point x="147" y="587"/>
      <point x="147" y="364" type="curve" smooth="yes"/>
      <point x="147" y="142"/>
      <point x="298" y="-8"/>
    </contour>
    <contour>
      <point x="40" y="268" type="line"/>
      <point x="559" y="268" type="line"/>
      <point x="564" y="303" type="line"/>
      <point x="40" y="303" type="line"/>
    </contour>
    <contour>
      <point x="40" y="426" type="line"/>
      <point x="588" y="426" type="line"/>
      <point x="593" y="461" type="line"/>
      <point x="40" y="461" type="line"/>
    </contour>
  </outline>
</glyph>
<glyph name="tenge" format="2">
  <advance width="613"/>
  <unicode hex="20B8"/>
  <outline>
    <contour>
      <point x="289" y="508" type="line"/>
      <point x="289" y="0" type="line"/>
      <point x="325" y="0" type="line"/>
      <point x="325" y="508" type="line"/>
    </contour>
    <contour>
      <point x="576" y="498" type="line"/>
      <point x="576" y="534" type="line"/>
      <point x="37" y="534" type="line"/>
      <point x="37" y="498" type="line"/>
    </contour>
    <contour>
      <point x="576" y="693" type="line"/>
      <point x="576" y="729" type="line"/>
      <point x="37" y="729" type="line"/>
      <point x="37" y="693" type="line"/>
    </contour>
  </outline>
</glyph>
<glyph name="rupeeIndian" format="2">
  <advance width="663"/>
  <unicode hex="20B9"/>
  <outline>
    <contour>
      <point x="490" y="0" type="line"/>
      <point x="527" y="0" type="line"/>
      <point x="496" y="206" type="line" smooth="yes"/>
      <point x="485" y="276"/>
      <point x="453" y="317"/>
      <point x="391" y="334" type="curve"/>
      <point x="391" y="340" type="line"/>
      <point x="479" y="358"/>
      <point x="538" y="420"/>
      <point x="544" y="507" type="curve"/>
      <point x="626" y="507" type="line"/>
      <point x="626" y="541" type="line"/>
      <point x="543" y="541" type="line"/>
      <point x="540" y="610"/>
      <point x="497" y="671"/>
      <point x="443" y="691" type="curve"/>
      <point x="443" y="694" type="line"/>
      <point x="626" y="694" type="line"/>
      <point x="626" y="729" type="line"/>
      <point x="45" y="729" type="line"/>
      <point x="45" y="694" type="line"/>
      <point x="318" y="694" type="line" smooth="yes"/>
      <point x="421" y="694"/>
      <point x="490" y="647"/>
      <point x="503" y="542" type="curve"/>
      <point x="45" y="542" type="line"/>
      <point x="45" y="507" type="line"/>
      <point x="503" y="507" type="line"/>
      <point x="496" y="414"/>
      <point x="435" y="359"/>
      <point x="310" y="359" type="curve" smooth="yes"/>
      <point x="45" y="359" type="line"/>
      <point x="45" y="323" type="line"/>
      <point x="278" y="323" type="line" smooth="yes"/>
      <point x="379" y="323"/>
      <point x="442" y="303"/>
      <point x="459" y="197" type="curve" smooth="yes"/>
    </contour>
  </outline>
</glyph>
<glyph name="liraTurkish" format="2">
  <advance width="645"/>
  <unicode hex="20BA"/>
  <outline>
    <contour>
      <point x="153" y="0" type="line"/>
      <point x="192" y="0" type="line" smooth="yes"/>
      <point x="436" y="0"/>
      <point x="593" y="102"/>
      <point x="609" y="317" type="curve"/>
      <point x="571" y="317" type="line"/>
      <point x="560" y="146"/>
      <point x="442" y="31"/>
      <point x="190" y="33" type="curve"/>
      <point x="190" y="729" type="line"/>
      <point x="153" y="729" type="line"/>
    </contour>
    <contour>
      <point x="40" y="287" type="line"/>
      <point x="453" y="436" type="line"/>
      <point x="453" y="471" type="line"/>
      <point x="40" y="322" type="line"/>
    </contour>
    <contour>
      <point x="40" y="446" type="line"/>
      <point x="453" y="595" type="line"/>
      <point x="453" y="630" type="line"/>
      <point x="40" y="481" type="line"/>
    </contour>
  </outline>
</glyph>
<glyph name="literSign" format="2">
  <advance width="509"/>
  <unicode hex="2113"/>
  <outline>
    <contour>
      <point x="292" y="-10" type="curve" smooth="yes"/>
      <point x="374" y="-10"/>
      <point x="437" y="37"/>
      <point x="473" y="129" type="curve"/>
      <point x="441" y="140" type="line"/>
      <point x="410" y="61"/>
      <point x="360" y="22"/>
      <point x="292" y="22" type="curve" smooth="yes"/>
      <point x="198" y="22"/>
      <point x="149" y="143"/>
      <point x="149" y="388" type="curve" smooth="yes"/>
      <point x="149" y="585"/>
      <point x="206" y="707"/>
      <point x="295" y="707" type="curve" smooth="yes"/>
      <point x="362" y="707"/>
      <point x="397" y="650"/>
      <point x="397" y="538" type="curve" smooth="yes"/>
      <point x="397" y="316"/>
      <point x="259" y="161"/>
      <point x="31" y="134" type="curve"/>
      <point x="35" y="103" type="line"/>
      <point x="281" y="132"/>
      <point x="431" y="299"/>
      <point x="431" y="538" type="curve" smooth="yes"/>
      <point x="431" y="667"/>
      <point x="384" y="739"/>
      <point x="295" y="739" type="curve" smooth="yes"/>
      <point x="183" y="739"/>
      <point x="115" y="604"/>
      <point x="115" y="388" type="curve" smooth="yes"/>
      <point x="115" y="124"/>
      <point x="173" y="-10"/>
    </contour>
  </outline>
</glyph>
<glyph name="numero" format="2">
  <advance width="1238"/>
  <unicode hex="2116"/>
  <outline>
    <contour>
      <point x="85" y="0" type="line"/>
      <point x="123" y="0" type="line"/>
      <point x="123" y="436" type="line"/>
      <point x="120" y="686" type="line"/>
      <point x="125" y="686" type="line"/>
      <point x="694" y="0" type="line"/>
      <point x="746" y="0" type="line"/>
      <point x="746" y="729" type="line"/>
      <point x="708" y="729" type="line"/>
      <point x="708" y="303" type="line"/>
      <point x="712" y="43" type="line"/>
      <point x="707" y="43" type="line"/>
      <point x="137" y="729" type="line"/>
      <point x="85" y="729" type="line"/>
    </contour>
    <contour>
      <point x="872" y="231" type="line"/>
      <point x="1154" y="231" type="line"/>
      <point x="1154" y="263" type="line"/>
      <point x="872" y="263" type="line"/>
    </contour>
    <contour>
      <point x="1016" y="333" type="curve" smooth="yes"/>
      <point x="1121" y="333"/>
      <point x="1193" y="403"/>
      <point x="1193" y="536" type="curve" smooth="yes"/>
      <point x="1193" y="669"/>
      <point x="1120" y="739"/>
      <point x="1015" y="739" type="curve" smooth="yes"/>
      <point x="910" y="739"/>
      <point x="837" y="669"/>
      <point x="837" y="536" type="curve" smooth="yes"/>
      <point x="837" y="402"/>
      <point x="911" y="333"/>
    </contour>
    <contour>
      <point x="1015" y="364" type="curve" smooth="yes"/>
      <point x="926" y="364"/>
      <point x="875" y="426"/>
      <point x="875" y="536" type="curve" smooth="yes"/>
      <point x="875" y="646"/>
      <point x="927" y="707"/>
      <point x="1015" y="707" type="curve" smooth="yes"/>
      <point x="1105" y="707"/>
      <point x="1155" y="645"/>
      <point x="1155" y="536" type="curve" smooth="yes"/>
      <point x="1155" y="426"/>
      <point x="1104" y="364"/>
    </contour>
  </outline>
</glyph>
<glyph name="trademark" format="2">
  <advance width="820"/>
  <unicode hex="2122"/>
  <outline>
    <contour>
      <point x="367" y="419" type="line"/>
      <point x="400" y="419" type="line"/>
      <point x="400" y="569" type="line"/>
      <point x="399" y="686" type="line"/>
      <point x="401" y="686" type="line"/>
      <point x="536" y="419" type="line"/>
      <point x="564" y="419" type="line"/>
      <point x="699" y="686" type="line"/>
      <point x="702" y="686" type="line"/>
      <point x="699" y="569" type="line"/>
      <point x="699" y="419" type="line"/>
      <point x="735" y="419" type="line"/>
      <point x="735" y="729" type="line"/>
      <point x="687" y="729" type="line"/>
      <point x="551" y="459" type="line"/>
      <point x="548" y="459" type="line"/>
      <point x="412" y="729" type="line"/>
      <point x="367" y="729" type="line"/>
    </contour>
    <contour>
      <point x="155" y="419" type="line"/>
      <point x="189" y="419" type="line"/>
      <point x="189" y="699" type="line"/>
      <point x="313" y="699" type="line"/>
      <point x="313" y="729" type="line"/>
      <point x="36" y="729" type="line"/>
      <point x="36" y="699" type="line"/>
      <point x="155" y="699" type="line"/>
    </contour>
  </outline>
</glyph>
<glyph name="leftArrow" format="2">
  <advance width="684"/>
  <unicode hex="2190"/>
  <outline>
    <contour>
      <point x="594" y="383" type="line"/>
      <point x="111" y="383" type="line"/>
      <point x="244" y="564" type="line"/>
      <point x="203" y="564" type="line"/>
      <point x="55" y="365" type="line"/>
      <point x="203" y="166" type="line"/>
      <point x="244" y="166" type="line"/>
      <point x="111" y="347" type="line"/>
      <point x="594" y="347" type="line"/>
    </contour>
  </outline>
</glyph>
<glyph name="upArrow" format="2">
  <advance width="523"/>
  <unicode hex="2191"/>
  <outline>
    <contour>
      <point x="243" y="95" type="line"/>
      <point x="279" y="95" type="line"/>
      <point x="279" y="578" type="line"/>
      <point x="460" y="445" type="line"/>
      <point x="460" y="486" type="line"/>
      <point x="261" y="634" type="line"/>
      <point x="62" y="486" type="line"/>
      <point x="62" y="445" type="line"/>
      <point x="243" y="578" type="line"/>
    </contour>
  </outline>
</glyph>
<glyph name="rightArrow" format="2">
  <advance width="683"/>
  <unicode hex="2192"/>
  <outline>
    <contour>
      <point x="89" y="383" type="line"/>
      <point x="89" y="347" type="line"/>
      <point x="572" y="347" type="line"/>
      <point x="439" y="166" type="line"/>
      <point x="480" y="166" type="line"/>
      <point x="628" y="365" type="line"/>
      <point x="480" y="564" type="line"/>
      <point x="439" y="564" type="line"/>
      <point x="572" y="383" type="line"/>
    </contour>
  </outline>
</glyph>
<glyph name="downArrow" format="2">
  <advance width="523"/>
  <unicode hex="2193"/>
  <outline>
    <contour>
      <point x="243" y="634" type="line"/>
      <point x="243" y="151" type="line"/>
      <point x="62" y="284" type="line"/>
      <point x="62" y="243" type="line"/>
      <point x="261" y="95" type="line"/>
      <point x="460" y="243" type="line"/>
      <point x="460" y="284" type="line"/>
      <point x="279" y="151" type="line"/>
      <point x="279" y="634" type="line"/>
    </contour>
  </outline>
</glyph>
<glyph name="leftRightArrow" format="2">
  <advance width="829"/>
  <unicode hex="2194"/>
  <outline>
    <contour>
      <point x="228" y="166" type="line"/>
      <point x="269" y="166" type="line"/>
      <point x="136" y="347" type="line"/>
      <point x="693" y="347" type="line"/>
      <point x="560" y="166" type="line"/>
      <point x="601" y="166" type="line"/>
      <point x="749" y="365" type="line"/>
      <point x="601" y="564" type="line"/>
      <point x="560" y="564" type="line"/>
      <point x="693" y="383" type="line"/>
      <point x="136" y="383" type="line"/>
      <point x="269" y="564" type="line"/>
      <point x="228" y="564" type="line"/>
      <point x="80" y="365" type="line"/>
    </contour>
  </outline>
</glyph>
<glyph name="emptyset" format="2">
  <advance width="775"/>
  <unicode hex="2205"/>
  <outline>
    <contour>
      <point x="388" y="0" type="curve" smooth="yes"/>
      <point x="584" y="0"/>
      <point x="747" y="151"/>
      <point x="747" y="366" type="curve" smooth="yes"/>
      <point x="747" y="578"/>
      <point x="584" y="729"/>
      <point x="388" y="729" type="curve" smooth="yes"/>
      <point x="190" y="729"/>
      <point x="28" y="578"/>
      <point x="28" y="366" type="curve" smooth="yes"/>
      <point x="28" y="151"/>
      <point x="190" y="0"/>
    </contour>
    <contour>
      <point x="388" y="28" type="curve" smooth="yes"/>
      <point x="274" y="28"/>
      <point x="172" y="87"/>
      <point x="113" y="181" type="curve"/>
      <point x="677" y="524" type="line"/>
      <point x="701" y="478"/>
      <point x="714" y="424"/>
      <point x="714" y="366" type="curve" smooth="yes"/>
      <point x="714" y="171"/>
      <point x="564" y="28"/>
    </contour>
    <contour>
      <point x="98" y="207" type="line"/>
      <point x="74" y="254"/>
      <point x="61" y="308"/>
      <point x="61" y="366" type="curve" smooth="yes"/>
      <point x="61" y="560"/>
      <point x="211" y="701"/>
      <point x="388" y="701" type="curve" smooth="yes"/>
      <point x="501" y="701"/>
      <point x="603" y="643"/>
      <point x="661" y="551" type="curve"/>
    </contour>
  </outline>
</glyph>
<glyph name="product" format="2">
  <advance width="770"/>
  <unicode hex="220F"/>
  <outline>
    <contour>
      <point x="66" y="-151" type="line"/>
      <point x="104" y="-151" type="line"/>
      <point x="104" y="693" type="line"/>
      <point x="666" y="693" type="line"/>
      <point x="666" y="-151" type="line"/>
      <point x="704" y="-151" type="line"/>
      <point x="704" y="729" type="line"/>
      <point x="66" y="729" type="line"/>
    </contour>
  </outline>
</glyph>
<glyph name="summation" format="2">
  <advance width="598"/>
  <unicode hex="2211"/>
  <outline>
    <contour>
      <point x="15" y="-151" type="line"/>
      <point x="585" y="-151" type="line"/>
      <point x="585" y="-117" type="line"/>
      <point x="283" y="-117" type="line"/>
      <point x="58" y="-117" type="line"/>
      <point x="58" y="-114" type="line"/>
      <point x="407" y="289" type="line"/>
      <point x="58" y="692" type="line"/>
      <point x="58" y="695" type="line"/>
      <point x="283" y="695" type="line"/>
      <point x="585" y="695" type="line"/>
      <point x="585" y="729" type="line"/>
      <point x="15" y="729" type="line"/>
      <point x="15" y="689" type="line"/>
      <point x="359" y="291" type="line"/>
      <point x="359" y="288" type="line"/>
      <point x="15" y="-111" type="line"/>
    </contour>
  </outline>
</glyph>
<glyph name="minus" format="2">
  <advance width="720"/>
  <unicode hex="2212"/>
  <outline>
    <contour>
      <point x="113" y="345" type="line"/>
      <point x="608" y="345" type="line"/>
      <point x="608" y="377" type="line"/>
      <point x="113" y="377" type="line"/>
    </contour>
  </outline>
</glyph>
<glyph name="radical" format="2">
  <advance width="684"/>
  <unicode hex="221A"/>
  <outline>
    <contour>
      <point x="293" y="-151" type="line"/>
      <point x="325" y="-151" type="line"/>
      <point x="675" y="729" type="line"/>
      <point x="636" y="729" type="line"/>
      <point x="310" y="-93" type="line"/>
      <point x="307" y="-93" type="line"/>
      <point x="127" y="366" type="line"/>
      <point x="10" y="366" type="line"/>
      <point x="10" y="335" type="line"/>
      <point x="100" y="335" type="line"/>
    </contour>
  </outline>
</glyph>
<glyph name="infinity" format="2">
  <advance width="894"/>
  <unicode hex="221E"/>
  <outline>
    <contour>
      <point x="224" y="154" type="curve" smooth="yes"/>
      <point x="330" y="154"/>
      <point x="394" y="243"/>
      <point x="448" y="340" type="curve"/>
      <point x="507" y="234"/>
      <point x="568" y="154"/>
      <point x="674" y="154" type="curve" smooth="yes"/>
      <point x="791" y="154"/>
      <point x="856" y="257"/>
      <point x="856" y="364" type="curve" smooth="yes"/>
      <point x="856" y="475"/>
      <point x="791" y="576"/>
      <point x="674" y="576" type="curve" smooth="yes"/>
      <point x="563" y="576"/>
      <point x="503" y="486"/>
      <point x="448" y="391" type="curve"/>
      <point x="394" y="486"/>
      <point x="333" y="576"/>
      <point x="223" y="576" type="curve" smooth="yes"/>
      <point x="107" y="576"/>
      <point x="38" y="477"/>
      <point x="38" y="364" type="curve" smooth="yes"/>
      <point x="38" y="246"/>
      <point x="107" y="154"/>
    </contour>
    <contour>
      <point x="222" y="186" type="curve" smooth="yes"/>
      <point x="133" y="186"/>
      <point x="71" y="256"/>
      <point x="71" y="364" type="curve" smooth="yes"/>
      <point x="71" y="467"/>
      <point x="131" y="543"/>
      <point x="221" y="543" type="curve" smooth="yes"/>
      <point x="303" y="543"/>
      <point x="355" y="485"/>
      <point x="428" y="365" type="curve"/>
      <point x="355" y="241"/>
      <point x="299" y="186"/>
    </contour>
    <contour>
      <point x="674" y="186" type="curve" smooth="yes"/>
      <point x="589" y="186"/>
      <point x="542" y="245"/>
      <point x="467" y="365" type="curve"/>
      <point x="541" y="483"/>
      <point x="590" y="543"/>
      <point x="674" y="543" type="curve" smooth="yes"/>
      <point x="764" y="543"/>
      <point x="826" y="466"/>
      <point x="826" y="364" type="curve" smooth="yes"/>
      <point x="826" y="265"/>
      <point x="764" y="186"/>
    </contour>
  </outline>
</glyph>
<glyph name="integral" format="2">
  <advance width="418"/>
  <unicode hex="222B"/>
  <outline>
    <contour>
      <point x="8" y="-151" type="line"/>
      <point x="180" y="-151" type="line" smooth="yes"/>
      <point x="219" y="-151"/>
      <point x="227" y="-127"/>
      <point x="227" y="-101" type="curve" smooth="yes"/>
      <point x="227" y="695" type="line"/>
      <point x="410" y="695" type="line"/>
      <point x="410" y="729" type="line"/>
      <point x="237" y="729" type="line" smooth="yes"/>
      <point x="208" y="729"/>
      <point x="191" y="708"/>
      <point x="191" y="675" type="curve" smooth="yes"/>
      <point x="191" y="-118" type="line"/>
      <point x="8" y="-118" type="line"/>
    </contour>
  </outline>
</glyph>
<glyph name="approxequal" format="2">
  <advance width="720"/>
  <unicode hex="2248"/>
  <outline>
    <contour>
      <point x="443" y="218" type="curve" smooth="yes"/>
      <point x="500" y="218"/>
      <point x="538" y="253"/>
      <point x="534" y="320" type="curve"/>
      <point x="502" y="320" type="line"/>
      <point x="503" y="276"/>
      <point x="481" y="256"/>
      <point x="445" y="256" type="curve" smooth="yes"/>
      <point x="380" y="256"/>
      <point x="324" y="304"/>
      <point x="266" y="304" type="curve" smooth="yes"/>
      <point x="217" y="304"/>
      <point x="183" y="270"/>
      <point x="188" y="202" type="curve"/>
      <point x="220" y="202" type="line"/>
      <point x="216" y="243"/>
      <point x="234" y="266"/>
      <point x="266" y="266" type="curve" smooth="yes"/>
      <point x="320" y="266"/>
      <point x="381" y="218"/>
    </contour>
    <contour>
      <point x="443" y="418" type="curve" smooth="yes"/>
      <point x="502" y="418"/>
      <point x="538" y="455"/>
      <point x="534" y="520" type="curve"/>
      <point x="502" y="520" type="line"/>
      <point x="503" y="476"/>
      <point x="481" y="456"/>
      <point x="445" y="456" type="curve" smooth="yes"/>
      <point x="380" y="456"/>
      <point x="324" y="504"/>
      <point x="266" y="504" type="curve" smooth="yes"/>
      <point x="216" y="504"/>
      <point x="183" y="469"/>
      <point x="188" y="402" type="curve"/>
      <point x="220" y="402" type="line"/>
      <point x="216" y="444"/>
      <point x="234" y="465"/>
      <point x="266" y="465" type="curve" smooth="yes"/>
      <point x="320" y="465"/>
      <point x="380" y="418"/>
    </contour>
  </outline>
</glyph>
<glyph name="notequal" format="2">
  <advance width="720"/>
  <unicode hex="2260"/>
  <outline>
    <contour>
      <point x="220" y="101" type="line"/>
      <point x="257" y="101" type="line"/>
      <point x="500" y="630" type="line"/>
      <point x="465" y="630" type="line"/>
    </contour>
    <contour>
      <point x="112" y="227" type="line"/>
      <point x="607" y="227" type="line"/>
      <point x="607" y="259" type="line"/>
      <point x="112" y="259" type="line"/>
    </contour>
    <contour>
      <point x="112" y="464" type="line"/>
      <point x="607" y="464" type="line"/>
      <point x="607" y="496" type="line"/>
      <point x="112" y="496" type="line"/>
    </contour>
  </outline>
</glyph>
<glyph name="lessequal" format="2">
  <advance width="720"/>
  <unicode hex="2264"/>
  <outline>
    <contour>
      <point x="628" y="133" type="line"/>
      <point x="628" y="173" type="line"/>
      <point x="127" y="375" type="line"/>
      <point x="127" y="378" type="line"/>
      <point x="628" y="573" type="line"/>
      <point x="628" y="614" type="line"/>
      <point x="86" y="400" type="line"/>
      <point x="86" y="353" type="line"/>
    </contour>
    <contour>
      <point x="86" y="0" type="line"/>
      <point x="628" y="0" type="line"/>
      <point x="628" y="34" type="line"/>
      <point x="86" y="34" type="line"/>
    </contour>
  </outline>
</glyph>
<glyph name="greaterequal" format="2">
  <advance width="720"/>
  <unicode hex="2265"/>
  <outline>
    <contour>
      <point x="92" y="133" type="line"/>
      <point x="634" y="353" type="line"/>
      <point x="634" y="400" type="line"/>
      <point x="92" y="614" type="line"/>
      <point x="92" y="573" type="line"/>
      <point x="594" y="378" type="line"/>
      <point x="594" y="375" type="line"/>
      <point x="92" y="173" type="line"/>
    </contour>
    <contour>
      <point x="92" y="0" type="line"/>
      <point x="634" y="0" type="line"/>
      <point x="634" y="34" type="line"/>
      <point x="92" y="34" type="line"/>
    </contour>
  </outline>
</glyph>
<glyph name="blackCircle" format="2">
  <advance width="884"/>
  <unicode hex="25CF"/>
  <anchor x="442" y="363" name="center"/>
  <outline>
    <contour>
      <point x="442" y="-10" type="curve" smooth="yes"/>
      <point x="219" y="-10"/>
      <point x="60" y="139"/>
      <point x="60" y="363" type="curve" smooth="yes"/>
      <point x="60" y="587"/>
      <point x="219" y="736"/>
      <point x="442" y="736" type="curve" smooth="yes"/>
      <point x="665" y="736"/>
      <point x="824" y="587"/>
      <point x="824" y="363" type="curve" smooth="yes"/>
      <point x="824" y="139"/>
      <point x="665" y="-10"/>
    </contour>
  </outline>
</glyph>
<glyph name="checkmark" format="2">
  <advance width="942"/>
  <unicode hex="2713"/>
  <outline>
    <contour>
      <point x="311" y="137" type="line"/>
      <point x="817" y="560" type="line"/>
      <point x="794" y="587" type="line"/>
      <point x="315" y="187" type="line"/>
      <point x="151" y="412" type="line"/>
      <point x="125" y="389" type="line"/>
    </contour>
  </outline>
</glyph>
<glyph name="fi" format="2">
  <advance width="478"/>
  <unicode hex="FB01"/>
  <outline>
    <contour>
      <point x="119" y="0" type="line"/>
      <point x="156" y="0" type="line"/>
      <point x="156" y="485" type="line"/>
      <point x="375" y="485" type="line"/>
      <point x="375" y="0" type="line"/>
      <point x="412" y="0" type="line"/>
      <point x="412" y="517" type="line"/>
      <point x="156" y="517" type="line"/>
      <point x="156" y="598" type="line" smooth="yes"/>
      <point x="156" y="666"/>
      <point x="182" y="695"/>
      <point x="248" y="695" type="curve" smooth="yes"/>
      <point x="316" y="695" type="line"/>
      <point x="316" y="729" type="line"/>
      <point x="242" y="729" type="line" smooth="yes"/>
      <point x="166" y="729"/>
      <point x="119" y="688"/>
      <point x="119" y="603" type="curve" smooth="yes"/>
      <point x="119" y="517" type="line"/>
      <point x="11" y="517" type="line"/>
      <point x="11" y="485" type="line"/>
      <point x="119" y="485" type="line"/>
    </contour>
    <contour>
      <point x="394" y="625" type="curve" smooth="yes"/>
      <point x="413" y="625"/>
      <point x="426" y="638"/>
      <point x="426" y="656" type="curve" smooth="yes"/>
      <point x="426" y="674"/>
      <point x="413" y="687"/>
      <point x="394" y="687" type="curve" smooth="yes"/>
      <point x="375" y="687"/>
      <point x="362" y="674"/>
      <point x="362" y="656" type="curve" smooth="yes"/>
      <point x="362" y="638"/>
      <point x="375" y="625"/>
    </contour>
  </outline>
</glyph>
<glyph name="G.ss06" format="2">
  <advance width="820"/>
  <anchor x="413" y="0" name="bottom"/>
  <anchor x="417" y="729" name="top"/>
  <outline>
    <contour>
      <point x="417" y="-8" type="curve" smooth="yes"/>
      <point x="638" y="-8"/>
      <point x="788" y="124"/>
      <point x="788" y="340" type="curve" smooth="yes"/>
      <point x="788" y="366" type="line"/>
      <point x="402" y="366" type="line"/>
      <point x="402" y="331" type="line"/>
      <point x="777" y="331" type="line"/>
      <point x="747" y="353" type="line"/>
      <point x="747" y="327" type="line" smooth="yes"/>
      <point x="747" y="140"/>
      <point x="612" y="28"/>
      <point x="417" y="28" type="curve" smooth="yes"/>
      <point x="208" y="28"/>
      <point x="73" y="162"/>
      <point x="73" y="365" type="curve" smooth="yes"/>
      <point x="73" y="567"/>
      <point x="210" y="699"/>
      <point x="417" y="699" type="curve" smooth="yes"/>
      <point x="580" y="699"/>
      <point x="703" y="620"/>
      <point x="728" y="493" type="curve"/>
      <point x="767" y="493" type="line"/>
      <point x="741" y="640"/>
      <point x="601" y="736"/>
      <point x="417" y="736" type="curve" smooth="yes"/>
      <point x="190" y="736"/>
      <point x="36" y="587"/>
      <point x="36" y="364" type="curve" smooth="yes"/>
      <point x="36" y="141"/>
      <point x="187" y="-8"/>
    </contour>
  </outline>
</glyph>
<glyph name="I.ss02" format="2">
  <advance width="522"/>
  <anchor x="260" y="0" name="bottom"/>
  <anchor x="500" y="0" name="ogonek"/>
  <anchor x="260" y="729" name="top"/>
  <anchor x="3" y="729" name="topleft"/>
  <outline>
    <contour>
      <point x="242" y="27" type="line"/>
      <point x="280" y="27" type="line"/>
      <point x="280" y="703" type="line"/>
      <point x="242" y="703" type="line"/>
    </contour>
    <contour>
      <point x="21" y="693" type="line"/>
      <point x="500" y="693" type="line"/>
      <point x="500" y="729" type="line"/>
      <point x="21" y="729" type="line"/>
    </contour>
    <contour>
      <point x="21" y="0" type="line"/>
      <point x="500" y="0" type="line"/>
      <point x="500" y="36" type="line"/>
      <point x="21" y="36" type="line"/>
    </contour>
  </outline>
</glyph>
<glyph name="_B.currency" format="2">
  <advance width="729"/>
  <anchor x="382" y="0" name="bottom"/>
  <outline>
    <contour>
      <point x="85" y="0" type="line"/>
      <point x="445" y="0" type="line" smooth="yes"/>
      <point x="588" y="0"/>
      <point x="679" y="78"/>
      <point x="679" y="200" type="curve" smooth="yes"/>
      <point x="679" y="285"/>
      <point x="630" y="356"/>
      <point x="533" y="374" type="curve"/>
      <point x="533" y="377" type="line"/>
      <point x="621" y="397"/>
      <point x="660" y="464"/>
      <point x="660" y="543" type="curve" smooth="yes"/>
      <point x="660" y="654"/>
      <point x="581" y="729"/>
      <point x="446" y="729" type="curve" smooth="yes"/>
      <point x="85" y="729" type="line"/>
    </contour>
    <contour>
      <point x="123" y="36" type="line"/>
      <point x="123" y="356" type="line"/>
      <point x="463" y="356" type="line" smooth="yes"/>
      <point x="575" y="356"/>
      <point x="639" y="298"/>
      <point x="639" y="202" type="curve" smooth="yes"/>
      <point x="639" y="104"/>
      <point x="573" y="36"/>
      <point x="445" y="36" type="curve" smooth="yes"/>
    </contour>
    <contour>
      <point x="123" y="391" type="line"/>
      <point x="123" y="694" type="line"/>
      <point x="445" y="694" type="line" smooth="yes"/>
      <point x="552" y="694"/>
      <point x="622" y="635"/>
      <point x="622" y="538" type="curve" smooth="yes"/>
      <point x="622" y="450"/>
      <point x="566" y="391"/>
      <point x="461" y="391" type="curve" smooth="yes"/>
    </contour>
  </outline>
</glyph>
<glyph name="_Thorn.bowl" format="2">
  <advance width="548"/>
  <anchor x="32" y="0" name="_bottom"/>
  <outline>
    <contour>
      <point x="40" y="145" type="line"/>
      <point x="253" y="145" type="line" smooth="yes"/>
      <point x="412" y="145"/>
      <point x="508" y="231"/>
      <point x="508" y="365" type="curve" smooth="yes"/>
      <point x="508" y="505"/>
      <point x="413" y="585"/>
      <point x="254" y="585" type="curve" smooth="yes"/>
      <point x="40" y="585" type="line"/>
      <point x="40" y="548" type="line"/>
      <point x="251" y="548" type="line" smooth="yes"/>
      <point x="393" y="548"/>
      <point x="468" y="479"/>
      <point x="468" y="365" type="curve" smooth="yes"/>
      <point x="468" y="254"/>
      <point x="394" y="181"/>
      <point x="251" y="181" type="curve" smooth="yes"/>
      <point x="40" y="181" type="line"/>
    </contour>
  </outline>
</glyph>
<glyph name="_bitcoin.bars" format="2">
  <advance width="266"/>
  <anchor x="183" y="0" name="_bottom"/>
  <outline>
    <contour>
      <point x="40" y="-85" type="line"/>
      <point x="72" y="-85" type="line"/>
      <point x="72" y="22" type="line"/>
      <point x="40" y="22" type="line"/>
    </contour>
    <contour>
      <point x="194" y="-85" type="line"/>
      <point x="226" y="-85" type="line"/>
      <point x="226" y="22" type="line"/>
      <point x="194" y="22" type="line"/>
    </contour>
    <contour>
      <point x="40" y="714" type="line"/>
      <point x="72" y="714" type="line"/>
      <point x="72" y="814" type="line"/>
      <point x="40" y="814" type="line"/>
    </contour>
    <contour>
      <point x="194" y="714" type="line"/>
      <point x="226" y="714" type="line"/>
      <point x="226" y="814" type="line"/>
      <point x="194" y="814" type="line"/>
    </contour>
  </outline>
</glyph>
<glyph name="_circle" format="2">
  <advance width="884"/>
  <outline>
    <contour>
      <point x="442" y="-10" type="curve" smooth="yes"/>
      <point x="665" y="-10"/>
      <point x="824" y="139"/>
      <point x="824" y="363" type="curve" smooth="yes"/>
      <point x="824" y="587"/>
      <point x="665" y="736"/>
      <point x="442" y="736" type="curve" smooth="yes"/>
      <point x="219" y="736"/>
      <point x="60" y="587"/>
      <point x="60" y="363" type="curve" smooth="yes"/>
      <point x="60" y="139"/>
      <point x="219" y="-10"/>
    </contour>
    <contour>
      <point x="442" y="24" type="curve" smooth="yes"/>
      <point x="242" y="24"/>
      <point x="97" y="160"/>
      <point x="97" y="363" type="curve" smooth="yes"/>
      <point x="97" y="566"/>
      <point x="242" y="702"/>
      <point x="442" y="702" type="curve" smooth="yes"/>
      <point x="642" y="702"/>
      <point x="787" y="566"/>
      <point x="787" y="363" type="curve" smooth="yes"/>
      <point x="787" y="160"/>
      <point x="642" y="24"/>
    </contour>
  </outline>
</glyph>
<glyph name="_copyright.C" format="2">
  <advance width="483"/>
  <anchor x="241" y="363" name="_center"/>
  <outline>
    <contour>
      <point x="245" y="161" type="curve" smooth="yes"/>
      <point x="345" y="161"/>
      <point x="429" y="217"/>
      <point x="443" y="300" type="curve"/>
      <point x="406" y="300" type="line"/>
      <point x="391" y="237"/>
      <point x="328" y="193"/>
      <point x="246" y="193" type="curve" smooth="yes"/>
      <point x="138" y="193"/>
      <point x="76" y="260"/>
      <point x="76" y="362" type="curve" smooth="yes"/>
      <point x="76" y="465"/>
      <point x="145" y="533"/>
      <point x="248" y="533" type="curve" smooth="yes"/>
      <point x="324" y="533"/>
      <point x="384" y="500"/>
      <point x="403" y="434" type="curve"/>
      <point x="439" y="434" type="line"/>
      <point x="427" y="513"/>
      <point x="350" y="565"/>
      <point x="248" y="565" type="curve" smooth="yes"/>
      <point x="124" y="565"/>
      <point x="40" y="483"/>
      <point x="40" y="362" type="curve" smooth="yes"/>
      <point x="40" y="238"/>
      <point x="120" y="161"/>
    </contour>
  </outline>
</glyph>
<glyph name="_published.P" format="2">
  <advance width="412"/>
  <anchor x="176" y="363" name="_center"/>
  <outline>
    <contour>
      <point x="40" y="165" type="line"/>
      <point x="76" y="165" type="line"/>
      <point x="76" y="532" type="line"/>
      <point x="227" y="532" type="line" smooth="yes"/>
      <point x="298" y="532"/>
      <point x="337" y="498"/>
      <point x="337" y="440" type="curve" smooth="yes"/>
      <point x="337" y="384"/>
      <point x="297" y="349"/>
      <point x="227" y="349" type="curve" smooth="yes"/>
      <point x="68" y="349" type="line"/>
      <point x="68" y="319" type="line"/>
      <point x="230" y="319" type="line" smooth="yes"/>
      <point x="316" y="319"/>
      <point x="372" y="364"/>
      <point x="372" y="441" type="curve" smooth="yes"/>
      <point x="372" y="517"/>
      <point x="319" y="562"/>
      <point x="230" y="562" type="curve" smooth="yes"/>
      <point x="40" y="562" type="line"/>
    </contour>
  </outline>
</glyph>
<glyph name="_slash.equal" format="2">
  <advance width="452"/>
  <anchor x="227" y="365" name="_center"/>
  <outline>
    <contour>
      <point x="40" y="0" type="line"/>
      <point x="77" y="0" type="line"/>
      <point x="412" y="729" type="line"/>
      <point x="377" y="729" type="line"/>
    </contour>
  </outline>
</glyph>
<glyph name="_tail.Q" format="2">
  <advance width="237"/>
  <anchor x="37" y="0" name="_bottom"/>
  <outline>
    <contour>
      <point x="37" y="28" type="line"/>
      <point x="37" y="0" type="line"/>
      <point x="465" y="0" type="line"/>
      <point x="465" y="34" type="line"/>
      <point x="350" y="34" type="line"/>
    </contour>
  </outline>
</glyph>
<glyph name="_zero.tf.base" format="2">
  <advance width="720"/>
  <anchor x="360.5" y="369.5" name="center"/>
  <outline>
    <contour>
      <point x="364" y="-10" type="curve" smooth="yes"/>
      <point x="531" y="-10"/>
      <point x="647" y="117"/>
      <point x="647" y="360" type="curve" smooth="yes"/>
      <point x="647" y="604"/>
      <point x="529" y="729"/>
      <point x="362" y="729" type="curve" smooth="yes"/>
      <point x="189" y="729"/>
      <point x="74" y="603"/>
      <point x="74" y="360" type="curve" smooth="yes"/>
      <point x="74" y="115"/>
      <point x="194" y="-10"/>
    </contour>
    <contour>
      <point x="363" y="24" type="curve" smooth="yes"/>
      <point x="201" y="24"/>
      <point x="114" y="149"/>
      <point x="114" y="360" type="curve" smooth="yes"/>
      <point x="114" y="572"/>
      <point x="203" y="695"/>
      <point x="362" y="695" type="curve" smooth="yes"/>
      <point x="522" y="695"/>
      <point x="609" y="570"/>
      <point x="609" y="360" type="curve" smooth="yes"/>
      <point x="609" y="149"/>
      <point x="519" y="24"/>
    </contour>
  </outline>
</glyph>
<glyph name="_zero.tf.slash" format="2">
  <advance width="561"/>
  <anchor x="280" y="370" name="_center"/>
  <outline>
    <contour>
      <point x="40" y="163" type="line"/>
      <point x="521" y="520" type="line"/>
      <point x="521" y="557" type="line"/>
      <point x="40" y="199" type="line"/>
    </contour>
  </outline>
</glyph>
